StartChar: custom_1_3_0_0_0
Encoding: 23868 23868 3900
Width: 70
Flags: H
LayerCount: 2
Fore
SplineSet
17 43 m 1
 15 43 l 1
 15 41 l 1
 17 41 l 1
 17 43 l 1
17 39 m 1
 15 39 l 1
 15 37 l 1
 17 37 l 1
 17 39 l 1
23 43 m 1
 21 43 l 1
 21 41 l 1
 23 41 l 1
 23 43 l 1
23 39 m 1
 21 39 l 1
 21 37 l 1
 23 37 l 1
 23 39 l 1
31 43 m 1
 29 43 l 1
 29 41 l 1
 31 41 l 1
 31 43 l 1
31 39 m 1
 29 39 l 1
 29 37 l 1
 31 37 l 1
 31 39 l 1
17 35 m 1
 15 35 l 1
 15 33 l 1
 17 33 l 1
 17 35 l 1
17 31 m 1
 15 31 l 1
 15 29 l 1
 17 29 l 1
 17 31 l 1
17 27 m 1
 15 27 l 1
 15 25 l 1
 17 25 l 1
 17 27 l 1
23 35 m 1
 21 35 l 1
 21 33 l 1
 23 33 l 1
 23 35 l 1
25 35 m 1
 24 35 l 1
 24 33 l 1
 26 33 l 1
 26 34 l 1
 25 34 l 1
 25 35 l 1
28 35 m 1
 26 35 l 1
 26 34 l 1
 27 34 l 1
 27 33 l 1
 28 33 l 1
 28 35 l 1
31 35 m 1
 29 35 l 1
 29 33 l 1
 31 33 l 1
 31 35 l 1
36 37 m 1
 34 37 l 1
 34 35 l 1
 36 35 l 1
 36 37 l 1
31 31 m 1
 29 31 l 1
 29 29 l 1
 31 29 l 1
 31 31 l 1
36 33 m 1
 34 33 l 1
 34 31 l 1
 36 31 l 1
 36 33 l 1
31 27 m 1
 29 27 l 1
 29 25 l 1
 31 25 l 1
 31 27 l 1
49 43 m 1
 47 43 l 1
 47 41 l 1
 49 41 l 1
 49 43 l 1
49 39 m 1
 47 39 l 1
 47 37 l 1
 49 37 l 1
 49 39 l 1
55 43 m 1
 53 43 l 1
 53 41 l 1
 55 41 l 1
 55 43 l 1
58 43 m 1
 56 43 l 1
 56 41 l 1
 57 41 l 1
 57 42 l 1
 58 42 l 1
 58 43 l 1
59 42 m 1
 58 42 l 1
 58 41 l 1
 60 41 l 1
 60 43 l 1
 59 43 l 1
 59 42 l 1
63 43 m 1
 61 43 l 1
 61 41 l 1
 63 41 l 1
 63 43 l 1
63 39 m 1
 61 39 l 1
 61 37 l 1
 63 37 l 1
 63 39 l 1
49 35 m 1
 47 35 l 1
 47 33 l 1
 49 33 l 1
 49 35 l 1
49 31 m 1
 47 31 l 1
 47 29 l 1
 49 29 l 1
 49 31 l 1
49 27 m 1
 47 27 l 1
 47 25 l 1
 49 25 l 1
 49 27 l 1
55 35 m 1
 53 35 l 1
 53 33 l 1
 55 33 l 1
 55 35 l 1
57 35 m 1
 56 35 l 1
 56 33 l 1
 58 33 l 1
 58 34 l 1
 57 34 l 1
 57 35 l 1
60 35 m 1
 58 35 l 1
 58 34 l 1
 59 34 l 1
 59 33 l 1
 60 33 l 1
 60 35 l 1
63 35 m 1
 61 35 l 1
 61 33 l 1
 63 33 l 1
 63 35 l 1
63 31 m 1
 61 31 l 1
 61 29 l 1
 63 29 l 1
 63 31 l 1
55 27 m 1
 53 27 l 1
 53 25 l 1
 55 25 l 1
 55 27 l 1
58 27 m 1
 56 27 l 1
 56 25 l 1
 57 25 l 1
 57 26 l 1
 58 26 l 1
 58 27 l 1
59 26 m 1
 58 26 l 1
 58 25 l 1
 60 25 l 1
 60 27 l 1
 59 27 l 1
 59 26 l 1
63 27 m 1
 61 27 l 1
 61 25 l 1
 63 25 l 1
 63 27 l 1
EndSplineSet
EndChar

StartChar: custom_1_3_0_0_1
Encoding: 23869 23869 3901
Width: 70
Flags: H
LayerCount: 2
Fore
SplineSet
17 43 m 1
 15 43 l 1
 15 41 l 1
 17 41 l 1
 17 43 l 1
17 39 m 1
 15 39 l 1
 15 37 l 1
 17 37 l 1
 17 39 l 1
23 43 m 1
 21 43 l 1
 21 41 l 1
 23 41 l 1
 23 43 l 1
23 39 m 1
 21 39 l 1
 21 37 l 1
 23 37 l 1
 23 39 l 1
31 43 m 1
 29 43 l 1
 29 41 l 1
 31 41 l 1
 31 43 l 1
31 39 m 1
 29 39 l 1
 29 37 l 1
 31 37 l 1
 31 39 l 1
17 35 m 1
 15 35 l 1
 15 33 l 1
 17 33 l 1
 17 35 l 1
17 31 m 1
 15 31 l 1
 15 29 l 1
 17 29 l 1
 17 31 l 1
17 27 m 1
 15 27 l 1
 15 25 l 1
 17 25 l 1
 17 27 l 1
23 35 m 1
 21 35 l 1
 21 33 l 1
 23 33 l 1
 23 35 l 1
25 35 m 1
 24 35 l 1
 24 33 l 1
 26 33 l 1
 26 34 l 1
 25 34 l 1
 25 35 l 1
28 35 m 1
 26 35 l 1
 26 34 l 1
 27 34 l 1
 27 33 l 1
 28 33 l 1
 28 35 l 1
31 35 m 1
 29 35 l 1
 29 33 l 1
 31 33 l 1
 31 35 l 1
36 37 m 1
 34 37 l 1
 34 35 l 1
 36 35 l 1
 36 37 l 1
31 31 m 1
 29 31 l 1
 29 29 l 1
 31 29 l 1
 31 31 l 1
36 33 m 1
 34 33 l 1
 34 31 l 1
 36 31 l 1
 36 33 l 1
31 27 m 1
 29 27 l 1
 29 25 l 1
 31 25 l 1
 31 27 l 1
49 43 m 1
 47 43 l 1
 47 41 l 1
 49 41 l 1
 49 43 l 1
49 39 m 1
 47 39 l 1
 47 37 l 1
 49 37 l 1
 49 39 l 1
55 43 m 1
 53 43 l 1
 53 41 l 1
 55 41 l 1
 55 43 l 1
58 43 m 1
 56 43 l 1
 56 41 l 1
 57 41 l 1
 57 42 l 1
 58 42 l 1
 58 43 l 1
59 42 m 1
 58 42 l 1
 58 41 l 1
 60 41 l 1
 60 43 l 1
 59 43 l 1
 59 42 l 1
63 43 m 1
 61 43 l 1
 61 41 l 1
 63 41 l 1
 63 43 l 1
63 39 m 1
 61 39 l 1
 61 37 l 1
 63 37 l 1
 63 39 l 1
49 35 m 1
 47 35 l 1
 47 33 l 1
 49 33 l 1
 49 35 l 1
49 31 m 1
 47 31 l 1
 47 29 l 1
 49 29 l 1
 49 31 l 1
49 27 m 1
 47 27 l 1
 47 25 l 1
 49 25 l 1
 49 27 l 1
55 35 m 1
 53 35 l 1
 53 33 l 1
 55 33 l 1
 55 35 l 1
57 35 m 1
 56 35 l 1
 56 33 l 1
 58 33 l 1
 58 34 l 1
 57 34 l 1
 57 35 l 1
60 35 m 1
 58 35 l 1
 58 34 l 1
 59 34 l 1
 59 33 l 1
 60 33 l 1
 60 35 l 1
63 35 m 1
 61 35 l 1
 61 33 l 1
 63 33 l 1
 63 35 l 1
63 31 m 1
 61 31 l 1
 61 29 l 1
 63 29 l 1
 63 31 l 1
55 27 m 1
 53 27 l 1
 53 25 l 1
 55 25 l 1
 55 27 l 1
58 27 m 1
 56 27 l 1
 56 25 l 1
 57 25 l 1
 57 26 l 1
 58 26 l 1
 58 27 l 1
59 26 m 1
 58 26 l 1
 58 25 l 1
 60 25 l 1
 60 27 l 1
 59 27 l 1
 59 26 l 1
63 27 m 1
 61 27 l 1
 61 25 l 1
 63 25 l 1
 63 27 l 1
EndSplineSet
EndChar

StartChar: custom_1_3_0_0_2
Encoding: 23870 23870 3902
Width: 70
Flags: H
LayerCount: 2
Fore
SplineSet
17 43 m 1
 15 43 l 1
 15 41 l 1
 17 41 l 1
 17 43 l 1
17 39 m 1
 15 39 l 1
 15 37 l 1
 17 37 l 1
 17 39 l 1
23 43 m 1
 21 43 l 1
 21 41 l 1
 23 41 l 1
 23 43 l 1
23 39 m 1
 21 39 l 1
 21 37 l 1
 23 37 l 1
 23 39 l 1
31 43 m 1
 29 43 l 1
 29 41 l 1
 31 41 l 1
 31 43 l 1
31 39 m 1
 29 39 l 1
 29 37 l 1
 31 37 l 1
 31 39 l 1
17 35 m 1
 15 35 l 1
 15 33 l 1
 17 33 l 1
 17 35 l 1
17 31 m 1
 15 31 l 1
 15 29 l 1
 17 29 l 1
 17 31 l 1
17 27 m 1
 15 27 l 1
 15 25 l 1
 17 25 l 1
 17 27 l 1
23 35 m 1
 21 35 l 1
 21 33 l 1
 23 33 l 1
 23 35 l 1
25 35 m 1
 24 35 l 1
 24 33 l 1
 26 33 l 1
 26 34 l 1
 25 34 l 1
 25 35 l 1
28 35 m 1
 26 35 l 1
 26 34 l 1
 27 34 l 1
 27 33 l 1
 28 33 l 1
 28 35 l 1
31 35 m 1
 29 35 l 1
 29 33 l 1
 31 33 l 1
 31 35 l 1
36 37 m 1
 34 37 l 1
 34 35 l 1
 36 35 l 1
 36 37 l 1
31 31 m 1
 29 31 l 1
 29 29 l 1
 31 29 l 1
 31 31 l 1
36 33 m 1
 34 33 l 1
 34 31 l 1
 36 31 l 1
 36 33 l 1
31 27 m 1
 29 27 l 1
 29 25 l 1
 31 25 l 1
 31 27 l 1
49 43 m 1
 47 43 l 1
 47 41 l 1
 49 41 l 1
 49 43 l 1
49 39 m 1
 47 39 l 1
 47 37 l 1
 49 37 l 1
 49 39 l 1
55 43 m 1
 53 43 l 1
 53 41 l 1
 55 41 l 1
 55 43 l 1
58 43 m 1
 56 43 l 1
 56 41 l 1
 57 41 l 1
 57 42 l 1
 58 42 l 1
 58 43 l 1
59 42 m 1
 58 42 l 1
 58 41 l 1
 60 41 l 1
 60 43 l 1
 59 43 l 1
 59 42 l 1
63 43 m 1
 61 43 l 1
 61 41 l 1
 63 41 l 1
 63 43 l 1
63 39 m 1
 61 39 l 1
 61 37 l 1
 63 37 l 1
 63 39 l 1
49 35 m 1
 47 35 l 1
 47 33 l 1
 49 33 l 1
 49 35 l 1
49 31 m 1
 47 31 l 1
 47 29 l 1
 49 29 l 1
 49 31 l 1
49 27 m 1
 47 27 l 1
 47 25 l 1
 49 25 l 1
 49 27 l 1
55 35 m 1
 53 35 l 1
 53 33 l 1
 55 33 l 1
 55 35 l 1
57 35 m 1
 56 35 l 1
 56 33 l 1
 58 33 l 1
 58 34 l 1
 57 34 l 1
 57 35 l 1
60 35 m 1
 58 35 l 1
 58 34 l 1
 59 34 l 1
 59 33 l 1
 60 33 l 1
 60 35 l 1
63 35 m 1
 61 35 l 1
 61 33 l 1
 63 33 l 1
 63 35 l 1
63 31 m 1
 61 31 l 1
 61 29 l 1
 63 29 l 1
 63 31 l 1
55 27 m 1
 53 27 l 1
 53 25 l 1
 55 25 l 1
 55 27 l 1
58 27 m 1
 56 27 l 1
 56 25 l 1
 57 25 l 1
 57 26 l 1
 58 26 l 1
 58 27 l 1
59 26 m 1
 58 26 l 1
 58 25 l 1
 60 25 l 1
 60 27 l 1
 59 27 l 1
 59 26 l 1
63 27 m 1
 61 27 l 1
 61 25 l 1
 63 25 l 1
 63 27 l 1
EndSplineSet
EndChar

StartChar: custom_1_3_0_0_3
Encoding: 23871 23871 3903
Width: 70
Flags: H
LayerCount: 2
Fore
SplineSet
17 43 m 1
 15 43 l 1
 15 41 l 1
 17 41 l 1
 17 43 l 1
17 39 m 1
 15 39 l 1
 15 37 l 1
 17 37 l 1
 17 39 l 1
23 43 m 1
 21 43 l 1
 21 41 l 1
 23 41 l 1
 23 43 l 1
23 39 m 1
 21 39 l 1
 21 37 l 1
 23 37 l 1
 23 39 l 1
31 43 m 1
 29 43 l 1
 29 41 l 1
 31 41 l 1
 31 43 l 1
31 39 m 1
 29 39 l 1
 29 37 l 1
 31 37 l 1
 31 39 l 1
17 35 m 1
 15 35 l 1
 15 33 l 1
 17 33 l 1
 17 35 l 1
17 31 m 1
 15 31 l 1
 15 29 l 1
 17 29 l 1
 17 31 l 1
17 27 m 1
 15 27 l 1
 15 25 l 1
 17 25 l 1
 17 27 l 1
23 35 m 1
 21 35 l 1
 21 33 l 1
 23 33 l 1
 23 35 l 1
25 35 m 1
 24 35 l 1
 24 33 l 1
 26 33 l 1
 26 34 l 1
 25 34 l 1
 25 35 l 1
28 35 m 1
 26 35 l 1
 26 34 l 1
 27 34 l 1
 27 33 l 1
 28 33 l 1
 28 35 l 1
31 35 m 1
 29 35 l 1
 29 33 l 1
 31 33 l 1
 31 35 l 1
36 37 m 1
 34 37 l 1
 34 35 l 1
 36 35 l 1
 36 37 l 1
31 31 m 1
 29 31 l 1
 29 29 l 1
 31 29 l 1
 31 31 l 1
36 33 m 1
 34 33 l 1
 34 31 l 1
 36 31 l 1
 36 33 l 1
31 27 m 1
 29 27 l 1
 29 25 l 1
 31 25 l 1
 31 27 l 1
49 43 m 1
 47 43 l 1
 47 41 l 1
 49 41 l 1
 49 43 l 1
49 39 m 1
 47 39 l 1
 47 37 l 1
 49 37 l 1
 49 39 l 1
55 43 m 1
 53 43 l 1
 53 41 l 1
 55 41 l 1
 55 43 l 1
58 43 m 1
 56 43 l 1
 56 41 l 1
 57 41 l 1
 57 42 l 1
 58 42 l 1
 58 43 l 1
59 42 m 1
 58 42 l 1
 58 41 l 1
 60 41 l 1
 60 43 l 1
 59 43 l 1
 59 42 l 1
63 43 m 1
 61 43 l 1
 61 41 l 1
 63 41 l 1
 63 43 l 1
63 39 m 1
 61 39 l 1
 61 37 l 1
 63 37 l 1
 63 39 l 1
49 35 m 1
 47 35 l 1
 47 33 l 1
 49 33 l 1
 49 35 l 1
49 31 m 1
 47 31 l 1
 47 29 l 1
 49 29 l 1
 49 31 l 1
49 27 m 1
 47 27 l 1
 47 25 l 1
 49 25 l 1
 49 27 l 1
55 35 m 1
 53 35 l 1
 53 33 l 1
 55 33 l 1
 55 35 l 1
57 35 m 1
 56 35 l 1
 56 33 l 1
 58 33 l 1
 58 34 l 1
 57 34 l 1
 57 35 l 1
60 35 m 1
 58 35 l 1
 58 34 l 1
 59 34 l 1
 59 33 l 1
 60 33 l 1
 60 35 l 1
63 35 m 1
 61 35 l 1
 61 33 l 1
 63 33 l 1
 63 35 l 1
63 31 m 1
 61 31 l 1
 61 29 l 1
 63 29 l 1
 63 31 l 1
55 27 m 1
 53 27 l 1
 53 25 l 1
 55 25 l 1
 55 27 l 1
58 27 m 1
 56 27 l 1
 56 25 l 1
 57 25 l 1
 57 26 l 1
 58 26 l 1
 58 27 l 1
59 26 m 1
 58 26 l 1
 58 25 l 1
 60 25 l 1
 60 27 l 1
 59 27 l 1
 59 26 l 1
63 27 m 1
 61 27 l 1
 61 25 l 1
 63 25 l 1
 63 27 l 1
EndSplineSet
EndChar

StartChar: custom_1_3_0_0_4
Encoding: 23872 23872 3904
Width: 70
Flags: H
LayerCount: 2
Fore
SplineSet
17 43 m 1
 15 43 l 1
 15 41 l 1
 17 41 l 1
 17 43 l 1
17 39 m 1
 15 39 l 1
 15 37 l 1
 17 37 l 1
 17 39 l 1
23 43 m 1
 21 43 l 1
 21 41 l 1
 23 41 l 1
 23 43 l 1
23 39 m 1
 21 39 l 1
 21 37 l 1
 23 37 l 1
 23 39 l 1
31 43 m 1
 29 43 l 1
 29 41 l 1
 31 41 l 1
 31 43 l 1
31 39 m 1
 29 39 l 1
 29 37 l 1
 31 37 l 1
 31 39 l 1
17 35 m 1
 15 35 l 1
 15 33 l 1
 17 33 l 1
 17 35 l 1
17 31 m 1
 15 31 l 1
 15 29 l 1
 17 29 l 1
 17 31 l 1
17 27 m 1
 15 27 l 1
 15 25 l 1
 17 25 l 1
 17 27 l 1
23 35 m 1
 21 35 l 1
 21 33 l 1
 23 33 l 1
 23 35 l 1
25 35 m 1
 24 35 l 1
 24 33 l 1
 26 33 l 1
 26 34 l 1
 25 34 l 1
 25 35 l 1
28 35 m 1
 26 35 l 1
 26 34 l 1
 27 34 l 1
 27 33 l 1
 28 33 l 1
 28 35 l 1
31 35 m 1
 29 35 l 1
 29 33 l 1
 31 33 l 1
 31 35 l 1
36 37 m 1
 34 37 l 1
 34 35 l 1
 36 35 l 1
 36 37 l 1
31 31 m 1
 29 31 l 1
 29 29 l 1
 31 29 l 1
 31 31 l 1
36 33 m 1
 34 33 l 1
 34 31 l 1
 36 31 l 1
 36 33 l 1
31 27 m 1
 29 27 l 1
 29 25 l 1
 31 25 l 1
 31 27 l 1
49 43 m 1
 47 43 l 1
 47 41 l 1
 49 41 l 1
 49 43 l 1
49 39 m 1
 47 39 l 1
 47 37 l 1
 49 37 l 1
 49 39 l 1
55 43 m 1
 53 43 l 1
 53 41 l 1
 55 41 l 1
 55 43 l 1
58 43 m 1
 56 43 l 1
 56 41 l 1
 57 41 l 1
 57 42 l 1
 58 42 l 1
 58 43 l 1
59 42 m 1
 58 42 l 1
 58 41 l 1
 60 41 l 1
 60 43 l 1
 59 43 l 1
 59 42 l 1
63 43 m 1
 61 43 l 1
 61 41 l 1
 63 41 l 1
 63 43 l 1
63 39 m 1
 61 39 l 1
 61 37 l 1
 63 37 l 1
 63 39 l 1
49 35 m 1
 47 35 l 1
 47 33 l 1
 49 33 l 1
 49 35 l 1
49 31 m 1
 47 31 l 1
 47 29 l 1
 49 29 l 1
 49 31 l 1
49 27 m 1
 47 27 l 1
 47 25 l 1
 49 25 l 1
 49 27 l 1
55 35 m 1
 53 35 l 1
 53 33 l 1
 55 33 l 1
 55 35 l 1
57 35 m 1
 56 35 l 1
 56 33 l 1
 58 33 l 1
 58 34 l 1
 57 34 l 1
 57 35 l 1
60 35 m 1
 58 35 l 1
 58 34 l 1
 59 34 l 1
 59 33 l 1
 60 33 l 1
 60 35 l 1
63 35 m 1
 61 35 l 1
 61 33 l 1
 63 33 l 1
 63 35 l 1
63 31 m 1
 61 31 l 1
 61 29 l 1
 63 29 l 1
 63 31 l 1
55 27 m 1
 53 27 l 1
 53 25 l 1
 55 25 l 1
 55 27 l 1
58 27 m 1
 56 27 l 1
 56 25 l 1
 57 25 l 1
 57 26 l 1
 58 26 l 1
 58 27 l 1
59 26 m 1
 58 26 l 1
 58 25 l 1
 60 25 l 1
 60 27 l 1
 59 27 l 1
 59 26 l 1
63 27 m 1
 61 27 l 1
 61 25 l 1
 63 25 l 1
 63 27 l 1
EndSplineSet
EndChar

StartChar: custom_1_3_0_0_5
Encoding: 23873 23873 3905
Width: 70
Flags: H
LayerCount: 2
Fore
SplineSet
17 43 m 1
 15 43 l 1
 15 41 l 1
 17 41 l 1
 17 43 l 1
17 39 m 1
 15 39 l 1
 15 37 l 1
 17 37 l 1
 17 39 l 1
23 43 m 1
 21 43 l 1
 21 41 l 1
 23 41 l 1
 23 43 l 1
23 39 m 1
 21 39 l 1
 21 37 l 1
 23 37 l 1
 23 39 l 1
31 43 m 1
 29 43 l 1
 29 41 l 1
 31 41 l 1
 31 43 l 1
31 39 m 1
 29 39 l 1
 29 37 l 1
 31 37 l 1
 31 39 l 1
17 35 m 1
 15 35 l 1
 15 33 l 1
 17 33 l 1
 17 35 l 1
17 31 m 1
 15 31 l 1
 15 29 l 1
 17 29 l 1
 17 31 l 1
17 27 m 1
 15 27 l 1
 15 25 l 1
 17 25 l 1
 17 27 l 1
23 35 m 1
 21 35 l 1
 21 33 l 1
 23 33 l 1
 23 35 l 1
25 35 m 1
 24 35 l 1
 24 33 l 1
 26 33 l 1
 26 34 l 1
 25 34 l 1
 25 35 l 1
28 35 m 1
 26 35 l 1
 26 34 l 1
 27 34 l 1
 27 33 l 1
 28 33 l 1
 28 35 l 1
31 35 m 1
 29 35 l 1
 29 33 l 1
 31 33 l 1
 31 35 l 1
36 37 m 1
 34 37 l 1
 34 35 l 1
 36 35 l 1
 36 37 l 1
31 31 m 1
 29 31 l 1
 29 29 l 1
 31 29 l 1
 31 31 l 1
36 33 m 1
 34 33 l 1
 34 31 l 1
 36 31 l 1
 36 33 l 1
31 27 m 1
 29 27 l 1
 29 25 l 1
 31 25 l 1
 31 27 l 1
49 43 m 1
 47 43 l 1
 47 41 l 1
 49 41 l 1
 49 43 l 1
49 39 m 1
 47 39 l 1
 47 37 l 1
 49 37 l 1
 49 39 l 1
55 43 m 1
 53 43 l 1
 53 41 l 1
 55 41 l 1
 55 43 l 1
58 43 m 1
 56 43 l 1
 56 41 l 1
 57 41 l 1
 57 42 l 1
 58 42 l 1
 58 43 l 1
59 42 m 1
 58 42 l 1
 58 41 l 1
 60 41 l 1
 60 43 l 1
 59 43 l 1
 59 42 l 1
63 43 m 1
 61 43 l 1
 61 41 l 1
 63 41 l 1
 63 43 l 1
63 39 m 1
 61 39 l 1
 61 37 l 1
 63 37 l 1
 63 39 l 1
49 35 m 1
 47 35 l 1
 47 33 l 1
 49 33 l 1
 49 35 l 1
49 31 m 1
 47 31 l 1
 47 29 l 1
 49 29 l 1
 49 31 l 1
49 27 m 1
 47 27 l 1
 47 25 l 1
 49 25 l 1
 49 27 l 1
55 35 m 1
 53 35 l 1
 53 33 l 1
 55 33 l 1
 55 35 l 1
57 35 m 1
 56 35 l 1
 56 33 l 1
 58 33 l 1
 58 34 l 1
 57 34 l 1
 57 35 l 1
60 35 m 1
 58 35 l 1
 58 34 l 1
 59 34 l 1
 59 33 l 1
 60 33 l 1
 60 35 l 1
63 35 m 1
 61 35 l 1
 61 33 l 1
 63 33 l 1
 63 35 l 1
63 31 m 1
 61 31 l 1
 61 29 l 1
 63 29 l 1
 63 31 l 1
55 27 m 1
 53 27 l 1
 53 25 l 1
 55 25 l 1
 55 27 l 1
58 27 m 1
 56 27 l 1
 56 25 l 1
 57 25 l 1
 57 26 l 1
 58 26 l 1
 58 27 l 1
59 26 m 1
 58 26 l 1
 58 25 l 1
 60 25 l 1
 60 27 l 1
 59 27 l 1
 59 26 l 1
63 27 m 1
 61 27 l 1
 61 25 l 1
 63 25 l 1
 63 27 l 1
EndSplineSet
EndChar

StartChar: custom_1_3_0_0_6
Encoding: 23874 23874 3906
Width: 70
Flags: H
LayerCount: 2
Fore
SplineSet
17 43 m 1
 15 43 l 1
 15 41 l 1
 17 41 l 1
 17 43 l 1
17 39 m 1
 15 39 l 1
 15 37 l 1
 17 37 l 1
 17 39 l 1
23 43 m 1
 21 43 l 1
 21 41 l 1
 23 41 l 1
 23 43 l 1
23 39 m 1
 21 39 l 1
 21 37 l 1
 23 37 l 1
 23 39 l 1
31 43 m 1
 29 43 l 1
 29 41 l 1
 31 41 l 1
 31 43 l 1
31 39 m 1
 29 39 l 1
 29 37 l 1
 31 37 l 1
 31 39 l 1
17 35 m 1
 15 35 l 1
 15 33 l 1
 17 33 l 1
 17 35 l 1
17 31 m 1
 15 31 l 1
 15 29 l 1
 17 29 l 1
 17 31 l 1
17 27 m 1
 15 27 l 1
 15 25 l 1
 17 25 l 1
 17 27 l 1
23 35 m 1
 21 35 l 1
 21 33 l 1
 23 33 l 1
 23 35 l 1
25 35 m 1
 24 35 l 1
 24 33 l 1
 26 33 l 1
 26 34 l 1
 25 34 l 1
 25 35 l 1
28 35 m 1
 26 35 l 1
 26 34 l 1
 27 34 l 1
 27 33 l 1
 28 33 l 1
 28 35 l 1
31 35 m 1
 29 35 l 1
 29 33 l 1
 31 33 l 1
 31 35 l 1
36 37 m 1
 34 37 l 1
 34 35 l 1
 36 35 l 1
 36 37 l 1
31 31 m 1
 29 31 l 1
 29 29 l 1
 31 29 l 1
 31 31 l 1
36 33 m 1
 34 33 l 1
 34 31 l 1
 36 31 l 1
 36 33 l 1
31 27 m 1
 29 27 l 1
 29 25 l 1
 31 25 l 1
 31 27 l 1
49 43 m 1
 47 43 l 1
 47 41 l 1
 49 41 l 1
 49 43 l 1
49 39 m 1
 47 39 l 1
 47 37 l 1
 49 37 l 1
 49 39 l 1
55 43 m 1
 53 43 l 1
 53 41 l 1
 55 41 l 1
 55 43 l 1
58 43 m 1
 56 43 l 1
 56 41 l 1
 57 41 l 1
 57 42 l 1
 58 42 l 1
 58 43 l 1
59 42 m 1
 58 42 l 1
 58 41 l 1
 60 41 l 1
 60 43 l 1
 59 43 l 1
 59 42 l 1
63 43 m 1
 61 43 l 1
 61 41 l 1
 63 41 l 1
 63 43 l 1
63 39 m 1
 61 39 l 1
 61 37 l 1
 63 37 l 1
 63 39 l 1
49 35 m 1
 47 35 l 1
 47 33 l 1
 49 33 l 1
 49 35 l 1
49 31 m 1
 47 31 l 1
 47 29 l 1
 49 29 l 1
 49 31 l 1
49 27 m 1
 47 27 l 1
 47 25 l 1
 49 25 l 1
 49 27 l 1
55 35 m 1
 53 35 l 1
 53 33 l 1
 55 33 l 1
 55 35 l 1
57 35 m 1
 56 35 l 1
 56 33 l 1
 58 33 l 1
 58 34 l 1
 57 34 l 1
 57 35 l 1
60 35 m 1
 58 35 l 1
 58 34 l 1
 59 34 l 1
 59 33 l 1
 60 33 l 1
 60 35 l 1
63 35 m 1
 61 35 l 1
 61 33 l 1
 63 33 l 1
 63 35 l 1
63 31 m 1
 61 31 l 1
 61 29 l 1
 63 29 l 1
 63 31 l 1
55 27 m 1
 53 27 l 1
 53 25 l 1
 55 25 l 1
 55 27 l 1
58 27 m 1
 56 27 l 1
 56 25 l 1
 57 25 l 1
 57 26 l 1
 58 26 l 1
 58 27 l 1
59 26 m 1
 58 26 l 1
 58 25 l 1
 60 25 l 1
 60 27 l 1
 59 27 l 1
 59 26 l 1
63 27 m 1
 61 27 l 1
 61 25 l 1
 63 25 l 1
 63 27 l 1
EndSplineSet
EndChar

StartChar: custom_1_3_0_0_7
Encoding: 23875 23875 3907
Width: 70
Flags: H
LayerCount: 2
Fore
SplineSet
17 43 m 1
 15 43 l 1
 15 41 l 1
 17 41 l 1
 17 43 l 1
17 39 m 1
 15 39 l 1
 15 37 l 1
 17 37 l 1
 17 39 l 1
23 43 m 1
 21 43 l 1
 21 41 l 1
 23 41 l 1
 23 43 l 1
23 39 m 1
 21 39 l 1
 21 37 l 1
 23 37 l 1
 23 39 l 1
31 43 m 1
 29 43 l 1
 29 41 l 1
 31 41 l 1
 31 43 l 1
31 39 m 1
 29 39 l 1
 29 37 l 1
 31 37 l 1
 31 39 l 1
17 35 m 1
 15 35 l 1
 15 33 l 1
 17 33 l 1
 17 35 l 1
17 31 m 1
 15 31 l 1
 15 29 l 1
 17 29 l 1
 17 31 l 1
17 27 m 1
 15 27 l 1
 15 25 l 1
 17 25 l 1
 17 27 l 1
23 35 m 1
 21 35 l 1
 21 33 l 1
 23 33 l 1
 23 35 l 1
25 35 m 1
 24 35 l 1
 24 33 l 1
 26 33 l 1
 26 34 l 1
 25 34 l 1
 25 35 l 1
28 35 m 1
 26 35 l 1
 26 34 l 1
 27 34 l 1
 27 33 l 1
 28 33 l 1
 28 35 l 1
31 35 m 1
 29 35 l 1
 29 33 l 1
 31 33 l 1
 31 35 l 1
36 37 m 1
 34 37 l 1
 34 35 l 1
 36 35 l 1
 36 37 l 1
31 31 m 1
 29 31 l 1
 29 29 l 1
 31 29 l 1
 31 31 l 1
36 33 m 1
 34 33 l 1
 34 31 l 1
 36 31 l 1
 36 33 l 1
31 27 m 1
 29 27 l 1
 29 25 l 1
 31 25 l 1
 31 27 l 1
49 43 m 1
 47 43 l 1
 47 41 l 1
 49 41 l 1
 49 43 l 1
49 39 m 1
 47 39 l 1
 47 37 l 1
 49 37 l 1
 49 39 l 1
55 43 m 1
 53 43 l 1
 53 41 l 1
 55 41 l 1
 55 43 l 1
58 43 m 1
 56 43 l 1
 56 41 l 1
 57 41 l 1
 57 42 l 1
 58 42 l 1
 58 43 l 1
59 42 m 1
 58 42 l 1
 58 41 l 1
 60 41 l 1
 60 43 l 1
 59 43 l 1
 59 42 l 1
63 43 m 1
 61 43 l 1
 61 41 l 1
 63 41 l 1
 63 43 l 1
63 39 m 1
 61 39 l 1
 61 37 l 1
 63 37 l 1
 63 39 l 1
49 35 m 1
 47 35 l 1
 47 33 l 1
 49 33 l 1
 49 35 l 1
49 31 m 1
 47 31 l 1
 47 29 l 1
 49 29 l 1
 49 31 l 1
49 27 m 1
 47 27 l 1
 47 25 l 1
 49 25 l 1
 49 27 l 1
55 35 m 1
 53 35 l 1
 53 33 l 1
 55 33 l 1
 55 35 l 1
57 35 m 1
 56 35 l 1
 56 33 l 1
 58 33 l 1
 58 34 l 1
 57 34 l 1
 57 35 l 1
60 35 m 1
 58 35 l 1
 58 34 l 1
 59 34 l 1
 59 33 l 1
 60 33 l 1
 60 35 l 1
63 35 m 1
 61 35 l 1
 61 33 l 1
 63 33 l 1
 63 35 l 1
63 31 m 1
 61 31 l 1
 61 29 l 1
 63 29 l 1
 63 31 l 1
55 27 m 1
 53 27 l 1
 53 25 l 1
 55 25 l 1
 55 27 l 1
58 27 m 1
 56 27 l 1
 56 25 l 1
 57 25 l 1
 57 26 l 1
 58 26 l 1
 58 27 l 1
59 26 m 1
 58 26 l 1
 58 25 l 1
 60 25 l 1
 60 27 l 1
 59 27 l 1
 59 26 l 1
63 27 m 1
 61 27 l 1
 61 25 l 1
 63 25 l 1
 63 27 l 1
EndSplineSet
EndChar

StartChar: custom_1_3_0_0_8
Encoding: 23876 23876 3908
Width: 70
Flags: H
LayerCount: 2
Fore
SplineSet
17 43 m 1
 15 43 l 1
 15 41 l 1
 17 41 l 1
 17 43 l 1
17 39 m 1
 15 39 l 1
 15 37 l 1
 17 37 l 1
 17 39 l 1
23 43 m 1
 21 43 l 1
 21 41 l 1
 23 41 l 1
 23 43 l 1
23 39 m 1
 21 39 l 1
 21 37 l 1
 23 37 l 1
 23 39 l 1
31 43 m 1
 29 43 l 1
 29 41 l 1
 31 41 l 1
 31 43 l 1
31 39 m 1
 29 39 l 1
 29 37 l 1
 31 37 l 1
 31 39 l 1
17 35 m 1
 15 35 l 1
 15 33 l 1
 17 33 l 1
 17 35 l 1
17 31 m 1
 15 31 l 1
 15 29 l 1
 17 29 l 1
 17 31 l 1
17 27 m 1
 15 27 l 1
 15 25 l 1
 17 25 l 1
 17 27 l 1
23 35 m 1
 21 35 l 1
 21 33 l 1
 23 33 l 1
 23 35 l 1
25 35 m 1
 24 35 l 1
 24 33 l 1
 26 33 l 1
 26 34 l 1
 25 34 l 1
 25 35 l 1
28 35 m 1
 26 35 l 1
 26 34 l 1
 27 34 l 1
 27 33 l 1
 28 33 l 1
 28 35 l 1
31 35 m 1
 29 35 l 1
 29 33 l 1
 31 33 l 1
 31 35 l 1
36 37 m 1
 34 37 l 1
 34 35 l 1
 36 35 l 1
 36 37 l 1
31 31 m 1
 29 31 l 1
 29 29 l 1
 31 29 l 1
 31 31 l 1
36 33 m 1
 34 33 l 1
 34 31 l 1
 36 31 l 1
 36 33 l 1
31 27 m 1
 29 27 l 1
 29 25 l 1
 31 25 l 1
 31 27 l 1
49 43 m 1
 47 43 l 1
 47 41 l 1
 49 41 l 1
 49 43 l 1
49 39 m 1
 47 39 l 1
 47 37 l 1
 49 37 l 1
 49 39 l 1
55 43 m 1
 53 43 l 1
 53 41 l 1
 55 41 l 1
 55 43 l 1
58 43 m 1
 56 43 l 1
 56 41 l 1
 57 41 l 1
 57 42 l 1
 58 42 l 1
 58 43 l 1
59 42 m 1
 58 42 l 1
 58 41 l 1
 60 41 l 1
 60 43 l 1
 59 43 l 1
 59 42 l 1
63 43 m 1
 61 43 l 1
 61 41 l 1
 63 41 l 1
 63 43 l 1
63 39 m 1
 61 39 l 1
 61 37 l 1
 63 37 l 1
 63 39 l 1
49 35 m 1
 47 35 l 1
 47 33 l 1
 49 33 l 1
 49 35 l 1
49 31 m 1
 47 31 l 1
 47 29 l 1
 49 29 l 1
 49 31 l 1
49 27 m 1
 47 27 l 1
 47 25 l 1
 49 25 l 1
 49 27 l 1
55 35 m 1
 53 35 l 1
 53 33 l 1
 55 33 l 1
 55 35 l 1
57 35 m 1
 56 35 l 1
 56 33 l 1
 58 33 l 1
 58 34 l 1
 57 34 l 1
 57 35 l 1
60 35 m 1
 58 35 l 1
 58 34 l 1
 59 34 l 1
 59 33 l 1
 60 33 l 1
 60 35 l 1
63 35 m 1
 61 35 l 1
 61 33 l 1
 63 33 l 1
 63 35 l 1
63 31 m 1
 61 31 l 1
 61 29 l 1
 63 29 l 1
 63 31 l 1
55 27 m 1
 53 27 l 1
 53 25 l 1
 55 25 l 1
 55 27 l 1
58 27 m 1
 56 27 l 1
 56 25 l 1
 57 25 l 1
 57 26 l 1
 58 26 l 1
 58 27 l 1
59 26 m 1
 58 26 l 1
 58 25 l 1
 60 25 l 1
 60 27 l 1
 59 27 l 1
 59 26 l 1
63 27 m 1
 61 27 l 1
 61 25 l 1
 63 25 l 1
 63 27 l 1
EndSplineSet
EndChar

StartChar: custom_1_3_0_0_9
Encoding: 23877 23877 3909
Width: 70
Flags: H
LayerCount: 2
Fore
SplineSet
17 43 m 1
 15 43 l 1
 15 41 l 1
 17 41 l 1
 17 43 l 1
17 39 m 1
 15 39 l 1
 15 37 l 1
 17 37 l 1
 17 39 l 1
23 43 m 1
 21 43 l 1
 21 41 l 1
 23 41 l 1
 23 43 l 1
23 39 m 1
 21 39 l 1
 21 37 l 1
 23 37 l 1
 23 39 l 1
31 43 m 1
 29 43 l 1
 29 41 l 1
 31 41 l 1
 31 43 l 1
31 39 m 1
 29 39 l 1
 29 37 l 1
 31 37 l 1
 31 39 l 1
17 35 m 1
 15 35 l 1
 15 33 l 1
 17 33 l 1
 17 35 l 1
17 31 m 1
 15 31 l 1
 15 29 l 1
 17 29 l 1
 17 31 l 1
17 27 m 1
 15 27 l 1
 15 25 l 1
 17 25 l 1
 17 27 l 1
23 35 m 1
 21 35 l 1
 21 33 l 1
 23 33 l 1
 23 35 l 1
25 35 m 1
 24 35 l 1
 24 33 l 1
 26 33 l 1
 26 34 l 1
 25 34 l 1
 25 35 l 1
28 35 m 1
 26 35 l 1
 26 34 l 1
 27 34 l 1
 27 33 l 1
 28 33 l 1
 28 35 l 1
31 35 m 1
 29 35 l 1
 29 33 l 1
 31 33 l 1
 31 35 l 1
36 37 m 1
 34 37 l 1
 34 35 l 1
 36 35 l 1
 36 37 l 1
31 31 m 1
 29 31 l 1
 29 29 l 1
 31 29 l 1
 31 31 l 1
36 33 m 1
 34 33 l 1
 34 31 l 1
 36 31 l 1
 36 33 l 1
31 27 m 1
 29 27 l 1
 29 25 l 1
 31 25 l 1
 31 27 l 1
49 43 m 1
 47 43 l 1
 47 41 l 1
 49 41 l 1
 49 43 l 1
49 39 m 1
 47 39 l 1
 47 37 l 1
 49 37 l 1
 49 39 l 1
55 43 m 1
 53 43 l 1
 53 41 l 1
 55 41 l 1
 55 43 l 1
58 43 m 1
 56 43 l 1
 56 41 l 1
 57 41 l 1
 57 42 l 1
 58 42 l 1
 58 43 l 1
59 42 m 1
 58 42 l 1
 58 41 l 1
 60 41 l 1
 60 43 l 1
 59 43 l 1
 59 42 l 1
63 43 m 1
 61 43 l 1
 61 41 l 1
 63 41 l 1
 63 43 l 1
63 39 m 1
 61 39 l 1
 61 37 l 1
 63 37 l 1
 63 39 l 1
49 35 m 1
 47 35 l 1
 47 33 l 1
 49 33 l 1
 49 35 l 1
49 31 m 1
 47 31 l 1
 47 29 l 1
 49 29 l 1
 49 31 l 1
49 27 m 1
 47 27 l 1
 47 25 l 1
 49 25 l 1
 49 27 l 1
55 35 m 1
 53 35 l 1
 53 33 l 1
 55 33 l 1
 55 35 l 1
57 35 m 1
 56 35 l 1
 56 33 l 1
 58 33 l 1
 58 34 l 1
 57 34 l 1
 57 35 l 1
60 35 m 1
 58 35 l 1
 58 34 l 1
 59 34 l 1
 59 33 l 1
 60 33 l 1
 60 35 l 1
63 35 m 1
 61 35 l 1
 61 33 l 1
 63 33 l 1
 63 35 l 1
63 31 m 1
 61 31 l 1
 61 29 l 1
 63 29 l 1
 63 31 l 1
55 27 m 1
 53 27 l 1
 53 25 l 1
 55 25 l 1
 55 27 l 1
58 27 m 1
 56 27 l 1
 56 25 l 1
 57 25 l 1
 57 26 l 1
 58 26 l 1
 58 27 l 1
59 26 m 1
 58 26 l 1
 58 25 l 1
 60 25 l 1
 60 27 l 1
 59 27 l 1
 59 26 l 1
63 27 m 1
 61 27 l 1
 61 25 l 1
 63 25 l 1
 63 27 l 1
EndSplineSet
EndChar

StartChar: custom_1_3_0_1_0
Encoding: 23878 23878 3910
Width: 70
Flags: H
LayerCount: 2
Fore
SplineSet
17 43 m 1
 15 43 l 1
 15 41 l 1
 17 41 l 1
 17 43 l 1
17 39 m 1
 15 39 l 1
 15 37 l 1
 17 37 l 1
 17 39 l 1
23 43 m 1
 21 43 l 1
 21 41 l 1
 23 41 l 1
 23 43 l 1
23 39 m 1
 21 39 l 1
 21 37 l 1
 23 37 l 1
 23 39 l 1
31 43 m 1
 29 43 l 1
 29 41 l 1
 31 41 l 1
 31 43 l 1
31 39 m 1
 29 39 l 1
 29 37 l 1
 31 37 l 1
 31 39 l 1
17 35 m 1
 15 35 l 1
 15 33 l 1
 17 33 l 1
 17 35 l 1
17 31 m 1
 15 31 l 1
 15 29 l 1
 17 29 l 1
 17 31 l 1
17 27 m 1
 15 27 l 1
 15 25 l 1
 17 25 l 1
 17 27 l 1
23 35 m 1
 21 35 l 1
 21 33 l 1
 23 33 l 1
 23 35 l 1
25 35 m 1
 24 35 l 1
 24 33 l 1
 26 33 l 1
 26 34 l 1
 25 34 l 1
 25 35 l 1
28 35 m 1
 26 35 l 1
 26 34 l 1
 27 34 l 1
 27 33 l 1
 28 33 l 1
 28 35 l 1
31 35 m 1
 29 35 l 1
 29 33 l 1
 31 33 l 1
 31 35 l 1
36 37 m 1
 34 37 l 1
 34 35 l 1
 36 35 l 1
 36 37 l 1
31 31 m 1
 29 31 l 1
 29 29 l 1
 31 29 l 1
 31 31 l 1
36 33 m 1
 34 33 l 1
 34 31 l 1
 36 31 l 1
 36 33 l 1
31 27 m 1
 29 27 l 1
 29 25 l 1
 31 25 l 1
 31 27 l 1
49 43 m 1
 47 43 l 1
 47 41 l 1
 49 41 l 1
 49 43 l 1
49 39 m 1
 47 39 l 1
 47 37 l 1
 49 37 l 1
 49 39 l 1
55 43 m 1
 53 43 l 1
 53 41 l 1
 55 41 l 1
 55 43 l 1
58 43 m 1
 56 43 l 1
 56 41 l 1
 57 41 l 1
 57 42 l 1
 58 42 l 1
 58 43 l 1
59 42 m 1
 58 42 l 1
 58 41 l 1
 60 41 l 1
 60 43 l 1
 59 43 l 1
 59 42 l 1
63 43 m 1
 61 43 l 1
 61 41 l 1
 63 41 l 1
 63 43 l 1
63 39 m 1
 61 39 l 1
 61 37 l 1
 63 37 l 1
 63 39 l 1
49 35 m 1
 47 35 l 1
 47 33 l 1
 49 33 l 1
 49 35 l 1
49 31 m 1
 47 31 l 1
 47 29 l 1
 49 29 l 1
 49 31 l 1
49 27 m 1
 47 27 l 1
 47 25 l 1
 49 25 l 1
 49 27 l 1
55 35 m 1
 53 35 l 1
 53 33 l 1
 55 33 l 1
 55 35 l 1
57 35 m 1
 56 35 l 1
 56 33 l 1
 58 33 l 1
 58 34 l 1
 57 34 l 1
 57 35 l 1
60 35 m 1
 58 35 l 1
 58 34 l 1
 59 34 l 1
 59 33 l 1
 60 33 l 1
 60 35 l 1
63 35 m 1
 61 35 l 1
 61 33 l 1
 63 33 l 1
 63 35 l 1
63 31 m 1
 61 31 l 1
 61 29 l 1
 63 29 l 1
 63 31 l 1
55 27 m 1
 53 27 l 1
 53 25 l 1
 55 25 l 1
 55 27 l 1
58 27 m 1
 56 27 l 1
 56 25 l 1
 57 25 l 1
 57 26 l 1
 58 26 l 1
 58 27 l 1
59 26 m 1
 58 26 l 1
 58 25 l 1
 60 25 l 1
 60 27 l 1
 59 27 l 1
 59 26 l 1
63 27 m 1
 61 27 l 1
 61 25 l 1
 63 25 l 1
 63 27 l 1
EndSplineSet
EndChar

StartChar: custom_1_3_0_1_1
Encoding: 23879 23879 3911
Width: 70
Flags: H
LayerCount: 2
Fore
SplineSet
17 43 m 1
 15 43 l 1
 15 41 l 1
 17 41 l 1
 17 43 l 1
17 39 m 1
 15 39 l 1
 15 37 l 1
 17 37 l 1
 17 39 l 1
23 43 m 1
 21 43 l 1
 21 41 l 1
 23 41 l 1
 23 43 l 1
23 39 m 1
 21 39 l 1
 21 37 l 1
 23 37 l 1
 23 39 l 1
31 43 m 1
 29 43 l 1
 29 41 l 1
 31 41 l 1
 31 43 l 1
31 39 m 1
 29 39 l 1
 29 37 l 1
 31 37 l 1
 31 39 l 1
17 35 m 1
 15 35 l 1
 15 33 l 1
 17 33 l 1
 17 35 l 1
17 31 m 1
 15 31 l 1
 15 29 l 1
 17 29 l 1
 17 31 l 1
17 27 m 1
 15 27 l 1
 15 25 l 1
 17 25 l 1
 17 27 l 1
23 35 m 1
 21 35 l 1
 21 33 l 1
 23 33 l 1
 23 35 l 1
25 35 m 1
 24 35 l 1
 24 33 l 1
 26 33 l 1
 26 34 l 1
 25 34 l 1
 25 35 l 1
28 35 m 1
 26 35 l 1
 26 34 l 1
 27 34 l 1
 27 33 l 1
 28 33 l 1
 28 35 l 1
31 35 m 1
 29 35 l 1
 29 33 l 1
 31 33 l 1
 31 35 l 1
36 37 m 1
 34 37 l 1
 34 35 l 1
 36 35 l 1
 36 37 l 1
31 31 m 1
 29 31 l 1
 29 29 l 1
 31 29 l 1
 31 31 l 1
36 33 m 1
 34 33 l 1
 34 31 l 1
 36 31 l 1
 36 33 l 1
31 27 m 1
 29 27 l 1
 29 25 l 1
 31 25 l 1
 31 27 l 1
49 43 m 1
 47 43 l 1
 47 41 l 1
 49 41 l 1
 49 43 l 1
49 39 m 1
 47 39 l 1
 47 37 l 1
 49 37 l 1
 49 39 l 1
55 43 m 1
 53 43 l 1
 53 41 l 1
 55 41 l 1
 55 43 l 1
58 43 m 1
 56 43 l 1
 56 41 l 1
 57 41 l 1
 57 42 l 1
 58 42 l 1
 58 43 l 1
59 42 m 1
 58 42 l 1
 58 41 l 1
 60 41 l 1
 60 43 l 1
 59 43 l 1
 59 42 l 1
63 43 m 1
 61 43 l 1
 61 41 l 1
 63 41 l 1
 63 43 l 1
63 39 m 1
 61 39 l 1
 61 37 l 1
 63 37 l 1
 63 39 l 1
49 35 m 1
 47 35 l 1
 47 33 l 1
 49 33 l 1
 49 35 l 1
49 31 m 1
 47 31 l 1
 47 29 l 1
 49 29 l 1
 49 31 l 1
49 27 m 1
 47 27 l 1
 47 25 l 1
 49 25 l 1
 49 27 l 1
55 35 m 1
 53 35 l 1
 53 33 l 1
 55 33 l 1
 55 35 l 1
57 35 m 1
 56 35 l 1
 56 33 l 1
 58 33 l 1
 58 34 l 1
 57 34 l 1
 57 35 l 1
60 35 m 1
 58 35 l 1
 58 34 l 1
 59 34 l 1
 59 33 l 1
 60 33 l 1
 60 35 l 1
63 35 m 1
 61 35 l 1
 61 33 l 1
 63 33 l 1
 63 35 l 1
63 31 m 1
 61 31 l 1
 61 29 l 1
 63 29 l 1
 63 31 l 1
55 27 m 1
 53 27 l 1
 53 25 l 1
 55 25 l 1
 55 27 l 1
58 27 m 1
 56 27 l 1
 56 25 l 1
 57 25 l 1
 57 26 l 1
 58 26 l 1
 58 27 l 1
59 26 m 1
 58 26 l 1
 58 25 l 1
 60 25 l 1
 60 27 l 1
 59 27 l 1
 59 26 l 1
63 27 m 1
 61 27 l 1
 61 25 l 1
 63 25 l 1
 63 27 l 1
EndSplineSet
EndChar

StartChar: custom_1_3_0_1_2
Encoding: 23880 23880 3912
Width: 70
Flags: H
LayerCount: 2
Fore
SplineSet
17 43 m 1
 15 43 l 1
 15 41 l 1
 17 41 l 1
 17 43 l 1
17 39 m 1
 15 39 l 1
 15 37 l 1
 17 37 l 1
 17 39 l 1
23 43 m 1
 21 43 l 1
 21 41 l 1
 23 41 l 1
 23 43 l 1
23 39 m 1
 21 39 l 1
 21 37 l 1
 23 37 l 1
 23 39 l 1
31 43 m 1
 29 43 l 1
 29 41 l 1
 31 41 l 1
 31 43 l 1
31 39 m 1
 29 39 l 1
 29 37 l 1
 31 37 l 1
 31 39 l 1
17 35 m 1
 15 35 l 1
 15 33 l 1
 17 33 l 1
 17 35 l 1
17 31 m 1
 15 31 l 1
 15 29 l 1
 17 29 l 1
 17 31 l 1
17 27 m 1
 15 27 l 1
 15 25 l 1
 17 25 l 1
 17 27 l 1
23 35 m 1
 21 35 l 1
 21 33 l 1
 23 33 l 1
 23 35 l 1
25 35 m 1
 24 35 l 1
 24 33 l 1
 26 33 l 1
 26 34 l 1
 25 34 l 1
 25 35 l 1
28 35 m 1
 26 35 l 1
 26 34 l 1
 27 34 l 1
 27 33 l 1
 28 33 l 1
 28 35 l 1
31 35 m 1
 29 35 l 1
 29 33 l 1
 31 33 l 1
 31 35 l 1
36 37 m 1
 34 37 l 1
 34 35 l 1
 36 35 l 1
 36 37 l 1
31 31 m 1
 29 31 l 1
 29 29 l 1
 31 29 l 1
 31 31 l 1
36 33 m 1
 34 33 l 1
 34 31 l 1
 36 31 l 1
 36 33 l 1
31 27 m 1
 29 27 l 1
 29 25 l 1
 31 25 l 1
 31 27 l 1
49 43 m 1
 47 43 l 1
 47 41 l 1
 49 41 l 1
 49 43 l 1
49 39 m 1
 47 39 l 1
 47 37 l 1
 49 37 l 1
 49 39 l 1
55 43 m 1
 53 43 l 1
 53 41 l 1
 55 41 l 1
 55 43 l 1
58 43 m 1
 56 43 l 1
 56 41 l 1
 57 41 l 1
 57 42 l 1
 58 42 l 1
 58 43 l 1
59 42 m 1
 58 42 l 1
 58 41 l 1
 60 41 l 1
 60 43 l 1
 59 43 l 1
 59 42 l 1
63 43 m 1
 61 43 l 1
 61 41 l 1
 63 41 l 1
 63 43 l 1
63 39 m 1
 61 39 l 1
 61 37 l 1
 63 37 l 1
 63 39 l 1
49 35 m 1
 47 35 l 1
 47 33 l 1
 49 33 l 1
 49 35 l 1
49 31 m 1
 47 31 l 1
 47 29 l 1
 49 29 l 1
 49 31 l 1
49 27 m 1
 47 27 l 1
 47 25 l 1
 49 25 l 1
 49 27 l 1
55 35 m 1
 53 35 l 1
 53 33 l 1
 55 33 l 1
 55 35 l 1
57 35 m 1
 56 35 l 1
 56 33 l 1
 58 33 l 1
 58 34 l 1
 57 34 l 1
 57 35 l 1
60 35 m 1
 58 35 l 1
 58 34 l 1
 59 34 l 1
 59 33 l 1
 60 33 l 1
 60 35 l 1
63 35 m 1
 61 35 l 1
 61 33 l 1
 63 33 l 1
 63 35 l 1
63 31 m 1
 61 31 l 1
 61 29 l 1
 63 29 l 1
 63 31 l 1
55 27 m 1
 53 27 l 1
 53 25 l 1
 55 25 l 1
 55 27 l 1
58 27 m 1
 56 27 l 1
 56 25 l 1
 57 25 l 1
 57 26 l 1
 58 26 l 1
 58 27 l 1
59 26 m 1
 58 26 l 1
 58 25 l 1
 60 25 l 1
 60 27 l 1
 59 27 l 1
 59 26 l 1
63 27 m 1
 61 27 l 1
 61 25 l 1
 63 25 l 1
 63 27 l 1
EndSplineSet
EndChar

StartChar: custom_1_3_0_1_3
Encoding: 23881 23881 3913
Width: 70
Flags: H
LayerCount: 2
Fore
SplineSet
17 43 m 1
 15 43 l 1
 15 41 l 1
 17 41 l 1
 17 43 l 1
17 39 m 1
 15 39 l 1
 15 37 l 1
 17 37 l 1
 17 39 l 1
23 43 m 1
 21 43 l 1
 21 41 l 1
 23 41 l 1
 23 43 l 1
23 39 m 1
 21 39 l 1
 21 37 l 1
 23 37 l 1
 23 39 l 1
31 43 m 1
 29 43 l 1
 29 41 l 1
 31 41 l 1
 31 43 l 1
31 39 m 1
 29 39 l 1
 29 37 l 1
 31 37 l 1
 31 39 l 1
17 35 m 1
 15 35 l 1
 15 33 l 1
 17 33 l 1
 17 35 l 1
17 31 m 1
 15 31 l 1
 15 29 l 1
 17 29 l 1
 17 31 l 1
17 27 m 1
 15 27 l 1
 15 25 l 1
 17 25 l 1
 17 27 l 1
23 35 m 1
 21 35 l 1
 21 33 l 1
 23 33 l 1
 23 35 l 1
25 35 m 1
 24 35 l 1
 24 33 l 1
 26 33 l 1
 26 34 l 1
 25 34 l 1
 25 35 l 1
28 35 m 1
 26 35 l 1
 26 34 l 1
 27 34 l 1
 27 33 l 1
 28 33 l 1
 28 35 l 1
31 35 m 1
 29 35 l 1
 29 33 l 1
 31 33 l 1
 31 35 l 1
36 37 m 1
 34 37 l 1
 34 35 l 1
 36 35 l 1
 36 37 l 1
31 31 m 1
 29 31 l 1
 29 29 l 1
 31 29 l 1
 31 31 l 1
36 33 m 1
 34 33 l 1
 34 31 l 1
 36 31 l 1
 36 33 l 1
31 27 m 1
 29 27 l 1
 29 25 l 1
 31 25 l 1
 31 27 l 1
49 43 m 1
 47 43 l 1
 47 41 l 1
 49 41 l 1
 49 43 l 1
49 39 m 1
 47 39 l 1
 47 37 l 1
 49 37 l 1
 49 39 l 1
55 43 m 1
 53 43 l 1
 53 41 l 1
 55 41 l 1
 55 43 l 1
58 43 m 1
 56 43 l 1
 56 41 l 1
 57 41 l 1
 57 42 l 1
 58 42 l 1
 58 43 l 1
59 42 m 1
 58 42 l 1
 58 41 l 1
 60 41 l 1
 60 43 l 1
 59 43 l 1
 59 42 l 1
63 43 m 1
 61 43 l 1
 61 41 l 1
 63 41 l 1
 63 43 l 1
63 39 m 1
 61 39 l 1
 61 37 l 1
 63 37 l 1
 63 39 l 1
49 35 m 1
 47 35 l 1
 47 33 l 1
 49 33 l 1
 49 35 l 1
49 31 m 1
 47 31 l 1
 47 29 l 1
 49 29 l 1
 49 31 l 1
49 27 m 1
 47 27 l 1
 47 25 l 1
 49 25 l 1
 49 27 l 1
55 35 m 1
 53 35 l 1
 53 33 l 1
 55 33 l 1
 55 35 l 1
57 35 m 1
 56 35 l 1
 56 33 l 1
 58 33 l 1
 58 34 l 1
 57 34 l 1
 57 35 l 1
60 35 m 1
 58 35 l 1
 58 34 l 1
 59 34 l 1
 59 33 l 1
 60 33 l 1
 60 35 l 1
63 35 m 1
 61 35 l 1
 61 33 l 1
 63 33 l 1
 63 35 l 1
63 31 m 1
 61 31 l 1
 61 29 l 1
 63 29 l 1
 63 31 l 1
55 27 m 1
 53 27 l 1
 53 25 l 1
 55 25 l 1
 55 27 l 1
58 27 m 1
 56 27 l 1
 56 25 l 1
 57 25 l 1
 57 26 l 1
 58 26 l 1
 58 27 l 1
59 26 m 1
 58 26 l 1
 58 25 l 1
 60 25 l 1
 60 27 l 1
 59 27 l 1
 59 26 l 1
63 27 m 1
 61 27 l 1
 61 25 l 1
 63 25 l 1
 63 27 l 1
EndSplineSet
EndChar

StartChar: custom_1_3_0_1_4
Encoding: 23882 23882 3914
Width: 70
Flags: H
LayerCount: 2
Fore
SplineSet
17 43 m 1
 15 43 l 1
 15 41 l 1
 17 41 l 1
 17 43 l 1
17 39 m 1
 15 39 l 1
 15 37 l 1
 17 37 l 1
 17 39 l 1
23 43 m 1
 21 43 l 1
 21 41 l 1
 23 41 l 1
 23 43 l 1
23 39 m 1
 21 39 l 1
 21 37 l 1
 23 37 l 1
 23 39 l 1
31 43 m 1
 29 43 l 1
 29 41 l 1
 31 41 l 1
 31 43 l 1
31 39 m 1
 29 39 l 1
 29 37 l 1
 31 37 l 1
 31 39 l 1
17 35 m 1
 15 35 l 1
 15 33 l 1
 17 33 l 1
 17 35 l 1
17 31 m 1
 15 31 l 1
 15 29 l 1
 17 29 l 1
 17 31 l 1
17 27 m 1
 15 27 l 1
 15 25 l 1
 17 25 l 1
 17 27 l 1
23 35 m 1
 21 35 l 1
 21 33 l 1
 23 33 l 1
 23 35 l 1
25 35 m 1
 24 35 l 1
 24 33 l 1
 26 33 l 1
 26 34 l 1
 25 34 l 1
 25 35 l 1
28 35 m 1
 26 35 l 1
 26 34 l 1
 27 34 l 1
 27 33 l 1
 28 33 l 1
 28 35 l 1
31 35 m 1
 29 35 l 1
 29 33 l 1
 31 33 l 1
 31 35 l 1
36 37 m 1
 34 37 l 1
 34 35 l 1
 36 35 l 1
 36 37 l 1
31 31 m 1
 29 31 l 1
 29 29 l 1
 31 29 l 1
 31 31 l 1
36 33 m 1
 34 33 l 1
 34 31 l 1
 36 31 l 1
 36 33 l 1
31 27 m 1
 29 27 l 1
 29 25 l 1
 31 25 l 1
 31 27 l 1
49 43 m 1
 47 43 l 1
 47 41 l 1
 49 41 l 1
 49 43 l 1
49 39 m 1
 47 39 l 1
 47 37 l 1
 49 37 l 1
 49 39 l 1
55 43 m 1
 53 43 l 1
 53 41 l 1
 55 41 l 1
 55 43 l 1
58 43 m 1
 56 43 l 1
 56 41 l 1
 57 41 l 1
 57 42 l 1
 58 42 l 1
 58 43 l 1
59 42 m 1
 58 42 l 1
 58 41 l 1
 60 41 l 1
 60 43 l 1
 59 43 l 1
 59 42 l 1
63 43 m 1
 61 43 l 1
 61 41 l 1
 63 41 l 1
 63 43 l 1
63 39 m 1
 61 39 l 1
 61 37 l 1
 63 37 l 1
 63 39 l 1
49 35 m 1
 47 35 l 1
 47 33 l 1
 49 33 l 1
 49 35 l 1
49 31 m 1
 47 31 l 1
 47 29 l 1
 49 29 l 1
 49 31 l 1
49 27 m 1
 47 27 l 1
 47 25 l 1
 49 25 l 1
 49 27 l 1
55 35 m 1
 53 35 l 1
 53 33 l 1
 55 33 l 1
 55 35 l 1
57 35 m 1
 56 35 l 1
 56 33 l 1
 58 33 l 1
 58 34 l 1
 57 34 l 1
 57 35 l 1
60 35 m 1
 58 35 l 1
 58 34 l 1
 59 34 l 1
 59 33 l 1
 60 33 l 1
 60 35 l 1
63 35 m 1
 61 35 l 1
 61 33 l 1
 63 33 l 1
 63 35 l 1
63 31 m 1
 61 31 l 1
 61 29 l 1
 63 29 l 1
 63 31 l 1
55 27 m 1
 53 27 l 1
 53 25 l 1
 55 25 l 1
 55 27 l 1
58 27 m 1
 56 27 l 1
 56 25 l 1
 57 25 l 1
 57 26 l 1
 58 26 l 1
 58 27 l 1
59 26 m 1
 58 26 l 1
 58 25 l 1
 60 25 l 1
 60 27 l 1
 59 27 l 1
 59 26 l 1
63 27 m 1
 61 27 l 1
 61 25 l 1
 63 25 l 1
 63 27 l 1
EndSplineSet
EndChar

StartChar: custom_1_3_0_1_5
Encoding: 23883 23883 3915
Width: 70
Flags: H
LayerCount: 2
Fore
SplineSet
17 43 m 1
 15 43 l 1
 15 41 l 1
 17 41 l 1
 17 43 l 1
17 39 m 1
 15 39 l 1
 15 37 l 1
 17 37 l 1
 17 39 l 1
23 43 m 1
 21 43 l 1
 21 41 l 1
 23 41 l 1
 23 43 l 1
23 39 m 1
 21 39 l 1
 21 37 l 1
 23 37 l 1
 23 39 l 1
31 43 m 1
 29 43 l 1
 29 41 l 1
 31 41 l 1
 31 43 l 1
31 39 m 1
 29 39 l 1
 29 37 l 1
 31 37 l 1
 31 39 l 1
17 35 m 1
 15 35 l 1
 15 33 l 1
 17 33 l 1
 17 35 l 1
17 31 m 1
 15 31 l 1
 15 29 l 1
 17 29 l 1
 17 31 l 1
17 27 m 1
 15 27 l 1
 15 25 l 1
 17 25 l 1
 17 27 l 1
23 35 m 1
 21 35 l 1
 21 33 l 1
 23 33 l 1
 23 35 l 1
25 35 m 1
 24 35 l 1
 24 33 l 1
 26 33 l 1
 26 34 l 1
 25 34 l 1
 25 35 l 1
28 35 m 1
 26 35 l 1
 26 34 l 1
 27 34 l 1
 27 33 l 1
 28 33 l 1
 28 35 l 1
31 35 m 1
 29 35 l 1
 29 33 l 1
 31 33 l 1
 31 35 l 1
36 37 m 1
 34 37 l 1
 34 35 l 1
 36 35 l 1
 36 37 l 1
31 31 m 1
 29 31 l 1
 29 29 l 1
 31 29 l 1
 31 31 l 1
36 33 m 1
 34 33 l 1
 34 31 l 1
 36 31 l 1
 36 33 l 1
31 27 m 1
 29 27 l 1
 29 25 l 1
 31 25 l 1
 31 27 l 1
49 43 m 1
 47 43 l 1
 47 41 l 1
 49 41 l 1
 49 43 l 1
49 39 m 1
 47 39 l 1
 47 37 l 1
 49 37 l 1
 49 39 l 1
55 43 m 1
 53 43 l 1
 53 41 l 1
 55 41 l 1
 55 43 l 1
58 43 m 1
 56 43 l 1
 56 41 l 1
 57 41 l 1
 57 42 l 1
 58 42 l 1
 58 43 l 1
59 42 m 1
 58 42 l 1
 58 41 l 1
 60 41 l 1
 60 43 l 1
 59 43 l 1
 59 42 l 1
63 43 m 1
 61 43 l 1
 61 41 l 1
 63 41 l 1
 63 43 l 1
63 39 m 1
 61 39 l 1
 61 37 l 1
 63 37 l 1
 63 39 l 1
49 35 m 1
 47 35 l 1
 47 33 l 1
 49 33 l 1
 49 35 l 1
49 31 m 1
 47 31 l 1
 47 29 l 1
 49 29 l 1
 49 31 l 1
49 27 m 1
 47 27 l 1
 47 25 l 1
 49 25 l 1
 49 27 l 1
55 35 m 1
 53 35 l 1
 53 33 l 1
 55 33 l 1
 55 35 l 1
57 35 m 1
 56 35 l 1
 56 33 l 1
 58 33 l 1
 58 34 l 1
 57 34 l 1
 57 35 l 1
60 35 m 1
 58 35 l 1
 58 34 l 1
 59 34 l 1
 59 33 l 1
 60 33 l 1
 60 35 l 1
63 35 m 1
 61 35 l 1
 61 33 l 1
 63 33 l 1
 63 35 l 1
63 31 m 1
 61 31 l 1
 61 29 l 1
 63 29 l 1
 63 31 l 1
55 27 m 1
 53 27 l 1
 53 25 l 1
 55 25 l 1
 55 27 l 1
58 27 m 1
 56 27 l 1
 56 25 l 1
 57 25 l 1
 57 26 l 1
 58 26 l 1
 58 27 l 1
59 26 m 1
 58 26 l 1
 58 25 l 1
 60 25 l 1
 60 27 l 1
 59 27 l 1
 59 26 l 1
63 27 m 1
 61 27 l 1
 61 25 l 1
 63 25 l 1
 63 27 l 1
EndSplineSet
EndChar

StartChar: custom_1_3_0_1_6
Encoding: 23884 23884 3916
Width: 70
Flags: H
LayerCount: 2
Fore
SplineSet
17 43 m 1
 15 43 l 1
 15 41 l 1
 17 41 l 1
 17 43 l 1
17 39 m 1
 15 39 l 1
 15 37 l 1
 17 37 l 1
 17 39 l 1
23 43 m 1
 21 43 l 1
 21 41 l 1
 23 41 l 1
 23 43 l 1
23 39 m 1
 21 39 l 1
 21 37 l 1
 23 37 l 1
 23 39 l 1
31 43 m 1
 29 43 l 1
 29 41 l 1
 31 41 l 1
 31 43 l 1
31 39 m 1
 29 39 l 1
 29 37 l 1
 31 37 l 1
 31 39 l 1
17 35 m 1
 15 35 l 1
 15 33 l 1
 17 33 l 1
 17 35 l 1
17 31 m 1
 15 31 l 1
 15 29 l 1
 17 29 l 1
 17 31 l 1
17 27 m 1
 15 27 l 1
 15 25 l 1
 17 25 l 1
 17 27 l 1
23 35 m 1
 21 35 l 1
 21 33 l 1
 23 33 l 1
 23 35 l 1
25 35 m 1
 24 35 l 1
 24 33 l 1
 26 33 l 1
 26 34 l 1
 25 34 l 1
 25 35 l 1
28 35 m 1
 26 35 l 1
 26 34 l 1
 27 34 l 1
 27 33 l 1
 28 33 l 1
 28 35 l 1
31 35 m 1
 29 35 l 1
 29 33 l 1
 31 33 l 1
 31 35 l 1
36 37 m 1
 34 37 l 1
 34 35 l 1
 36 35 l 1
 36 37 l 1
31 31 m 1
 29 31 l 1
 29 29 l 1
 31 29 l 1
 31 31 l 1
36 33 m 1
 34 33 l 1
 34 31 l 1
 36 31 l 1
 36 33 l 1
31 27 m 1
 29 27 l 1
 29 25 l 1
 31 25 l 1
 31 27 l 1
49 43 m 1
 47 43 l 1
 47 41 l 1
 49 41 l 1
 49 43 l 1
49 39 m 1
 47 39 l 1
 47 37 l 1
 49 37 l 1
 49 39 l 1
55 43 m 1
 53 43 l 1
 53 41 l 1
 55 41 l 1
 55 43 l 1
58 43 m 1
 56 43 l 1
 56 41 l 1
 57 41 l 1
 57 42 l 1
 58 42 l 1
 58 43 l 1
59 42 m 1
 58 42 l 1
 58 41 l 1
 60 41 l 1
 60 43 l 1
 59 43 l 1
 59 42 l 1
63 43 m 1
 61 43 l 1
 61 41 l 1
 63 41 l 1
 63 43 l 1
63 39 m 1
 61 39 l 1
 61 37 l 1
 63 37 l 1
 63 39 l 1
49 35 m 1
 47 35 l 1
 47 33 l 1
 49 33 l 1
 49 35 l 1
49 31 m 1
 47 31 l 1
 47 29 l 1
 49 29 l 1
 49 31 l 1
49 27 m 1
 47 27 l 1
 47 25 l 1
 49 25 l 1
 49 27 l 1
55 35 m 1
 53 35 l 1
 53 33 l 1
 55 33 l 1
 55 35 l 1
57 35 m 1
 56 35 l 1
 56 33 l 1
 58 33 l 1
 58 34 l 1
 57 34 l 1
 57 35 l 1
60 35 m 1
 58 35 l 1
 58 34 l 1
 59 34 l 1
 59 33 l 1
 60 33 l 1
 60 35 l 1
63 35 m 1
 61 35 l 1
 61 33 l 1
 63 33 l 1
 63 35 l 1
63 31 m 1
 61 31 l 1
 61 29 l 1
 63 29 l 1
 63 31 l 1
55 27 m 1
 53 27 l 1
 53 25 l 1
 55 25 l 1
 55 27 l 1
58 27 m 1
 56 27 l 1
 56 25 l 1
 57 25 l 1
 57 26 l 1
 58 26 l 1
 58 27 l 1
59 26 m 1
 58 26 l 1
 58 25 l 1
 60 25 l 1
 60 27 l 1
 59 27 l 1
 59 26 l 1
63 27 m 1
 61 27 l 1
 61 25 l 1
 63 25 l 1
 63 27 l 1
EndSplineSet
EndChar

StartChar: custom_1_3_0_1_7
Encoding: 23885 23885 3917
Width: 70
Flags: H
LayerCount: 2
Fore
SplineSet
17 43 m 1
 15 43 l 1
 15 41 l 1
 17 41 l 1
 17 43 l 1
17 39 m 1
 15 39 l 1
 15 37 l 1
 17 37 l 1
 17 39 l 1
23 43 m 1
 21 43 l 1
 21 41 l 1
 23 41 l 1
 23 43 l 1
23 39 m 1
 21 39 l 1
 21 37 l 1
 23 37 l 1
 23 39 l 1
31 43 m 1
 29 43 l 1
 29 41 l 1
 31 41 l 1
 31 43 l 1
31 39 m 1
 29 39 l 1
 29 37 l 1
 31 37 l 1
 31 39 l 1
17 35 m 1
 15 35 l 1
 15 33 l 1
 17 33 l 1
 17 35 l 1
17 31 m 1
 15 31 l 1
 15 29 l 1
 17 29 l 1
 17 31 l 1
17 27 m 1
 15 27 l 1
 15 25 l 1
 17 25 l 1
 17 27 l 1
23 35 m 1
 21 35 l 1
 21 33 l 1
 23 33 l 1
 23 35 l 1
25 35 m 1
 24 35 l 1
 24 33 l 1
 26 33 l 1
 26 34 l 1
 25 34 l 1
 25 35 l 1
28 35 m 1
 26 35 l 1
 26 34 l 1
 27 34 l 1
 27 33 l 1
 28 33 l 1
 28 35 l 1
31 35 m 1
 29 35 l 1
 29 33 l 1
 31 33 l 1
 31 35 l 1
36 37 m 1
 34 37 l 1
 34 35 l 1
 36 35 l 1
 36 37 l 1
31 31 m 1
 29 31 l 1
 29 29 l 1
 31 29 l 1
 31 31 l 1
36 33 m 1
 34 33 l 1
 34 31 l 1
 36 31 l 1
 36 33 l 1
31 27 m 1
 29 27 l 1
 29 25 l 1
 31 25 l 1
 31 27 l 1
49 43 m 1
 47 43 l 1
 47 41 l 1
 49 41 l 1
 49 43 l 1
49 39 m 1
 47 39 l 1
 47 37 l 1
 49 37 l 1
 49 39 l 1
55 43 m 1
 53 43 l 1
 53 41 l 1
 55 41 l 1
 55 43 l 1
58 43 m 1
 56 43 l 1
 56 41 l 1
 57 41 l 1
 57 42 l 1
 58 42 l 1
 58 43 l 1
59 42 m 1
 58 42 l 1
 58 41 l 1
 60 41 l 1
 60 43 l 1
 59 43 l 1
 59 42 l 1
63 43 m 1
 61 43 l 1
 61 41 l 1
 63 41 l 1
 63 43 l 1
63 39 m 1
 61 39 l 1
 61 37 l 1
 63 37 l 1
 63 39 l 1
49 35 m 1
 47 35 l 1
 47 33 l 1
 49 33 l 1
 49 35 l 1
49 31 m 1
 47 31 l 1
 47 29 l 1
 49 29 l 1
 49 31 l 1
49 27 m 1
 47 27 l 1
 47 25 l 1
 49 25 l 1
 49 27 l 1
55 35 m 1
 53 35 l 1
 53 33 l 1
 55 33 l 1
 55 35 l 1
57 35 m 1
 56 35 l 1
 56 33 l 1
 58 33 l 1
 58 34 l 1
 57 34 l 1
 57 35 l 1
60 35 m 1
 58 35 l 1
 58 34 l 1
 59 34 l 1
 59 33 l 1
 60 33 l 1
 60 35 l 1
63 35 m 1
 61 35 l 1
 61 33 l 1
 63 33 l 1
 63 35 l 1
63 31 m 1
 61 31 l 1
 61 29 l 1
 63 29 l 1
 63 31 l 1
55 27 m 1
 53 27 l 1
 53 25 l 1
 55 25 l 1
 55 27 l 1
58 27 m 1
 56 27 l 1
 56 25 l 1
 57 25 l 1
 57 26 l 1
 58 26 l 1
 58 27 l 1
59 26 m 1
 58 26 l 1
 58 25 l 1
 60 25 l 1
 60 27 l 1
 59 27 l 1
 59 26 l 1
63 27 m 1
 61 27 l 1
 61 25 l 1
 63 25 l 1
 63 27 l 1
EndSplineSet
EndChar

StartChar: custom_1_3_0_1_8
Encoding: 23886 23886 3918
Width: 70
Flags: H
LayerCount: 2
Fore
SplineSet
17 43 m 1
 15 43 l 1
 15 41 l 1
 17 41 l 1
 17 43 l 1
17 39 m 1
 15 39 l 1
 15 37 l 1
 17 37 l 1
 17 39 l 1
23 43 m 1
 21 43 l 1
 21 41 l 1
 23 41 l 1
 23 43 l 1
23 39 m 1
 21 39 l 1
 21 37 l 1
 23 37 l 1
 23 39 l 1
31 43 m 1
 29 43 l 1
 29 41 l 1
 31 41 l 1
 31 43 l 1
31 39 m 1
 29 39 l 1
 29 37 l 1
 31 37 l 1
 31 39 l 1
17 35 m 1
 15 35 l 1
 15 33 l 1
 17 33 l 1
 17 35 l 1
17 31 m 1
 15 31 l 1
 15 29 l 1
 17 29 l 1
 17 31 l 1
17 27 m 1
 15 27 l 1
 15 25 l 1
 17 25 l 1
 17 27 l 1
23 35 m 1
 21 35 l 1
 21 33 l 1
 23 33 l 1
 23 35 l 1
25 35 m 1
 24 35 l 1
 24 33 l 1
 26 33 l 1
 26 34 l 1
 25 34 l 1
 25 35 l 1
28 35 m 1
 26 35 l 1
 26 34 l 1
 27 34 l 1
 27 33 l 1
 28 33 l 1
 28 35 l 1
31 35 m 1
 29 35 l 1
 29 33 l 1
 31 33 l 1
 31 35 l 1
36 37 m 1
 34 37 l 1
 34 35 l 1
 36 35 l 1
 36 37 l 1
31 31 m 1
 29 31 l 1
 29 29 l 1
 31 29 l 1
 31 31 l 1
36 33 m 1
 34 33 l 1
 34 31 l 1
 36 31 l 1
 36 33 l 1
31 27 m 1
 29 27 l 1
 29 25 l 1
 31 25 l 1
 31 27 l 1
49 43 m 1
 47 43 l 1
 47 41 l 1
 49 41 l 1
 49 43 l 1
49 39 m 1
 47 39 l 1
 47 37 l 1
 49 37 l 1
 49 39 l 1
55 43 m 1
 53 43 l 1
 53 41 l 1
 55 41 l 1
 55 43 l 1
58 43 m 1
 56 43 l 1
 56 41 l 1
 57 41 l 1
 57 42 l 1
 58 42 l 1
 58 43 l 1
59 42 m 1
 58 42 l 1
 58 41 l 1
 60 41 l 1
 60 43 l 1
 59 43 l 1
 59 42 l 1
63 43 m 1
 61 43 l 1
 61 41 l 1
 63 41 l 1
 63 43 l 1
63 39 m 1
 61 39 l 1
 61 37 l 1
 63 37 l 1
 63 39 l 1
49 35 m 1
 47 35 l 1
 47 33 l 1
 49 33 l 1
 49 35 l 1
49 31 m 1
 47 31 l 1
 47 29 l 1
 49 29 l 1
 49 31 l 1
49 27 m 1
 47 27 l 1
 47 25 l 1
 49 25 l 1
 49 27 l 1
55 35 m 1
 53 35 l 1
 53 33 l 1
 55 33 l 1
 55 35 l 1
57 35 m 1
 56 35 l 1
 56 33 l 1
 58 33 l 1
 58 34 l 1
 57 34 l 1
 57 35 l 1
60 35 m 1
 58 35 l 1
 58 34 l 1
 59 34 l 1
 59 33 l 1
 60 33 l 1
 60 35 l 1
63 35 m 1
 61 35 l 1
 61 33 l 1
 63 33 l 1
 63 35 l 1
63 31 m 1
 61 31 l 1
 61 29 l 1
 63 29 l 1
 63 31 l 1
55 27 m 1
 53 27 l 1
 53 25 l 1
 55 25 l 1
 55 27 l 1
58 27 m 1
 56 27 l 1
 56 25 l 1
 57 25 l 1
 57 26 l 1
 58 26 l 1
 58 27 l 1
59 26 m 1
 58 26 l 1
 58 25 l 1
 60 25 l 1
 60 27 l 1
 59 27 l 1
 59 26 l 1
63 27 m 1
 61 27 l 1
 61 25 l 1
 63 25 l 1
 63 27 l 1
EndSplineSet
EndChar

StartChar: custom_1_3_0_1_9
Encoding: 23887 23887 3919
Width: 70
Flags: H
LayerCount: 2
Fore
SplineSet
17 43 m 1
 15 43 l 1
 15 41 l 1
 17 41 l 1
 17 43 l 1
17 39 m 1
 15 39 l 1
 15 37 l 1
 17 37 l 1
 17 39 l 1
23 43 m 1
 21 43 l 1
 21 41 l 1
 23 41 l 1
 23 43 l 1
23 39 m 1
 21 39 l 1
 21 37 l 1
 23 37 l 1
 23 39 l 1
31 43 m 1
 29 43 l 1
 29 41 l 1
 31 41 l 1
 31 43 l 1
31 39 m 1
 29 39 l 1
 29 37 l 1
 31 37 l 1
 31 39 l 1
17 35 m 1
 15 35 l 1
 15 33 l 1
 17 33 l 1
 17 35 l 1
17 31 m 1
 15 31 l 1
 15 29 l 1
 17 29 l 1
 17 31 l 1
17 27 m 1
 15 27 l 1
 15 25 l 1
 17 25 l 1
 17 27 l 1
23 35 m 1
 21 35 l 1
 21 33 l 1
 23 33 l 1
 23 35 l 1
25 35 m 1
 24 35 l 1
 24 33 l 1
 26 33 l 1
 26 34 l 1
 25 34 l 1
 25 35 l 1
28 35 m 1
 26 35 l 1
 26 34 l 1
 27 34 l 1
 27 33 l 1
 28 33 l 1
 28 35 l 1
31 35 m 1
 29 35 l 1
 29 33 l 1
 31 33 l 1
 31 35 l 1
36 37 m 1
 34 37 l 1
 34 35 l 1
 36 35 l 1
 36 37 l 1
31 31 m 1
 29 31 l 1
 29 29 l 1
 31 29 l 1
 31 31 l 1
36 33 m 1
 34 33 l 1
 34 31 l 1
 36 31 l 1
 36 33 l 1
31 27 m 1
 29 27 l 1
 29 25 l 1
 31 25 l 1
 31 27 l 1
49 43 m 1
 47 43 l 1
 47 41 l 1
 49 41 l 1
 49 43 l 1
49 39 m 1
 47 39 l 1
 47 37 l 1
 49 37 l 1
 49 39 l 1
55 43 m 1
 53 43 l 1
 53 41 l 1
 55 41 l 1
 55 43 l 1
58 43 m 1
 56 43 l 1
 56 41 l 1
 57 41 l 1
 57 42 l 1
 58 42 l 1
 58 43 l 1
59 42 m 1
 58 42 l 1
 58 41 l 1
 60 41 l 1
 60 43 l 1
 59 43 l 1
 59 42 l 1
63 43 m 1
 61 43 l 1
 61 41 l 1
 63 41 l 1
 63 43 l 1
63 39 m 1
 61 39 l 1
 61 37 l 1
 63 37 l 1
 63 39 l 1
49 35 m 1
 47 35 l 1
 47 33 l 1
 49 33 l 1
 49 35 l 1
49 31 m 1
 47 31 l 1
 47 29 l 1
 49 29 l 1
 49 31 l 1
49 27 m 1
 47 27 l 1
 47 25 l 1
 49 25 l 1
 49 27 l 1
55 35 m 1
 53 35 l 1
 53 33 l 1
 55 33 l 1
 55 35 l 1
57 35 m 1
 56 35 l 1
 56 33 l 1
 58 33 l 1
 58 34 l 1
 57 34 l 1
 57 35 l 1
60 35 m 1
 58 35 l 1
 58 34 l 1
 59 34 l 1
 59 33 l 1
 60 33 l 1
 60 35 l 1
63 35 m 1
 61 35 l 1
 61 33 l 1
 63 33 l 1
 63 35 l 1
63 31 m 1
 61 31 l 1
 61 29 l 1
 63 29 l 1
 63 31 l 1
55 27 m 1
 53 27 l 1
 53 25 l 1
 55 25 l 1
 55 27 l 1
58 27 m 1
 56 27 l 1
 56 25 l 1
 57 25 l 1
 57 26 l 1
 58 26 l 1
 58 27 l 1
59 26 m 1
 58 26 l 1
 58 25 l 1
 60 25 l 1
 60 27 l 1
 59 27 l 1
 59 26 l 1
63 27 m 1
 61 27 l 1
 61 25 l 1
 63 25 l 1
 63 27 l 1
EndSplineSet
EndChar

StartChar: custom_1_3_0_2_0
Encoding: 23888 23888 3920
Width: 70
Flags: H
LayerCount: 2
Fore
SplineSet
17 43 m 1
 15 43 l 1
 15 41 l 1
 17 41 l 1
 17 43 l 1
17 39 m 1
 15 39 l 1
 15 37 l 1
 17 37 l 1
 17 39 l 1
23 43 m 1
 21 43 l 1
 21 41 l 1
 23 41 l 1
 23 43 l 1
23 39 m 1
 21 39 l 1
 21 37 l 1
 23 37 l 1
 23 39 l 1
31 43 m 1
 29 43 l 1
 29 41 l 1
 31 41 l 1
 31 43 l 1
31 39 m 1
 29 39 l 1
 29 37 l 1
 31 37 l 1
 31 39 l 1
17 35 m 1
 15 35 l 1
 15 33 l 1
 17 33 l 1
 17 35 l 1
17 31 m 1
 15 31 l 1
 15 29 l 1
 17 29 l 1
 17 31 l 1
17 27 m 1
 15 27 l 1
 15 25 l 1
 17 25 l 1
 17 27 l 1
23 35 m 1
 21 35 l 1
 21 33 l 1
 23 33 l 1
 23 35 l 1
25 35 m 1
 24 35 l 1
 24 33 l 1
 26 33 l 1
 26 34 l 1
 25 34 l 1
 25 35 l 1
28 35 m 1
 26 35 l 1
 26 34 l 1
 27 34 l 1
 27 33 l 1
 28 33 l 1
 28 35 l 1
31 35 m 1
 29 35 l 1
 29 33 l 1
 31 33 l 1
 31 35 l 1
36 37 m 1
 34 37 l 1
 34 35 l 1
 36 35 l 1
 36 37 l 1
31 31 m 1
 29 31 l 1
 29 29 l 1
 31 29 l 1
 31 31 l 1
36 33 m 1
 34 33 l 1
 34 31 l 1
 36 31 l 1
 36 33 l 1
31 27 m 1
 29 27 l 1
 29 25 l 1
 31 25 l 1
 31 27 l 1
49 43 m 1
 47 43 l 1
 47 41 l 1
 49 41 l 1
 49 43 l 1
49 39 m 1
 47 39 l 1
 47 37 l 1
 49 37 l 1
 49 39 l 1
55 43 m 1
 53 43 l 1
 53 41 l 1
 55 41 l 1
 55 43 l 1
58 43 m 1
 56 43 l 1
 56 41 l 1
 57 41 l 1
 57 42 l 1
 58 42 l 1
 58 43 l 1
59 42 m 1
 58 42 l 1
 58 41 l 1
 60 41 l 1
 60 43 l 1
 59 43 l 1
 59 42 l 1
63 43 m 1
 61 43 l 1
 61 41 l 1
 63 41 l 1
 63 43 l 1
63 39 m 1
 61 39 l 1
 61 37 l 1
 63 37 l 1
 63 39 l 1
49 35 m 1
 47 35 l 1
 47 33 l 1
 49 33 l 1
 49 35 l 1
49 31 m 1
 47 31 l 1
 47 29 l 1
 49 29 l 1
 49 31 l 1
49 27 m 1
 47 27 l 1
 47 25 l 1
 49 25 l 1
 49 27 l 1
55 35 m 1
 53 35 l 1
 53 33 l 1
 55 33 l 1
 55 35 l 1
57 35 m 1
 56 35 l 1
 56 33 l 1
 58 33 l 1
 58 34 l 1
 57 34 l 1
 57 35 l 1
60 35 m 1
 58 35 l 1
 58 34 l 1
 59 34 l 1
 59 33 l 1
 60 33 l 1
 60 35 l 1
63 35 m 1
 61 35 l 1
 61 33 l 1
 63 33 l 1
 63 35 l 1
63 31 m 1
 61 31 l 1
 61 29 l 1
 63 29 l 1
 63 31 l 1
55 27 m 1
 53 27 l 1
 53 25 l 1
 55 25 l 1
 55 27 l 1
58 27 m 1
 56 27 l 1
 56 25 l 1
 57 25 l 1
 57 26 l 1
 58 26 l 1
 58 27 l 1
59 26 m 1
 58 26 l 1
 58 25 l 1
 60 25 l 1
 60 27 l 1
 59 27 l 1
 59 26 l 1
63 27 m 1
 61 27 l 1
 61 25 l 1
 63 25 l 1
 63 27 l 1
EndSplineSet
EndChar

StartChar: custom_1_3_0_2_1
Encoding: 23889 23889 3921
Width: 70
Flags: H
LayerCount: 2
Fore
SplineSet
17 43 m 1
 15 43 l 1
 15 41 l 1
 17 41 l 1
 17 43 l 1
17 39 m 1
 15 39 l 1
 15 37 l 1
 17 37 l 1
 17 39 l 1
23 43 m 1
 21 43 l 1
 21 41 l 1
 23 41 l 1
 23 43 l 1
23 39 m 1
 21 39 l 1
 21 37 l 1
 23 37 l 1
 23 39 l 1
31 43 m 1
 29 43 l 1
 29 41 l 1
 31 41 l 1
 31 43 l 1
31 39 m 1
 29 39 l 1
 29 37 l 1
 31 37 l 1
 31 39 l 1
17 35 m 1
 15 35 l 1
 15 33 l 1
 17 33 l 1
 17 35 l 1
17 31 m 1
 15 31 l 1
 15 29 l 1
 17 29 l 1
 17 31 l 1
17 27 m 1
 15 27 l 1
 15 25 l 1
 17 25 l 1
 17 27 l 1
23 35 m 1
 21 35 l 1
 21 33 l 1
 23 33 l 1
 23 35 l 1
25 35 m 1
 24 35 l 1
 24 33 l 1
 26 33 l 1
 26 34 l 1
 25 34 l 1
 25 35 l 1
28 35 m 1
 26 35 l 1
 26 34 l 1
 27 34 l 1
 27 33 l 1
 28 33 l 1
 28 35 l 1
31 35 m 1
 29 35 l 1
 29 33 l 1
 31 33 l 1
 31 35 l 1
36 37 m 1
 34 37 l 1
 34 35 l 1
 36 35 l 1
 36 37 l 1
31 31 m 1
 29 31 l 1
 29 29 l 1
 31 29 l 1
 31 31 l 1
36 33 m 1
 34 33 l 1
 34 31 l 1
 36 31 l 1
 36 33 l 1
31 27 m 1
 29 27 l 1
 29 25 l 1
 31 25 l 1
 31 27 l 1
49 43 m 1
 47 43 l 1
 47 41 l 1
 49 41 l 1
 49 43 l 1
49 39 m 1
 47 39 l 1
 47 37 l 1
 49 37 l 1
 49 39 l 1
55 43 m 1
 53 43 l 1
 53 41 l 1
 55 41 l 1
 55 43 l 1
58 43 m 1
 56 43 l 1
 56 41 l 1
 57 41 l 1
 57 42 l 1
 58 42 l 1
 58 43 l 1
59 42 m 1
 58 42 l 1
 58 41 l 1
 60 41 l 1
 60 43 l 1
 59 43 l 1
 59 42 l 1
63 43 m 1
 61 43 l 1
 61 41 l 1
 63 41 l 1
 63 43 l 1
63 39 m 1
 61 39 l 1
 61 37 l 1
 63 37 l 1
 63 39 l 1
49 35 m 1
 47 35 l 1
 47 33 l 1
 49 33 l 1
 49 35 l 1
49 31 m 1
 47 31 l 1
 47 29 l 1
 49 29 l 1
 49 31 l 1
49 27 m 1
 47 27 l 1
 47 25 l 1
 49 25 l 1
 49 27 l 1
55 35 m 1
 53 35 l 1
 53 33 l 1
 55 33 l 1
 55 35 l 1
57 35 m 1
 56 35 l 1
 56 33 l 1
 58 33 l 1
 58 34 l 1
 57 34 l 1
 57 35 l 1
60 35 m 1
 58 35 l 1
 58 34 l 1
 59 34 l 1
 59 33 l 1
 60 33 l 1
 60 35 l 1
63 35 m 1
 61 35 l 1
 61 33 l 1
 63 33 l 1
 63 35 l 1
63 31 m 1
 61 31 l 1
 61 29 l 1
 63 29 l 1
 63 31 l 1
55 27 m 1
 53 27 l 1
 53 25 l 1
 55 25 l 1
 55 27 l 1
58 27 m 1
 56 27 l 1
 56 25 l 1
 57 25 l 1
 57 26 l 1
 58 26 l 1
 58 27 l 1
59 26 m 1
 58 26 l 1
 58 25 l 1
 60 25 l 1
 60 27 l 1
 59 27 l 1
 59 26 l 1
63 27 m 1
 61 27 l 1
 61 25 l 1
 63 25 l 1
 63 27 l 1
EndSplineSet
EndChar

StartChar: custom_1_3_0_2_2
Encoding: 23890 23890 3922
Width: 70
Flags: H
LayerCount: 2
Fore
SplineSet
17 43 m 1
 15 43 l 1
 15 41 l 1
 17 41 l 1
 17 43 l 1
17 39 m 1
 15 39 l 1
 15 37 l 1
 17 37 l 1
 17 39 l 1
23 43 m 1
 21 43 l 1
 21 41 l 1
 23 41 l 1
 23 43 l 1
23 39 m 1
 21 39 l 1
 21 37 l 1
 23 37 l 1
 23 39 l 1
31 43 m 1
 29 43 l 1
 29 41 l 1
 31 41 l 1
 31 43 l 1
31 39 m 1
 29 39 l 1
 29 37 l 1
 31 37 l 1
 31 39 l 1
17 35 m 1
 15 35 l 1
 15 33 l 1
 17 33 l 1
 17 35 l 1
17 31 m 1
 15 31 l 1
 15 29 l 1
 17 29 l 1
 17 31 l 1
17 27 m 1
 15 27 l 1
 15 25 l 1
 17 25 l 1
 17 27 l 1
23 35 m 1
 21 35 l 1
 21 33 l 1
 23 33 l 1
 23 35 l 1
25 35 m 1
 24 35 l 1
 24 33 l 1
 26 33 l 1
 26 34 l 1
 25 34 l 1
 25 35 l 1
28 35 m 1
 26 35 l 1
 26 34 l 1
 27 34 l 1
 27 33 l 1
 28 33 l 1
 28 35 l 1
31 35 m 1
 29 35 l 1
 29 33 l 1
 31 33 l 1
 31 35 l 1
36 37 m 1
 34 37 l 1
 34 35 l 1
 36 35 l 1
 36 37 l 1
31 31 m 1
 29 31 l 1
 29 29 l 1
 31 29 l 1
 31 31 l 1
36 33 m 1
 34 33 l 1
 34 31 l 1
 36 31 l 1
 36 33 l 1
31 27 m 1
 29 27 l 1
 29 25 l 1
 31 25 l 1
 31 27 l 1
49 43 m 1
 47 43 l 1
 47 41 l 1
 49 41 l 1
 49 43 l 1
49 39 m 1
 47 39 l 1
 47 37 l 1
 49 37 l 1
 49 39 l 1
55 43 m 1
 53 43 l 1
 53 41 l 1
 55 41 l 1
 55 43 l 1
58 43 m 1
 56 43 l 1
 56 41 l 1
 57 41 l 1
 57 42 l 1
 58 42 l 1
 58 43 l 1
59 42 m 1
 58 42 l 1
 58 41 l 1
 60 41 l 1
 60 43 l 1
 59 43 l 1
 59 42 l 1
63 43 m 1
 61 43 l 1
 61 41 l 1
 63 41 l 1
 63 43 l 1
63 39 m 1
 61 39 l 1
 61 37 l 1
 63 37 l 1
 63 39 l 1
49 35 m 1
 47 35 l 1
 47 33 l 1
 49 33 l 1
 49 35 l 1
49 31 m 1
 47 31 l 1
 47 29 l 1
 49 29 l 1
 49 31 l 1
49 27 m 1
 47 27 l 1
 47 25 l 1
 49 25 l 1
 49 27 l 1
55 35 m 1
 53 35 l 1
 53 33 l 1
 55 33 l 1
 55 35 l 1
57 35 m 1
 56 35 l 1
 56 33 l 1
 58 33 l 1
 58 34 l 1
 57 34 l 1
 57 35 l 1
60 35 m 1
 58 35 l 1
 58 34 l 1
 59 34 l 1
 59 33 l 1
 60 33 l 1
 60 35 l 1
63 35 m 1
 61 35 l 1
 61 33 l 1
 63 33 l 1
 63 35 l 1
63 31 m 1
 61 31 l 1
 61 29 l 1
 63 29 l 1
 63 31 l 1
55 27 m 1
 53 27 l 1
 53 25 l 1
 55 25 l 1
 55 27 l 1
58 27 m 1
 56 27 l 1
 56 25 l 1
 57 25 l 1
 57 26 l 1
 58 26 l 1
 58 27 l 1
59 26 m 1
 58 26 l 1
 58 25 l 1
 60 25 l 1
 60 27 l 1
 59 27 l 1
 59 26 l 1
63 27 m 1
 61 27 l 1
 61 25 l 1
 63 25 l 1
 63 27 l 1
EndSplineSet
EndChar

StartChar: custom_1_3_0_2_3
Encoding: 23891 23891 3923
Width: 70
Flags: H
LayerCount: 2
Fore
SplineSet
17 43 m 1
 15 43 l 1
 15 41 l 1
 17 41 l 1
 17 43 l 1
17 39 m 1
 15 39 l 1
 15 37 l 1
 17 37 l 1
 17 39 l 1
23 43 m 1
 21 43 l 1
 21 41 l 1
 23 41 l 1
 23 43 l 1
23 39 m 1
 21 39 l 1
 21 37 l 1
 23 37 l 1
 23 39 l 1
31 43 m 1
 29 43 l 1
 29 41 l 1
 31 41 l 1
 31 43 l 1
31 39 m 1
 29 39 l 1
 29 37 l 1
 31 37 l 1
 31 39 l 1
17 35 m 1
 15 35 l 1
 15 33 l 1
 17 33 l 1
 17 35 l 1
17 31 m 1
 15 31 l 1
 15 29 l 1
 17 29 l 1
 17 31 l 1
17 27 m 1
 15 27 l 1
 15 25 l 1
 17 25 l 1
 17 27 l 1
23 35 m 1
 21 35 l 1
 21 33 l 1
 23 33 l 1
 23 35 l 1
25 35 m 1
 24 35 l 1
 24 33 l 1
 26 33 l 1
 26 34 l 1
 25 34 l 1
 25 35 l 1
28 35 m 1
 26 35 l 1
 26 34 l 1
 27 34 l 1
 27 33 l 1
 28 33 l 1
 28 35 l 1
31 35 m 1
 29 35 l 1
 29 33 l 1
 31 33 l 1
 31 35 l 1
36 37 m 1
 34 37 l 1
 34 35 l 1
 36 35 l 1
 36 37 l 1
31 31 m 1
 29 31 l 1
 29 29 l 1
 31 29 l 1
 31 31 l 1
36 33 m 1
 34 33 l 1
 34 31 l 1
 36 31 l 1
 36 33 l 1
31 27 m 1
 29 27 l 1
 29 25 l 1
 31 25 l 1
 31 27 l 1
49 43 m 1
 47 43 l 1
 47 41 l 1
 49 41 l 1
 49 43 l 1
49 39 m 1
 47 39 l 1
 47 37 l 1
 49 37 l 1
 49 39 l 1
55 43 m 1
 53 43 l 1
 53 41 l 1
 55 41 l 1
 55 43 l 1
58 43 m 1
 56 43 l 1
 56 41 l 1
 57 41 l 1
 57 42 l 1
 58 42 l 1
 58 43 l 1
59 42 m 1
 58 42 l 1
 58 41 l 1
 60 41 l 1
 60 43 l 1
 59 43 l 1
 59 42 l 1
63 43 m 1
 61 43 l 1
 61 41 l 1
 63 41 l 1
 63 43 l 1
63 39 m 1
 61 39 l 1
 61 37 l 1
 63 37 l 1
 63 39 l 1
49 35 m 1
 47 35 l 1
 47 33 l 1
 49 33 l 1
 49 35 l 1
49 31 m 1
 47 31 l 1
 47 29 l 1
 49 29 l 1
 49 31 l 1
49 27 m 1
 47 27 l 1
 47 25 l 1
 49 25 l 1
 49 27 l 1
55 35 m 1
 53 35 l 1
 53 33 l 1
 55 33 l 1
 55 35 l 1
57 35 m 1
 56 35 l 1
 56 33 l 1
 58 33 l 1
 58 34 l 1
 57 34 l 1
 57 35 l 1
60 35 m 1
 58 35 l 1
 58 34 l 1
 59 34 l 1
 59 33 l 1
 60 33 l 1
 60 35 l 1
63 35 m 1
 61 35 l 1
 61 33 l 1
 63 33 l 1
 63 35 l 1
63 31 m 1
 61 31 l 1
 61 29 l 1
 63 29 l 1
 63 31 l 1
55 27 m 1
 53 27 l 1
 53 25 l 1
 55 25 l 1
 55 27 l 1
58 27 m 1
 56 27 l 1
 56 25 l 1
 57 25 l 1
 57 26 l 1
 58 26 l 1
 58 27 l 1
59 26 m 1
 58 26 l 1
 58 25 l 1
 60 25 l 1
 60 27 l 1
 59 27 l 1
 59 26 l 1
63 27 m 1
 61 27 l 1
 61 25 l 1
 63 25 l 1
 63 27 l 1
EndSplineSet
EndChar

StartChar: custom_1_3_0_2_4
Encoding: 23892 23892 3924
Width: 70
Flags: H
LayerCount: 2
Fore
SplineSet
17 43 m 1
 15 43 l 1
 15 41 l 1
 17 41 l 1
 17 43 l 1
17 39 m 1
 15 39 l 1
 15 37 l 1
 17 37 l 1
 17 39 l 1
23 43 m 1
 21 43 l 1
 21 41 l 1
 23 41 l 1
 23 43 l 1
23 39 m 1
 21 39 l 1
 21 37 l 1
 23 37 l 1
 23 39 l 1
31 43 m 1
 29 43 l 1
 29 41 l 1
 31 41 l 1
 31 43 l 1
31 39 m 1
 29 39 l 1
 29 37 l 1
 31 37 l 1
 31 39 l 1
17 35 m 1
 15 35 l 1
 15 33 l 1
 17 33 l 1
 17 35 l 1
17 31 m 1
 15 31 l 1
 15 29 l 1
 17 29 l 1
 17 31 l 1
17 27 m 1
 15 27 l 1
 15 25 l 1
 17 25 l 1
 17 27 l 1
23 35 m 1
 21 35 l 1
 21 33 l 1
 23 33 l 1
 23 35 l 1
25 35 m 1
 24 35 l 1
 24 33 l 1
 26 33 l 1
 26 34 l 1
 25 34 l 1
 25 35 l 1
28 35 m 1
 26 35 l 1
 26 34 l 1
 27 34 l 1
 27 33 l 1
 28 33 l 1
 28 35 l 1
31 35 m 1
 29 35 l 1
 29 33 l 1
 31 33 l 1
 31 35 l 1
36 37 m 1
 34 37 l 1
 34 35 l 1
 36 35 l 1
 36 37 l 1
31 31 m 1
 29 31 l 1
 29 29 l 1
 31 29 l 1
 31 31 l 1
36 33 m 1
 34 33 l 1
 34 31 l 1
 36 31 l 1
 36 33 l 1
31 27 m 1
 29 27 l 1
 29 25 l 1
 31 25 l 1
 31 27 l 1
49 43 m 1
 47 43 l 1
 47 41 l 1
 49 41 l 1
 49 43 l 1
49 39 m 1
 47 39 l 1
 47 37 l 1
 49 37 l 1
 49 39 l 1
55 43 m 1
 53 43 l 1
 53 41 l 1
 55 41 l 1
 55 43 l 1
58 43 m 1
 56 43 l 1
 56 41 l 1
 57 41 l 1
 57 42 l 1
 58 42 l 1
 58 43 l 1
59 42 m 1
 58 42 l 1
 58 41 l 1
 60 41 l 1
 60 43 l 1
 59 43 l 1
 59 42 l 1
63 43 m 1
 61 43 l 1
 61 41 l 1
 63 41 l 1
 63 43 l 1
63 39 m 1
 61 39 l 1
 61 37 l 1
 63 37 l 1
 63 39 l 1
49 35 m 1
 47 35 l 1
 47 33 l 1
 49 33 l 1
 49 35 l 1
49 31 m 1
 47 31 l 1
 47 29 l 1
 49 29 l 1
 49 31 l 1
49 27 m 1
 47 27 l 1
 47 25 l 1
 49 25 l 1
 49 27 l 1
55 35 m 1
 53 35 l 1
 53 33 l 1
 55 33 l 1
 55 35 l 1
57 35 m 1
 56 35 l 1
 56 33 l 1
 58 33 l 1
 58 34 l 1
 57 34 l 1
 57 35 l 1
60 35 m 1
 58 35 l 1
 58 34 l 1
 59 34 l 1
 59 33 l 1
 60 33 l 1
 60 35 l 1
63 35 m 1
 61 35 l 1
 61 33 l 1
 63 33 l 1
 63 35 l 1
63 31 m 1
 61 31 l 1
 61 29 l 1
 63 29 l 1
 63 31 l 1
55 27 m 1
 53 27 l 1
 53 25 l 1
 55 25 l 1
 55 27 l 1
58 27 m 1
 56 27 l 1
 56 25 l 1
 57 25 l 1
 57 26 l 1
 58 26 l 1
 58 27 l 1
59 26 m 1
 58 26 l 1
 58 25 l 1
 60 25 l 1
 60 27 l 1
 59 27 l 1
 59 26 l 1
63 27 m 1
 61 27 l 1
 61 25 l 1
 63 25 l 1
 63 27 l 1
EndSplineSet
EndChar

StartChar: custom_1_3_0_2_5
Encoding: 23893 23893 3925
Width: 70
Flags: H
LayerCount: 2
Fore
SplineSet
17 43 m 1
 15 43 l 1
 15 41 l 1
 17 41 l 1
 17 43 l 1
17 39 m 1
 15 39 l 1
 15 37 l 1
 17 37 l 1
 17 39 l 1
23 43 m 1
 21 43 l 1
 21 41 l 1
 23 41 l 1
 23 43 l 1
23 39 m 1
 21 39 l 1
 21 37 l 1
 23 37 l 1
 23 39 l 1
31 43 m 1
 29 43 l 1
 29 41 l 1
 31 41 l 1
 31 43 l 1
31 39 m 1
 29 39 l 1
 29 37 l 1
 31 37 l 1
 31 39 l 1
17 35 m 1
 15 35 l 1
 15 33 l 1
 17 33 l 1
 17 35 l 1
17 31 m 1
 15 31 l 1
 15 29 l 1
 17 29 l 1
 17 31 l 1
17 27 m 1
 15 27 l 1
 15 25 l 1
 17 25 l 1
 17 27 l 1
23 35 m 1
 21 35 l 1
 21 33 l 1
 23 33 l 1
 23 35 l 1
25 35 m 1
 24 35 l 1
 24 33 l 1
 26 33 l 1
 26 34 l 1
 25 34 l 1
 25 35 l 1
28 35 m 1
 26 35 l 1
 26 34 l 1
 27 34 l 1
 27 33 l 1
 28 33 l 1
 28 35 l 1
31 35 m 1
 29 35 l 1
 29 33 l 1
 31 33 l 1
 31 35 l 1
36 37 m 1
 34 37 l 1
 34 35 l 1
 36 35 l 1
 36 37 l 1
31 31 m 1
 29 31 l 1
 29 29 l 1
 31 29 l 1
 31 31 l 1
36 33 m 1
 34 33 l 1
 34 31 l 1
 36 31 l 1
 36 33 l 1
31 27 m 1
 29 27 l 1
 29 25 l 1
 31 25 l 1
 31 27 l 1
49 43 m 1
 47 43 l 1
 47 41 l 1
 49 41 l 1
 49 43 l 1
49 39 m 1
 47 39 l 1
 47 37 l 1
 49 37 l 1
 49 39 l 1
55 43 m 1
 53 43 l 1
 53 41 l 1
 55 41 l 1
 55 43 l 1
58 43 m 1
 56 43 l 1
 56 41 l 1
 57 41 l 1
 57 42 l 1
 58 42 l 1
 58 43 l 1
59 42 m 1
 58 42 l 1
 58 41 l 1
 60 41 l 1
 60 43 l 1
 59 43 l 1
 59 42 l 1
63 43 m 1
 61 43 l 1
 61 41 l 1
 63 41 l 1
 63 43 l 1
63 39 m 1
 61 39 l 1
 61 37 l 1
 63 37 l 1
 63 39 l 1
49 35 m 1
 47 35 l 1
 47 33 l 1
 49 33 l 1
 49 35 l 1
49 31 m 1
 47 31 l 1
 47 29 l 1
 49 29 l 1
 49 31 l 1
49 27 m 1
 47 27 l 1
 47 25 l 1
 49 25 l 1
 49 27 l 1
55 35 m 1
 53 35 l 1
 53 33 l 1
 55 33 l 1
 55 35 l 1
57 35 m 1
 56 35 l 1
 56 33 l 1
 58 33 l 1
 58 34 l 1
 57 34 l 1
 57 35 l 1
60 35 m 1
 58 35 l 1
 58 34 l 1
 59 34 l 1
 59 33 l 1
 60 33 l 1
 60 35 l 1
63 35 m 1
 61 35 l 1
 61 33 l 1
 63 33 l 1
 63 35 l 1
63 31 m 1
 61 31 l 1
 61 29 l 1
 63 29 l 1
 63 31 l 1
55 27 m 1
 53 27 l 1
 53 25 l 1
 55 25 l 1
 55 27 l 1
58 27 m 1
 56 27 l 1
 56 25 l 1
 57 25 l 1
 57 26 l 1
 58 26 l 1
 58 27 l 1
59 26 m 1
 58 26 l 1
 58 25 l 1
 60 25 l 1
 60 27 l 1
 59 27 l 1
 59 26 l 1
63 27 m 1
 61 27 l 1
 61 25 l 1
 63 25 l 1
 63 27 l 1
EndSplineSet
EndChar

StartChar: custom_1_3_0_2_6
Encoding: 23894 23894 3926
Width: 70
Flags: H
LayerCount: 2
Fore
SplineSet
17 43 m 1
 15 43 l 1
 15 41 l 1
 17 41 l 1
 17 43 l 1
17 39 m 1
 15 39 l 1
 15 37 l 1
 17 37 l 1
 17 39 l 1
23 43 m 1
 21 43 l 1
 21 41 l 1
 23 41 l 1
 23 43 l 1
23 39 m 1
 21 39 l 1
 21 37 l 1
 23 37 l 1
 23 39 l 1
31 43 m 1
 29 43 l 1
 29 41 l 1
 31 41 l 1
 31 43 l 1
31 39 m 1
 29 39 l 1
 29 37 l 1
 31 37 l 1
 31 39 l 1
17 35 m 1
 15 35 l 1
 15 33 l 1
 17 33 l 1
 17 35 l 1
17 31 m 1
 15 31 l 1
 15 29 l 1
 17 29 l 1
 17 31 l 1
17 27 m 1
 15 27 l 1
 15 25 l 1
 17 25 l 1
 17 27 l 1
23 35 m 1
 21 35 l 1
 21 33 l 1
 23 33 l 1
 23 35 l 1
25 35 m 1
 24 35 l 1
 24 33 l 1
 26 33 l 1
 26 34 l 1
 25 34 l 1
 25 35 l 1
28 35 m 1
 26 35 l 1
 26 34 l 1
 27 34 l 1
 27 33 l 1
 28 33 l 1
 28 35 l 1
31 35 m 1
 29 35 l 1
 29 33 l 1
 31 33 l 1
 31 35 l 1
36 37 m 1
 34 37 l 1
 34 35 l 1
 36 35 l 1
 36 37 l 1
31 31 m 1
 29 31 l 1
 29 29 l 1
 31 29 l 1
 31 31 l 1
36 33 m 1
 34 33 l 1
 34 31 l 1
 36 31 l 1
 36 33 l 1
31 27 m 1
 29 27 l 1
 29 25 l 1
 31 25 l 1
 31 27 l 1
49 43 m 1
 47 43 l 1
 47 41 l 1
 49 41 l 1
 49 43 l 1
49 39 m 1
 47 39 l 1
 47 37 l 1
 49 37 l 1
 49 39 l 1
55 43 m 1
 53 43 l 1
 53 41 l 1
 55 41 l 1
 55 43 l 1
58 43 m 1
 56 43 l 1
 56 41 l 1
 57 41 l 1
 57 42 l 1
 58 42 l 1
 58 43 l 1
59 42 m 1
 58 42 l 1
 58 41 l 1
 60 41 l 1
 60 43 l 1
 59 43 l 1
 59 42 l 1
63 43 m 1
 61 43 l 1
 61 41 l 1
 63 41 l 1
 63 43 l 1
63 39 m 1
 61 39 l 1
 61 37 l 1
 63 37 l 1
 63 39 l 1
49 35 m 1
 47 35 l 1
 47 33 l 1
 49 33 l 1
 49 35 l 1
49 31 m 1
 47 31 l 1
 47 29 l 1
 49 29 l 1
 49 31 l 1
49 27 m 1
 47 27 l 1
 47 25 l 1
 49 25 l 1
 49 27 l 1
55 35 m 1
 53 35 l 1
 53 33 l 1
 55 33 l 1
 55 35 l 1
57 35 m 1
 56 35 l 1
 56 33 l 1
 58 33 l 1
 58 34 l 1
 57 34 l 1
 57 35 l 1
60 35 m 1
 58 35 l 1
 58 34 l 1
 59 34 l 1
 59 33 l 1
 60 33 l 1
 60 35 l 1
63 35 m 1
 61 35 l 1
 61 33 l 1
 63 33 l 1
 63 35 l 1
63 31 m 1
 61 31 l 1
 61 29 l 1
 63 29 l 1
 63 31 l 1
55 27 m 1
 53 27 l 1
 53 25 l 1
 55 25 l 1
 55 27 l 1
58 27 m 1
 56 27 l 1
 56 25 l 1
 57 25 l 1
 57 26 l 1
 58 26 l 1
 58 27 l 1
59 26 m 1
 58 26 l 1
 58 25 l 1
 60 25 l 1
 60 27 l 1
 59 27 l 1
 59 26 l 1
63 27 m 1
 61 27 l 1
 61 25 l 1
 63 25 l 1
 63 27 l 1
EndSplineSet
EndChar

StartChar: custom_1_3_0_2_7
Encoding: 23895 23895 3927
Width: 70
Flags: H
LayerCount: 2
Fore
SplineSet
17 43 m 1
 15 43 l 1
 15 41 l 1
 17 41 l 1
 17 43 l 1
17 39 m 1
 15 39 l 1
 15 37 l 1
 17 37 l 1
 17 39 l 1
23 43 m 1
 21 43 l 1
 21 41 l 1
 23 41 l 1
 23 43 l 1
23 39 m 1
 21 39 l 1
 21 37 l 1
 23 37 l 1
 23 39 l 1
31 43 m 1
 29 43 l 1
 29 41 l 1
 31 41 l 1
 31 43 l 1
31 39 m 1
 29 39 l 1
 29 37 l 1
 31 37 l 1
 31 39 l 1
17 35 m 1
 15 35 l 1
 15 33 l 1
 17 33 l 1
 17 35 l 1
17 31 m 1
 15 31 l 1
 15 29 l 1
 17 29 l 1
 17 31 l 1
17 27 m 1
 15 27 l 1
 15 25 l 1
 17 25 l 1
 17 27 l 1
23 35 m 1
 21 35 l 1
 21 33 l 1
 23 33 l 1
 23 35 l 1
25 35 m 1
 24 35 l 1
 24 33 l 1
 26 33 l 1
 26 34 l 1
 25 34 l 1
 25 35 l 1
28 35 m 1
 26 35 l 1
 26 34 l 1
 27 34 l 1
 27 33 l 1
 28 33 l 1
 28 35 l 1
31 35 m 1
 29 35 l 1
 29 33 l 1
 31 33 l 1
 31 35 l 1
36 37 m 1
 34 37 l 1
 34 35 l 1
 36 35 l 1
 36 37 l 1
31 31 m 1
 29 31 l 1
 29 29 l 1
 31 29 l 1
 31 31 l 1
36 33 m 1
 34 33 l 1
 34 31 l 1
 36 31 l 1
 36 33 l 1
31 27 m 1
 29 27 l 1
 29 25 l 1
 31 25 l 1
 31 27 l 1
49 43 m 1
 47 43 l 1
 47 41 l 1
 49 41 l 1
 49 43 l 1
49 39 m 1
 47 39 l 1
 47 37 l 1
 49 37 l 1
 49 39 l 1
55 43 m 1
 53 43 l 1
 53 41 l 1
 55 41 l 1
 55 43 l 1
58 43 m 1
 56 43 l 1
 56 41 l 1
 57 41 l 1
 57 42 l 1
 58 42 l 1
 58 43 l 1
59 42 m 1
 58 42 l 1
 58 41 l 1
 60 41 l 1
 60 43 l 1
 59 43 l 1
 59 42 l 1
63 43 m 1
 61 43 l 1
 61 41 l 1
 63 41 l 1
 63 43 l 1
63 39 m 1
 61 39 l 1
 61 37 l 1
 63 37 l 1
 63 39 l 1
49 35 m 1
 47 35 l 1
 47 33 l 1
 49 33 l 1
 49 35 l 1
49 31 m 1
 47 31 l 1
 47 29 l 1
 49 29 l 1
 49 31 l 1
49 27 m 1
 47 27 l 1
 47 25 l 1
 49 25 l 1
 49 27 l 1
55 35 m 1
 53 35 l 1
 53 33 l 1
 55 33 l 1
 55 35 l 1
57 35 m 1
 56 35 l 1
 56 33 l 1
 58 33 l 1
 58 34 l 1
 57 34 l 1
 57 35 l 1
60 35 m 1
 58 35 l 1
 58 34 l 1
 59 34 l 1
 59 33 l 1
 60 33 l 1
 60 35 l 1
63 35 m 1
 61 35 l 1
 61 33 l 1
 63 33 l 1
 63 35 l 1
63 31 m 1
 61 31 l 1
 61 29 l 1
 63 29 l 1
 63 31 l 1
55 27 m 1
 53 27 l 1
 53 25 l 1
 55 25 l 1
 55 27 l 1
58 27 m 1
 56 27 l 1
 56 25 l 1
 57 25 l 1
 57 26 l 1
 58 26 l 1
 58 27 l 1
59 26 m 1
 58 26 l 1
 58 25 l 1
 60 25 l 1
 60 27 l 1
 59 27 l 1
 59 26 l 1
63 27 m 1
 61 27 l 1
 61 25 l 1
 63 25 l 1
 63 27 l 1
EndSplineSet
EndChar

StartChar: custom_1_3_0_2_8
Encoding: 23896 23896 3928
Width: 70
Flags: H
LayerCount: 2
Fore
SplineSet
17 43 m 1
 15 43 l 1
 15 41 l 1
 17 41 l 1
 17 43 l 1
17 39 m 1
 15 39 l 1
 15 37 l 1
 17 37 l 1
 17 39 l 1
23 43 m 1
 21 43 l 1
 21 41 l 1
 23 41 l 1
 23 43 l 1
23 39 m 1
 21 39 l 1
 21 37 l 1
 23 37 l 1
 23 39 l 1
31 43 m 1
 29 43 l 1
 29 41 l 1
 31 41 l 1
 31 43 l 1
31 39 m 1
 29 39 l 1
 29 37 l 1
 31 37 l 1
 31 39 l 1
17 35 m 1
 15 35 l 1
 15 33 l 1
 17 33 l 1
 17 35 l 1
17 31 m 1
 15 31 l 1
 15 29 l 1
 17 29 l 1
 17 31 l 1
17 27 m 1
 15 27 l 1
 15 25 l 1
 17 25 l 1
 17 27 l 1
23 35 m 1
 21 35 l 1
 21 33 l 1
 23 33 l 1
 23 35 l 1
25 35 m 1
 24 35 l 1
 24 33 l 1
 26 33 l 1
 26 34 l 1
 25 34 l 1
 25 35 l 1
28 35 m 1
 26 35 l 1
 26 34 l 1
 27 34 l 1
 27 33 l 1
 28 33 l 1
 28 35 l 1
31 35 m 1
 29 35 l 1
 29 33 l 1
 31 33 l 1
 31 35 l 1
36 37 m 1
 34 37 l 1
 34 35 l 1
 36 35 l 1
 36 37 l 1
31 31 m 1
 29 31 l 1
 29 29 l 1
 31 29 l 1
 31 31 l 1
36 33 m 1
 34 33 l 1
 34 31 l 1
 36 31 l 1
 36 33 l 1
31 27 m 1
 29 27 l 1
 29 25 l 1
 31 25 l 1
 31 27 l 1
49 43 m 1
 47 43 l 1
 47 41 l 1
 49 41 l 1
 49 43 l 1
49 39 m 1
 47 39 l 1
 47 37 l 1
 49 37 l 1
 49 39 l 1
55 43 m 1
 53 43 l 1
 53 41 l 1
 55 41 l 1
 55 43 l 1
58 43 m 1
 56 43 l 1
 56 41 l 1
 57 41 l 1
 57 42 l 1
 58 42 l 1
 58 43 l 1
59 42 m 1
 58 42 l 1
 58 41 l 1
 60 41 l 1
 60 43 l 1
 59 43 l 1
 59 42 l 1
63 43 m 1
 61 43 l 1
 61 41 l 1
 63 41 l 1
 63 43 l 1
63 39 m 1
 61 39 l 1
 61 37 l 1
 63 37 l 1
 63 39 l 1
49 35 m 1
 47 35 l 1
 47 33 l 1
 49 33 l 1
 49 35 l 1
49 31 m 1
 47 31 l 1
 47 29 l 1
 49 29 l 1
 49 31 l 1
49 27 m 1
 47 27 l 1
 47 25 l 1
 49 25 l 1
 49 27 l 1
55 35 m 1
 53 35 l 1
 53 33 l 1
 55 33 l 1
 55 35 l 1
57 35 m 1
 56 35 l 1
 56 33 l 1
 58 33 l 1
 58 34 l 1
 57 34 l 1
 57 35 l 1
60 35 m 1
 58 35 l 1
 58 34 l 1
 59 34 l 1
 59 33 l 1
 60 33 l 1
 60 35 l 1
63 35 m 1
 61 35 l 1
 61 33 l 1
 63 33 l 1
 63 35 l 1
63 31 m 1
 61 31 l 1
 61 29 l 1
 63 29 l 1
 63 31 l 1
55 27 m 1
 53 27 l 1
 53 25 l 1
 55 25 l 1
 55 27 l 1
58 27 m 1
 56 27 l 1
 56 25 l 1
 57 25 l 1
 57 26 l 1
 58 26 l 1
 58 27 l 1
59 26 m 1
 58 26 l 1
 58 25 l 1
 60 25 l 1
 60 27 l 1
 59 27 l 1
 59 26 l 1
63 27 m 1
 61 27 l 1
 61 25 l 1
 63 25 l 1
 63 27 l 1
EndSplineSet
EndChar

StartChar: custom_1_3_0_2_9
Encoding: 23897 23897 3929
Width: 70
Flags: H
LayerCount: 2
Fore
SplineSet
17 43 m 1
 15 43 l 1
 15 41 l 1
 17 41 l 1
 17 43 l 1
17 39 m 1
 15 39 l 1
 15 37 l 1
 17 37 l 1
 17 39 l 1
23 43 m 1
 21 43 l 1
 21 41 l 1
 23 41 l 1
 23 43 l 1
23 39 m 1
 21 39 l 1
 21 37 l 1
 23 37 l 1
 23 39 l 1
31 43 m 1
 29 43 l 1
 29 41 l 1
 31 41 l 1
 31 43 l 1
31 39 m 1
 29 39 l 1
 29 37 l 1
 31 37 l 1
 31 39 l 1
17 35 m 1
 15 35 l 1
 15 33 l 1
 17 33 l 1
 17 35 l 1
17 31 m 1
 15 31 l 1
 15 29 l 1
 17 29 l 1
 17 31 l 1
17 27 m 1
 15 27 l 1
 15 25 l 1
 17 25 l 1
 17 27 l 1
23 35 m 1
 21 35 l 1
 21 33 l 1
 23 33 l 1
 23 35 l 1
25 35 m 1
 24 35 l 1
 24 33 l 1
 26 33 l 1
 26 34 l 1
 25 34 l 1
 25 35 l 1
28 35 m 1
 26 35 l 1
 26 34 l 1
 27 34 l 1
 27 33 l 1
 28 33 l 1
 28 35 l 1
31 35 m 1
 29 35 l 1
 29 33 l 1
 31 33 l 1
 31 35 l 1
36 37 m 1
 34 37 l 1
 34 35 l 1
 36 35 l 1
 36 37 l 1
31 31 m 1
 29 31 l 1
 29 29 l 1
 31 29 l 1
 31 31 l 1
36 33 m 1
 34 33 l 1
 34 31 l 1
 36 31 l 1
 36 33 l 1
31 27 m 1
 29 27 l 1
 29 25 l 1
 31 25 l 1
 31 27 l 1
49 43 m 1
 47 43 l 1
 47 41 l 1
 49 41 l 1
 49 43 l 1
49 39 m 1
 47 39 l 1
 47 37 l 1
 49 37 l 1
 49 39 l 1
55 43 m 1
 53 43 l 1
 53 41 l 1
 55 41 l 1
 55 43 l 1
58 43 m 1
 56 43 l 1
 56 41 l 1
 57 41 l 1
 57 42 l 1
 58 42 l 1
 58 43 l 1
59 42 m 1
 58 42 l 1
 58 41 l 1
 60 41 l 1
 60 43 l 1
 59 43 l 1
 59 42 l 1
63 43 m 1
 61 43 l 1
 61 41 l 1
 63 41 l 1
 63 43 l 1
63 39 m 1
 61 39 l 1
 61 37 l 1
 63 37 l 1
 63 39 l 1
49 35 m 1
 47 35 l 1
 47 33 l 1
 49 33 l 1
 49 35 l 1
49 31 m 1
 47 31 l 1
 47 29 l 1
 49 29 l 1
 49 31 l 1
49 27 m 1
 47 27 l 1
 47 25 l 1
 49 25 l 1
 49 27 l 1
55 35 m 1
 53 35 l 1
 53 33 l 1
 55 33 l 1
 55 35 l 1
57 35 m 1
 56 35 l 1
 56 33 l 1
 58 33 l 1
 58 34 l 1
 57 34 l 1
 57 35 l 1
60 35 m 1
 58 35 l 1
 58 34 l 1
 59 34 l 1
 59 33 l 1
 60 33 l 1
 60 35 l 1
63 35 m 1
 61 35 l 1
 61 33 l 1
 63 33 l 1
 63 35 l 1
63 31 m 1
 61 31 l 1
 61 29 l 1
 63 29 l 1
 63 31 l 1
55 27 m 1
 53 27 l 1
 53 25 l 1
 55 25 l 1
 55 27 l 1
58 27 m 1
 56 27 l 1
 56 25 l 1
 57 25 l 1
 57 26 l 1
 58 26 l 1
 58 27 l 1
59 26 m 1
 58 26 l 1
 58 25 l 1
 60 25 l 1
 60 27 l 1
 59 27 l 1
 59 26 l 1
63 27 m 1
 61 27 l 1
 61 25 l 1
 63 25 l 1
 63 27 l 1
EndSplineSet
EndChar

StartChar: custom_1_3_0_3_0
Encoding: 23898 23898 3930
Width: 70
Flags: H
LayerCount: 2
Fore
SplineSet
17 43 m 1
 15 43 l 1
 15 41 l 1
 17 41 l 1
 17 43 l 1
17 39 m 1
 15 39 l 1
 15 37 l 1
 17 37 l 1
 17 39 l 1
23 43 m 1
 21 43 l 1
 21 41 l 1
 23 41 l 1
 23 43 l 1
23 39 m 1
 21 39 l 1
 21 37 l 1
 23 37 l 1
 23 39 l 1
31 43 m 1
 29 43 l 1
 29 41 l 1
 31 41 l 1
 31 43 l 1
31 39 m 1
 29 39 l 1
 29 37 l 1
 31 37 l 1
 31 39 l 1
17 35 m 1
 15 35 l 1
 15 33 l 1
 17 33 l 1
 17 35 l 1
17 31 m 1
 15 31 l 1
 15 29 l 1
 17 29 l 1
 17 31 l 1
17 27 m 1
 15 27 l 1
 15 25 l 1
 17 25 l 1
 17 27 l 1
23 35 m 1
 21 35 l 1
 21 33 l 1
 23 33 l 1
 23 35 l 1
25 35 m 1
 24 35 l 1
 24 33 l 1
 26 33 l 1
 26 34 l 1
 25 34 l 1
 25 35 l 1
28 35 m 1
 26 35 l 1
 26 34 l 1
 27 34 l 1
 27 33 l 1
 28 33 l 1
 28 35 l 1
31 35 m 1
 29 35 l 1
 29 33 l 1
 31 33 l 1
 31 35 l 1
36 37 m 1
 34 37 l 1
 34 35 l 1
 36 35 l 1
 36 37 l 1
31 31 m 1
 29 31 l 1
 29 29 l 1
 31 29 l 1
 31 31 l 1
36 33 m 1
 34 33 l 1
 34 31 l 1
 36 31 l 1
 36 33 l 1
31 27 m 1
 29 27 l 1
 29 25 l 1
 31 25 l 1
 31 27 l 1
49 43 m 1
 47 43 l 1
 47 41 l 1
 49 41 l 1
 49 43 l 1
49 39 m 1
 47 39 l 1
 47 37 l 1
 49 37 l 1
 49 39 l 1
55 43 m 1
 53 43 l 1
 53 41 l 1
 55 41 l 1
 55 43 l 1
58 43 m 1
 56 43 l 1
 56 41 l 1
 57 41 l 1
 57 42 l 1
 58 42 l 1
 58 43 l 1
59 42 m 1
 58 42 l 1
 58 41 l 1
 60 41 l 1
 60 43 l 1
 59 43 l 1
 59 42 l 1
63 43 m 1
 61 43 l 1
 61 41 l 1
 63 41 l 1
 63 43 l 1
63 39 m 1
 61 39 l 1
 61 37 l 1
 63 37 l 1
 63 39 l 1
49 35 m 1
 47 35 l 1
 47 33 l 1
 49 33 l 1
 49 35 l 1
49 31 m 1
 47 31 l 1
 47 29 l 1
 49 29 l 1
 49 31 l 1
49 27 m 1
 47 27 l 1
 47 25 l 1
 49 25 l 1
 49 27 l 1
55 35 m 1
 53 35 l 1
 53 33 l 1
 55 33 l 1
 55 35 l 1
57 35 m 1
 56 35 l 1
 56 33 l 1
 58 33 l 1
 58 34 l 1
 57 34 l 1
 57 35 l 1
60 35 m 1
 58 35 l 1
 58 34 l 1
 59 34 l 1
 59 33 l 1
 60 33 l 1
 60 35 l 1
63 35 m 1
 61 35 l 1
 61 33 l 1
 63 33 l 1
 63 35 l 1
63 31 m 1
 61 31 l 1
 61 29 l 1
 63 29 l 1
 63 31 l 1
55 27 m 1
 53 27 l 1
 53 25 l 1
 55 25 l 1
 55 27 l 1
58 27 m 1
 56 27 l 1
 56 25 l 1
 57 25 l 1
 57 26 l 1
 58 26 l 1
 58 27 l 1
59 26 m 1
 58 26 l 1
 58 25 l 1
 60 25 l 1
 60 27 l 1
 59 27 l 1
 59 26 l 1
63 27 m 1
 61 27 l 1
 61 25 l 1
 63 25 l 1
 63 27 l 1
EndSplineSet
EndChar

StartChar: custom_1_3_0_3_1
Encoding: 23899 23899 3931
Width: 70
Flags: H
LayerCount: 2
Fore
SplineSet
17 43 m 1
 15 43 l 1
 15 41 l 1
 17 41 l 1
 17 43 l 1
17 39 m 1
 15 39 l 1
 15 37 l 1
 17 37 l 1
 17 39 l 1
23 43 m 1
 21 43 l 1
 21 41 l 1
 23 41 l 1
 23 43 l 1
23 39 m 1
 21 39 l 1
 21 37 l 1
 23 37 l 1
 23 39 l 1
31 43 m 1
 29 43 l 1
 29 41 l 1
 31 41 l 1
 31 43 l 1
31 39 m 1
 29 39 l 1
 29 37 l 1
 31 37 l 1
 31 39 l 1
17 35 m 1
 15 35 l 1
 15 33 l 1
 17 33 l 1
 17 35 l 1
17 31 m 1
 15 31 l 1
 15 29 l 1
 17 29 l 1
 17 31 l 1
17 27 m 1
 15 27 l 1
 15 25 l 1
 17 25 l 1
 17 27 l 1
23 35 m 1
 21 35 l 1
 21 33 l 1
 23 33 l 1
 23 35 l 1
25 35 m 1
 24 35 l 1
 24 33 l 1
 26 33 l 1
 26 34 l 1
 25 34 l 1
 25 35 l 1
28 35 m 1
 26 35 l 1
 26 34 l 1
 27 34 l 1
 27 33 l 1
 28 33 l 1
 28 35 l 1
31 35 m 1
 29 35 l 1
 29 33 l 1
 31 33 l 1
 31 35 l 1
36 37 m 1
 34 37 l 1
 34 35 l 1
 36 35 l 1
 36 37 l 1
31 31 m 1
 29 31 l 1
 29 29 l 1
 31 29 l 1
 31 31 l 1
36 33 m 1
 34 33 l 1
 34 31 l 1
 36 31 l 1
 36 33 l 1
31 27 m 1
 29 27 l 1
 29 25 l 1
 31 25 l 1
 31 27 l 1
49 43 m 1
 47 43 l 1
 47 41 l 1
 49 41 l 1
 49 43 l 1
49 39 m 1
 47 39 l 1
 47 37 l 1
 49 37 l 1
 49 39 l 1
55 43 m 1
 53 43 l 1
 53 41 l 1
 55 41 l 1
 55 43 l 1
58 43 m 1
 56 43 l 1
 56 41 l 1
 57 41 l 1
 57 42 l 1
 58 42 l 1
 58 43 l 1
59 42 m 1
 58 42 l 1
 58 41 l 1
 60 41 l 1
 60 43 l 1
 59 43 l 1
 59 42 l 1
63 43 m 1
 61 43 l 1
 61 41 l 1
 63 41 l 1
 63 43 l 1
63 39 m 1
 61 39 l 1
 61 37 l 1
 63 37 l 1
 63 39 l 1
49 35 m 1
 47 35 l 1
 47 33 l 1
 49 33 l 1
 49 35 l 1
49 31 m 1
 47 31 l 1
 47 29 l 1
 49 29 l 1
 49 31 l 1
49 27 m 1
 47 27 l 1
 47 25 l 1
 49 25 l 1
 49 27 l 1
55 35 m 1
 53 35 l 1
 53 33 l 1
 55 33 l 1
 55 35 l 1
57 35 m 1
 56 35 l 1
 56 33 l 1
 58 33 l 1
 58 34 l 1
 57 34 l 1
 57 35 l 1
60 35 m 1
 58 35 l 1
 58 34 l 1
 59 34 l 1
 59 33 l 1
 60 33 l 1
 60 35 l 1
63 35 m 1
 61 35 l 1
 61 33 l 1
 63 33 l 1
 63 35 l 1
63 31 m 1
 61 31 l 1
 61 29 l 1
 63 29 l 1
 63 31 l 1
55 27 m 1
 53 27 l 1
 53 25 l 1
 55 25 l 1
 55 27 l 1
58 27 m 1
 56 27 l 1
 56 25 l 1
 57 25 l 1
 57 26 l 1
 58 26 l 1
 58 27 l 1
59 26 m 1
 58 26 l 1
 58 25 l 1
 60 25 l 1
 60 27 l 1
 59 27 l 1
 59 26 l 1
63 27 m 1
 61 27 l 1
 61 25 l 1
 63 25 l 1
 63 27 l 1
EndSplineSet
EndChar

StartChar: custom_1_3_0_3_2
Encoding: 23900 23900 3932
Width: 70
Flags: H
LayerCount: 2
Fore
SplineSet
17 43 m 1
 15 43 l 1
 15 41 l 1
 17 41 l 1
 17 43 l 1
17 39 m 1
 15 39 l 1
 15 37 l 1
 17 37 l 1
 17 39 l 1
23 43 m 1
 21 43 l 1
 21 41 l 1
 23 41 l 1
 23 43 l 1
23 39 m 1
 21 39 l 1
 21 37 l 1
 23 37 l 1
 23 39 l 1
31 43 m 1
 29 43 l 1
 29 41 l 1
 31 41 l 1
 31 43 l 1
31 39 m 1
 29 39 l 1
 29 37 l 1
 31 37 l 1
 31 39 l 1
17 35 m 1
 15 35 l 1
 15 33 l 1
 17 33 l 1
 17 35 l 1
17 31 m 1
 15 31 l 1
 15 29 l 1
 17 29 l 1
 17 31 l 1
17 27 m 1
 15 27 l 1
 15 25 l 1
 17 25 l 1
 17 27 l 1
23 35 m 1
 21 35 l 1
 21 33 l 1
 23 33 l 1
 23 35 l 1
25 35 m 1
 24 35 l 1
 24 33 l 1
 26 33 l 1
 26 34 l 1
 25 34 l 1
 25 35 l 1
28 35 m 1
 26 35 l 1
 26 34 l 1
 27 34 l 1
 27 33 l 1
 28 33 l 1
 28 35 l 1
31 35 m 1
 29 35 l 1
 29 33 l 1
 31 33 l 1
 31 35 l 1
36 37 m 1
 34 37 l 1
 34 35 l 1
 36 35 l 1
 36 37 l 1
31 31 m 1
 29 31 l 1
 29 29 l 1
 31 29 l 1
 31 31 l 1
36 33 m 1
 34 33 l 1
 34 31 l 1
 36 31 l 1
 36 33 l 1
31 27 m 1
 29 27 l 1
 29 25 l 1
 31 25 l 1
 31 27 l 1
49 43 m 1
 47 43 l 1
 47 41 l 1
 49 41 l 1
 49 43 l 1
49 39 m 1
 47 39 l 1
 47 37 l 1
 49 37 l 1
 49 39 l 1
55 43 m 1
 53 43 l 1
 53 41 l 1
 55 41 l 1
 55 43 l 1
58 43 m 1
 56 43 l 1
 56 41 l 1
 57 41 l 1
 57 42 l 1
 58 42 l 1
 58 43 l 1
59 42 m 1
 58 42 l 1
 58 41 l 1
 60 41 l 1
 60 43 l 1
 59 43 l 1
 59 42 l 1
63 43 m 1
 61 43 l 1
 61 41 l 1
 63 41 l 1
 63 43 l 1
63 39 m 1
 61 39 l 1
 61 37 l 1
 63 37 l 1
 63 39 l 1
49 35 m 1
 47 35 l 1
 47 33 l 1
 49 33 l 1
 49 35 l 1
49 31 m 1
 47 31 l 1
 47 29 l 1
 49 29 l 1
 49 31 l 1
49 27 m 1
 47 27 l 1
 47 25 l 1
 49 25 l 1
 49 27 l 1
55 35 m 1
 53 35 l 1
 53 33 l 1
 55 33 l 1
 55 35 l 1
57 35 m 1
 56 35 l 1
 56 33 l 1
 58 33 l 1
 58 34 l 1
 57 34 l 1
 57 35 l 1
60 35 m 1
 58 35 l 1
 58 34 l 1
 59 34 l 1
 59 33 l 1
 60 33 l 1
 60 35 l 1
63 35 m 1
 61 35 l 1
 61 33 l 1
 63 33 l 1
 63 35 l 1
63 31 m 1
 61 31 l 1
 61 29 l 1
 63 29 l 1
 63 31 l 1
55 27 m 1
 53 27 l 1
 53 25 l 1
 55 25 l 1
 55 27 l 1
58 27 m 1
 56 27 l 1
 56 25 l 1
 57 25 l 1
 57 26 l 1
 58 26 l 1
 58 27 l 1
59 26 m 1
 58 26 l 1
 58 25 l 1
 60 25 l 1
 60 27 l 1
 59 27 l 1
 59 26 l 1
63 27 m 1
 61 27 l 1
 61 25 l 1
 63 25 l 1
 63 27 l 1
EndSplineSet
EndChar

StartChar: custom_1_3_0_3_3
Encoding: 23901 23901 3933
Width: 70
Flags: H
LayerCount: 2
Fore
SplineSet
17 43 m 1
 15 43 l 1
 15 41 l 1
 17 41 l 1
 17 43 l 1
17 39 m 1
 15 39 l 1
 15 37 l 1
 17 37 l 1
 17 39 l 1
23 43 m 1
 21 43 l 1
 21 41 l 1
 23 41 l 1
 23 43 l 1
23 39 m 1
 21 39 l 1
 21 37 l 1
 23 37 l 1
 23 39 l 1
31 43 m 1
 29 43 l 1
 29 41 l 1
 31 41 l 1
 31 43 l 1
31 39 m 1
 29 39 l 1
 29 37 l 1
 31 37 l 1
 31 39 l 1
17 35 m 1
 15 35 l 1
 15 33 l 1
 17 33 l 1
 17 35 l 1
17 31 m 1
 15 31 l 1
 15 29 l 1
 17 29 l 1
 17 31 l 1
17 27 m 1
 15 27 l 1
 15 25 l 1
 17 25 l 1
 17 27 l 1
23 35 m 1
 21 35 l 1
 21 33 l 1
 23 33 l 1
 23 35 l 1
25 35 m 1
 24 35 l 1
 24 33 l 1
 26 33 l 1
 26 34 l 1
 25 34 l 1
 25 35 l 1
28 35 m 1
 26 35 l 1
 26 34 l 1
 27 34 l 1
 27 33 l 1
 28 33 l 1
 28 35 l 1
31 35 m 1
 29 35 l 1
 29 33 l 1
 31 33 l 1
 31 35 l 1
36 37 m 1
 34 37 l 1
 34 35 l 1
 36 35 l 1
 36 37 l 1
31 31 m 1
 29 31 l 1
 29 29 l 1
 31 29 l 1
 31 31 l 1
36 33 m 1
 34 33 l 1
 34 31 l 1
 36 31 l 1
 36 33 l 1
31 27 m 1
 29 27 l 1
 29 25 l 1
 31 25 l 1
 31 27 l 1
49 43 m 1
 47 43 l 1
 47 41 l 1
 49 41 l 1
 49 43 l 1
49 39 m 1
 47 39 l 1
 47 37 l 1
 49 37 l 1
 49 39 l 1
55 43 m 1
 53 43 l 1
 53 41 l 1
 55 41 l 1
 55 43 l 1
58 43 m 1
 56 43 l 1
 56 41 l 1
 57 41 l 1
 57 42 l 1
 58 42 l 1
 58 43 l 1
59 42 m 1
 58 42 l 1
 58 41 l 1
 60 41 l 1
 60 43 l 1
 59 43 l 1
 59 42 l 1
63 43 m 1
 61 43 l 1
 61 41 l 1
 63 41 l 1
 63 43 l 1
63 39 m 1
 61 39 l 1
 61 37 l 1
 63 37 l 1
 63 39 l 1
49 35 m 1
 47 35 l 1
 47 33 l 1
 49 33 l 1
 49 35 l 1
49 31 m 1
 47 31 l 1
 47 29 l 1
 49 29 l 1
 49 31 l 1
49 27 m 1
 47 27 l 1
 47 25 l 1
 49 25 l 1
 49 27 l 1
55 35 m 1
 53 35 l 1
 53 33 l 1
 55 33 l 1
 55 35 l 1
57 35 m 1
 56 35 l 1
 56 33 l 1
 58 33 l 1
 58 34 l 1
 57 34 l 1
 57 35 l 1
60 35 m 1
 58 35 l 1
 58 34 l 1
 59 34 l 1
 59 33 l 1
 60 33 l 1
 60 35 l 1
63 35 m 1
 61 35 l 1
 61 33 l 1
 63 33 l 1
 63 35 l 1
63 31 m 1
 61 31 l 1
 61 29 l 1
 63 29 l 1
 63 31 l 1
55 27 m 1
 53 27 l 1
 53 25 l 1
 55 25 l 1
 55 27 l 1
58 27 m 1
 56 27 l 1
 56 25 l 1
 57 25 l 1
 57 26 l 1
 58 26 l 1
 58 27 l 1
59 26 m 1
 58 26 l 1
 58 25 l 1
 60 25 l 1
 60 27 l 1
 59 27 l 1
 59 26 l 1
63 27 m 1
 61 27 l 1
 61 25 l 1
 63 25 l 1
 63 27 l 1
EndSplineSet
EndChar

StartChar: custom_1_3_0_3_4
Encoding: 23902 23902 3934
Width: 70
Flags: H
LayerCount: 2
Fore
SplineSet
17 43 m 1
 15 43 l 1
 15 41 l 1
 17 41 l 1
 17 43 l 1
17 39 m 1
 15 39 l 1
 15 37 l 1
 17 37 l 1
 17 39 l 1
23 43 m 1
 21 43 l 1
 21 41 l 1
 23 41 l 1
 23 43 l 1
23 39 m 1
 21 39 l 1
 21 37 l 1
 23 37 l 1
 23 39 l 1
31 43 m 1
 29 43 l 1
 29 41 l 1
 31 41 l 1
 31 43 l 1
31 39 m 1
 29 39 l 1
 29 37 l 1
 31 37 l 1
 31 39 l 1
17 35 m 1
 15 35 l 1
 15 33 l 1
 17 33 l 1
 17 35 l 1
17 31 m 1
 15 31 l 1
 15 29 l 1
 17 29 l 1
 17 31 l 1
17 27 m 1
 15 27 l 1
 15 25 l 1
 17 25 l 1
 17 27 l 1
23 35 m 1
 21 35 l 1
 21 33 l 1
 23 33 l 1
 23 35 l 1
25 35 m 1
 24 35 l 1
 24 33 l 1
 26 33 l 1
 26 34 l 1
 25 34 l 1
 25 35 l 1
28 35 m 1
 26 35 l 1
 26 34 l 1
 27 34 l 1
 27 33 l 1
 28 33 l 1
 28 35 l 1
31 35 m 1
 29 35 l 1
 29 33 l 1
 31 33 l 1
 31 35 l 1
36 37 m 1
 34 37 l 1
 34 35 l 1
 36 35 l 1
 36 37 l 1
31 31 m 1
 29 31 l 1
 29 29 l 1
 31 29 l 1
 31 31 l 1
36 33 m 1
 34 33 l 1
 34 31 l 1
 36 31 l 1
 36 33 l 1
31 27 m 1
 29 27 l 1
 29 25 l 1
 31 25 l 1
 31 27 l 1
49 43 m 1
 47 43 l 1
 47 41 l 1
 49 41 l 1
 49 43 l 1
49 39 m 1
 47 39 l 1
 47 37 l 1
 49 37 l 1
 49 39 l 1
55 43 m 1
 53 43 l 1
 53 41 l 1
 55 41 l 1
 55 43 l 1
58 43 m 1
 56 43 l 1
 56 41 l 1
 57 41 l 1
 57 42 l 1
 58 42 l 1
 58 43 l 1
59 42 m 1
 58 42 l 1
 58 41 l 1
 60 41 l 1
 60 43 l 1
 59 43 l 1
 59 42 l 1
63 43 m 1
 61 43 l 1
 61 41 l 1
 63 41 l 1
 63 43 l 1
63 39 m 1
 61 39 l 1
 61 37 l 1
 63 37 l 1
 63 39 l 1
49 35 m 1
 47 35 l 1
 47 33 l 1
 49 33 l 1
 49 35 l 1
49 31 m 1
 47 31 l 1
 47 29 l 1
 49 29 l 1
 49 31 l 1
49 27 m 1
 47 27 l 1
 47 25 l 1
 49 25 l 1
 49 27 l 1
55 35 m 1
 53 35 l 1
 53 33 l 1
 55 33 l 1
 55 35 l 1
57 35 m 1
 56 35 l 1
 56 33 l 1
 58 33 l 1
 58 34 l 1
 57 34 l 1
 57 35 l 1
60 35 m 1
 58 35 l 1
 58 34 l 1
 59 34 l 1
 59 33 l 1
 60 33 l 1
 60 35 l 1
63 35 m 1
 61 35 l 1
 61 33 l 1
 63 33 l 1
 63 35 l 1
63 31 m 1
 61 31 l 1
 61 29 l 1
 63 29 l 1
 63 31 l 1
55 27 m 1
 53 27 l 1
 53 25 l 1
 55 25 l 1
 55 27 l 1
58 27 m 1
 56 27 l 1
 56 25 l 1
 57 25 l 1
 57 26 l 1
 58 26 l 1
 58 27 l 1
59 26 m 1
 58 26 l 1
 58 25 l 1
 60 25 l 1
 60 27 l 1
 59 27 l 1
 59 26 l 1
63 27 m 1
 61 27 l 1
 61 25 l 1
 63 25 l 1
 63 27 l 1
EndSplineSet
EndChar

StartChar: custom_1_3_0_3_5
Encoding: 23903 23903 3935
Width: 70
Flags: H
LayerCount: 2
Fore
SplineSet
17 43 m 1
 15 43 l 1
 15 41 l 1
 17 41 l 1
 17 43 l 1
17 39 m 1
 15 39 l 1
 15 37 l 1
 17 37 l 1
 17 39 l 1
23 43 m 1
 21 43 l 1
 21 41 l 1
 23 41 l 1
 23 43 l 1
23 39 m 1
 21 39 l 1
 21 37 l 1
 23 37 l 1
 23 39 l 1
31 43 m 1
 29 43 l 1
 29 41 l 1
 31 41 l 1
 31 43 l 1
31 39 m 1
 29 39 l 1
 29 37 l 1
 31 37 l 1
 31 39 l 1
17 35 m 1
 15 35 l 1
 15 33 l 1
 17 33 l 1
 17 35 l 1
17 31 m 1
 15 31 l 1
 15 29 l 1
 17 29 l 1
 17 31 l 1
17 27 m 1
 15 27 l 1
 15 25 l 1
 17 25 l 1
 17 27 l 1
23 35 m 1
 21 35 l 1
 21 33 l 1
 23 33 l 1
 23 35 l 1
25 35 m 1
 24 35 l 1
 24 33 l 1
 26 33 l 1
 26 34 l 1
 25 34 l 1
 25 35 l 1
28 35 m 1
 26 35 l 1
 26 34 l 1
 27 34 l 1
 27 33 l 1
 28 33 l 1
 28 35 l 1
31 35 m 1
 29 35 l 1
 29 33 l 1
 31 33 l 1
 31 35 l 1
36 37 m 1
 34 37 l 1
 34 35 l 1
 36 35 l 1
 36 37 l 1
31 31 m 1
 29 31 l 1
 29 29 l 1
 31 29 l 1
 31 31 l 1
36 33 m 1
 34 33 l 1
 34 31 l 1
 36 31 l 1
 36 33 l 1
31 27 m 1
 29 27 l 1
 29 25 l 1
 31 25 l 1
 31 27 l 1
49 43 m 1
 47 43 l 1
 47 41 l 1
 49 41 l 1
 49 43 l 1
49 39 m 1
 47 39 l 1
 47 37 l 1
 49 37 l 1
 49 39 l 1
55 43 m 1
 53 43 l 1
 53 41 l 1
 55 41 l 1
 55 43 l 1
58 43 m 1
 56 43 l 1
 56 41 l 1
 57 41 l 1
 57 42 l 1
 58 42 l 1
 58 43 l 1
59 42 m 1
 58 42 l 1
 58 41 l 1
 60 41 l 1
 60 43 l 1
 59 43 l 1
 59 42 l 1
63 43 m 1
 61 43 l 1
 61 41 l 1
 63 41 l 1
 63 43 l 1
63 39 m 1
 61 39 l 1
 61 37 l 1
 63 37 l 1
 63 39 l 1
49 35 m 1
 47 35 l 1
 47 33 l 1
 49 33 l 1
 49 35 l 1
49 31 m 1
 47 31 l 1
 47 29 l 1
 49 29 l 1
 49 31 l 1
49 27 m 1
 47 27 l 1
 47 25 l 1
 49 25 l 1
 49 27 l 1
55 35 m 1
 53 35 l 1
 53 33 l 1
 55 33 l 1
 55 35 l 1
57 35 m 1
 56 35 l 1
 56 33 l 1
 58 33 l 1
 58 34 l 1
 57 34 l 1
 57 35 l 1
60 35 m 1
 58 35 l 1
 58 34 l 1
 59 34 l 1
 59 33 l 1
 60 33 l 1
 60 35 l 1
63 35 m 1
 61 35 l 1
 61 33 l 1
 63 33 l 1
 63 35 l 1
63 31 m 1
 61 31 l 1
 61 29 l 1
 63 29 l 1
 63 31 l 1
55 27 m 1
 53 27 l 1
 53 25 l 1
 55 25 l 1
 55 27 l 1
58 27 m 1
 56 27 l 1
 56 25 l 1
 57 25 l 1
 57 26 l 1
 58 26 l 1
 58 27 l 1
59 26 m 1
 58 26 l 1
 58 25 l 1
 60 25 l 1
 60 27 l 1
 59 27 l 1
 59 26 l 1
63 27 m 1
 61 27 l 1
 61 25 l 1
 63 25 l 1
 63 27 l 1
EndSplineSet
EndChar

StartChar: custom_1_3_0_3_6
Encoding: 23904 23904 3936
Width: 70
Flags: H
LayerCount: 2
Fore
SplineSet
17 43 m 1
 15 43 l 1
 15 41 l 1
 17 41 l 1
 17 43 l 1
17 39 m 1
 15 39 l 1
 15 37 l 1
 17 37 l 1
 17 39 l 1
23 43 m 1
 21 43 l 1
 21 41 l 1
 23 41 l 1
 23 43 l 1
23 39 m 1
 21 39 l 1
 21 37 l 1
 23 37 l 1
 23 39 l 1
31 43 m 1
 29 43 l 1
 29 41 l 1
 31 41 l 1
 31 43 l 1
31 39 m 1
 29 39 l 1
 29 37 l 1
 31 37 l 1
 31 39 l 1
17 35 m 1
 15 35 l 1
 15 33 l 1
 17 33 l 1
 17 35 l 1
17 31 m 1
 15 31 l 1
 15 29 l 1
 17 29 l 1
 17 31 l 1
17 27 m 1
 15 27 l 1
 15 25 l 1
 17 25 l 1
 17 27 l 1
23 35 m 1
 21 35 l 1
 21 33 l 1
 23 33 l 1
 23 35 l 1
25 35 m 1
 24 35 l 1
 24 33 l 1
 26 33 l 1
 26 34 l 1
 25 34 l 1
 25 35 l 1
28 35 m 1
 26 35 l 1
 26 34 l 1
 27 34 l 1
 27 33 l 1
 28 33 l 1
 28 35 l 1
31 35 m 1
 29 35 l 1
 29 33 l 1
 31 33 l 1
 31 35 l 1
36 37 m 1
 34 37 l 1
 34 35 l 1
 36 35 l 1
 36 37 l 1
31 31 m 1
 29 31 l 1
 29 29 l 1
 31 29 l 1
 31 31 l 1
36 33 m 1
 34 33 l 1
 34 31 l 1
 36 31 l 1
 36 33 l 1
31 27 m 1
 29 27 l 1
 29 25 l 1
 31 25 l 1
 31 27 l 1
49 43 m 1
 47 43 l 1
 47 41 l 1
 49 41 l 1
 49 43 l 1
49 39 m 1
 47 39 l 1
 47 37 l 1
 49 37 l 1
 49 39 l 1
55 43 m 1
 53 43 l 1
 53 41 l 1
 55 41 l 1
 55 43 l 1
58 43 m 1
 56 43 l 1
 56 41 l 1
 57 41 l 1
 57 42 l 1
 58 42 l 1
 58 43 l 1
59 42 m 1
 58 42 l 1
 58 41 l 1
 60 41 l 1
 60 43 l 1
 59 43 l 1
 59 42 l 1
63 43 m 1
 61 43 l 1
 61 41 l 1
 63 41 l 1
 63 43 l 1
63 39 m 1
 61 39 l 1
 61 37 l 1
 63 37 l 1
 63 39 l 1
49 35 m 1
 47 35 l 1
 47 33 l 1
 49 33 l 1
 49 35 l 1
49 31 m 1
 47 31 l 1
 47 29 l 1
 49 29 l 1
 49 31 l 1
49 27 m 1
 47 27 l 1
 47 25 l 1
 49 25 l 1
 49 27 l 1
55 35 m 1
 53 35 l 1
 53 33 l 1
 55 33 l 1
 55 35 l 1
57 35 m 1
 56 35 l 1
 56 33 l 1
 58 33 l 1
 58 34 l 1
 57 34 l 1
 57 35 l 1
60 35 m 1
 58 35 l 1
 58 34 l 1
 59 34 l 1
 59 33 l 1
 60 33 l 1
 60 35 l 1
63 35 m 1
 61 35 l 1
 61 33 l 1
 63 33 l 1
 63 35 l 1
63 31 m 1
 61 31 l 1
 61 29 l 1
 63 29 l 1
 63 31 l 1
55 27 m 1
 53 27 l 1
 53 25 l 1
 55 25 l 1
 55 27 l 1
58 27 m 1
 56 27 l 1
 56 25 l 1
 57 25 l 1
 57 26 l 1
 58 26 l 1
 58 27 l 1
59 26 m 1
 58 26 l 1
 58 25 l 1
 60 25 l 1
 60 27 l 1
 59 27 l 1
 59 26 l 1
63 27 m 1
 61 27 l 1
 61 25 l 1
 63 25 l 1
 63 27 l 1
EndSplineSet
EndChar

StartChar: custom_1_3_0_3_7
Encoding: 23905 23905 3937
Width: 70
Flags: H
LayerCount: 2
Fore
SplineSet
17 43 m 1
 15 43 l 1
 15 41 l 1
 17 41 l 1
 17 43 l 1
17 39 m 1
 15 39 l 1
 15 37 l 1
 17 37 l 1
 17 39 l 1
23 43 m 1
 21 43 l 1
 21 41 l 1
 23 41 l 1
 23 43 l 1
23 39 m 1
 21 39 l 1
 21 37 l 1
 23 37 l 1
 23 39 l 1
31 43 m 1
 29 43 l 1
 29 41 l 1
 31 41 l 1
 31 43 l 1
31 39 m 1
 29 39 l 1
 29 37 l 1
 31 37 l 1
 31 39 l 1
17 35 m 1
 15 35 l 1
 15 33 l 1
 17 33 l 1
 17 35 l 1
17 31 m 1
 15 31 l 1
 15 29 l 1
 17 29 l 1
 17 31 l 1
17 27 m 1
 15 27 l 1
 15 25 l 1
 17 25 l 1
 17 27 l 1
23 35 m 1
 21 35 l 1
 21 33 l 1
 23 33 l 1
 23 35 l 1
25 35 m 1
 24 35 l 1
 24 33 l 1
 26 33 l 1
 26 34 l 1
 25 34 l 1
 25 35 l 1
28 35 m 1
 26 35 l 1
 26 34 l 1
 27 34 l 1
 27 33 l 1
 28 33 l 1
 28 35 l 1
31 35 m 1
 29 35 l 1
 29 33 l 1
 31 33 l 1
 31 35 l 1
36 37 m 1
 34 37 l 1
 34 35 l 1
 36 35 l 1
 36 37 l 1
31 31 m 1
 29 31 l 1
 29 29 l 1
 31 29 l 1
 31 31 l 1
36 33 m 1
 34 33 l 1
 34 31 l 1
 36 31 l 1
 36 33 l 1
31 27 m 1
 29 27 l 1
 29 25 l 1
 31 25 l 1
 31 27 l 1
49 43 m 1
 47 43 l 1
 47 41 l 1
 49 41 l 1
 49 43 l 1
49 39 m 1
 47 39 l 1
 47 37 l 1
 49 37 l 1
 49 39 l 1
55 43 m 1
 53 43 l 1
 53 41 l 1
 55 41 l 1
 55 43 l 1
58 43 m 1
 56 43 l 1
 56 41 l 1
 57 41 l 1
 57 42 l 1
 58 42 l 1
 58 43 l 1
59 42 m 1
 58 42 l 1
 58 41 l 1
 60 41 l 1
 60 43 l 1
 59 43 l 1
 59 42 l 1
63 43 m 1
 61 43 l 1
 61 41 l 1
 63 41 l 1
 63 43 l 1
63 39 m 1
 61 39 l 1
 61 37 l 1
 63 37 l 1
 63 39 l 1
49 35 m 1
 47 35 l 1
 47 33 l 1
 49 33 l 1
 49 35 l 1
49 31 m 1
 47 31 l 1
 47 29 l 1
 49 29 l 1
 49 31 l 1
49 27 m 1
 47 27 l 1
 47 25 l 1
 49 25 l 1
 49 27 l 1
55 35 m 1
 53 35 l 1
 53 33 l 1
 55 33 l 1
 55 35 l 1
57 35 m 1
 56 35 l 1
 56 33 l 1
 58 33 l 1
 58 34 l 1
 57 34 l 1
 57 35 l 1
60 35 m 1
 58 35 l 1
 58 34 l 1
 59 34 l 1
 59 33 l 1
 60 33 l 1
 60 35 l 1
63 35 m 1
 61 35 l 1
 61 33 l 1
 63 33 l 1
 63 35 l 1
63 31 m 1
 61 31 l 1
 61 29 l 1
 63 29 l 1
 63 31 l 1
55 27 m 1
 53 27 l 1
 53 25 l 1
 55 25 l 1
 55 27 l 1
58 27 m 1
 56 27 l 1
 56 25 l 1
 57 25 l 1
 57 26 l 1
 58 26 l 1
 58 27 l 1
59 26 m 1
 58 26 l 1
 58 25 l 1
 60 25 l 1
 60 27 l 1
 59 27 l 1
 59 26 l 1
63 27 m 1
 61 27 l 1
 61 25 l 1
 63 25 l 1
 63 27 l 1
EndSplineSet
EndChar

StartChar: custom_1_3_0_3_8
Encoding: 23906 23906 3938
Width: 70
Flags: H
LayerCount: 2
Fore
SplineSet
17 43 m 1
 15 43 l 1
 15 41 l 1
 17 41 l 1
 17 43 l 1
17 39 m 1
 15 39 l 1
 15 37 l 1
 17 37 l 1
 17 39 l 1
23 43 m 1
 21 43 l 1
 21 41 l 1
 23 41 l 1
 23 43 l 1
23 39 m 1
 21 39 l 1
 21 37 l 1
 23 37 l 1
 23 39 l 1
31 43 m 1
 29 43 l 1
 29 41 l 1
 31 41 l 1
 31 43 l 1
31 39 m 1
 29 39 l 1
 29 37 l 1
 31 37 l 1
 31 39 l 1
17 35 m 1
 15 35 l 1
 15 33 l 1
 17 33 l 1
 17 35 l 1
17 31 m 1
 15 31 l 1
 15 29 l 1
 17 29 l 1
 17 31 l 1
17 27 m 1
 15 27 l 1
 15 25 l 1
 17 25 l 1
 17 27 l 1
23 35 m 1
 21 35 l 1
 21 33 l 1
 23 33 l 1
 23 35 l 1
25 35 m 1
 24 35 l 1
 24 33 l 1
 26 33 l 1
 26 34 l 1
 25 34 l 1
 25 35 l 1
28 35 m 1
 26 35 l 1
 26 34 l 1
 27 34 l 1
 27 33 l 1
 28 33 l 1
 28 35 l 1
31 35 m 1
 29 35 l 1
 29 33 l 1
 31 33 l 1
 31 35 l 1
36 37 m 1
 34 37 l 1
 34 35 l 1
 36 35 l 1
 36 37 l 1
31 31 m 1
 29 31 l 1
 29 29 l 1
 31 29 l 1
 31 31 l 1
36 33 m 1
 34 33 l 1
 34 31 l 1
 36 31 l 1
 36 33 l 1
31 27 m 1
 29 27 l 1
 29 25 l 1
 31 25 l 1
 31 27 l 1
49 43 m 1
 47 43 l 1
 47 41 l 1
 49 41 l 1
 49 43 l 1
49 39 m 1
 47 39 l 1
 47 37 l 1
 49 37 l 1
 49 39 l 1
55 43 m 1
 53 43 l 1
 53 41 l 1
 55 41 l 1
 55 43 l 1
58 43 m 1
 56 43 l 1
 56 41 l 1
 57 41 l 1
 57 42 l 1
 58 42 l 1
 58 43 l 1
59 42 m 1
 58 42 l 1
 58 41 l 1
 60 41 l 1
 60 43 l 1
 59 43 l 1
 59 42 l 1
63 43 m 1
 61 43 l 1
 61 41 l 1
 63 41 l 1
 63 43 l 1
63 39 m 1
 61 39 l 1
 61 37 l 1
 63 37 l 1
 63 39 l 1
49 35 m 1
 47 35 l 1
 47 33 l 1
 49 33 l 1
 49 35 l 1
49 31 m 1
 47 31 l 1
 47 29 l 1
 49 29 l 1
 49 31 l 1
49 27 m 1
 47 27 l 1
 47 25 l 1
 49 25 l 1
 49 27 l 1
55 35 m 1
 53 35 l 1
 53 33 l 1
 55 33 l 1
 55 35 l 1
57 35 m 1
 56 35 l 1
 56 33 l 1
 58 33 l 1
 58 34 l 1
 57 34 l 1
 57 35 l 1
60 35 m 1
 58 35 l 1
 58 34 l 1
 59 34 l 1
 59 33 l 1
 60 33 l 1
 60 35 l 1
63 35 m 1
 61 35 l 1
 61 33 l 1
 63 33 l 1
 63 35 l 1
63 31 m 1
 61 31 l 1
 61 29 l 1
 63 29 l 1
 63 31 l 1
55 27 m 1
 53 27 l 1
 53 25 l 1
 55 25 l 1
 55 27 l 1
58 27 m 1
 56 27 l 1
 56 25 l 1
 57 25 l 1
 57 26 l 1
 58 26 l 1
 58 27 l 1
59 26 m 1
 58 26 l 1
 58 25 l 1
 60 25 l 1
 60 27 l 1
 59 27 l 1
 59 26 l 1
63 27 m 1
 61 27 l 1
 61 25 l 1
 63 25 l 1
 63 27 l 1
EndSplineSet
EndChar

StartChar: custom_1_3_0_3_9
Encoding: 23907 23907 3939
Width: 70
Flags: H
LayerCount: 2
Fore
SplineSet
17 43 m 1
 15 43 l 1
 15 41 l 1
 17 41 l 1
 17 43 l 1
17 39 m 1
 15 39 l 1
 15 37 l 1
 17 37 l 1
 17 39 l 1
23 43 m 1
 21 43 l 1
 21 41 l 1
 23 41 l 1
 23 43 l 1
23 39 m 1
 21 39 l 1
 21 37 l 1
 23 37 l 1
 23 39 l 1
31 43 m 1
 29 43 l 1
 29 41 l 1
 31 41 l 1
 31 43 l 1
31 39 m 1
 29 39 l 1
 29 37 l 1
 31 37 l 1
 31 39 l 1
17 35 m 1
 15 35 l 1
 15 33 l 1
 17 33 l 1
 17 35 l 1
17 31 m 1
 15 31 l 1
 15 29 l 1
 17 29 l 1
 17 31 l 1
17 27 m 1
 15 27 l 1
 15 25 l 1
 17 25 l 1
 17 27 l 1
23 35 m 1
 21 35 l 1
 21 33 l 1
 23 33 l 1
 23 35 l 1
25 35 m 1
 24 35 l 1
 24 33 l 1
 26 33 l 1
 26 34 l 1
 25 34 l 1
 25 35 l 1
28 35 m 1
 26 35 l 1
 26 34 l 1
 27 34 l 1
 27 33 l 1
 28 33 l 1
 28 35 l 1
31 35 m 1
 29 35 l 1
 29 33 l 1
 31 33 l 1
 31 35 l 1
36 37 m 1
 34 37 l 1
 34 35 l 1
 36 35 l 1
 36 37 l 1
31 31 m 1
 29 31 l 1
 29 29 l 1
 31 29 l 1
 31 31 l 1
36 33 m 1
 34 33 l 1
 34 31 l 1
 36 31 l 1
 36 33 l 1
31 27 m 1
 29 27 l 1
 29 25 l 1
 31 25 l 1
 31 27 l 1
49 43 m 1
 47 43 l 1
 47 41 l 1
 49 41 l 1
 49 43 l 1
49 39 m 1
 47 39 l 1
 47 37 l 1
 49 37 l 1
 49 39 l 1
55 43 m 1
 53 43 l 1
 53 41 l 1
 55 41 l 1
 55 43 l 1
58 43 m 1
 56 43 l 1
 56 41 l 1
 57 41 l 1
 57 42 l 1
 58 42 l 1
 58 43 l 1
59 42 m 1
 58 42 l 1
 58 41 l 1
 60 41 l 1
 60 43 l 1
 59 43 l 1
 59 42 l 1
63 43 m 1
 61 43 l 1
 61 41 l 1
 63 41 l 1
 63 43 l 1
63 39 m 1
 61 39 l 1
 61 37 l 1
 63 37 l 1
 63 39 l 1
49 35 m 1
 47 35 l 1
 47 33 l 1
 49 33 l 1
 49 35 l 1
49 31 m 1
 47 31 l 1
 47 29 l 1
 49 29 l 1
 49 31 l 1
49 27 m 1
 47 27 l 1
 47 25 l 1
 49 25 l 1
 49 27 l 1
55 35 m 1
 53 35 l 1
 53 33 l 1
 55 33 l 1
 55 35 l 1
57 35 m 1
 56 35 l 1
 56 33 l 1
 58 33 l 1
 58 34 l 1
 57 34 l 1
 57 35 l 1
60 35 m 1
 58 35 l 1
 58 34 l 1
 59 34 l 1
 59 33 l 1
 60 33 l 1
 60 35 l 1
63 35 m 1
 61 35 l 1
 61 33 l 1
 63 33 l 1
 63 35 l 1
63 31 m 1
 61 31 l 1
 61 29 l 1
 63 29 l 1
 63 31 l 1
55 27 m 1
 53 27 l 1
 53 25 l 1
 55 25 l 1
 55 27 l 1
58 27 m 1
 56 27 l 1
 56 25 l 1
 57 25 l 1
 57 26 l 1
 58 26 l 1
 58 27 l 1
59 26 m 1
 58 26 l 1
 58 25 l 1
 60 25 l 1
 60 27 l 1
 59 27 l 1
 59 26 l 1
63 27 m 1
 61 27 l 1
 61 25 l 1
 63 25 l 1
 63 27 l 1
EndSplineSet
EndChar

StartChar: custom_1_3_0_4_0
Encoding: 23908 23908 3940
Width: 70
Flags: H
LayerCount: 2
Fore
SplineSet
17 43 m 1
 15 43 l 1
 15 41 l 1
 17 41 l 1
 17 43 l 1
17 39 m 1
 15 39 l 1
 15 37 l 1
 17 37 l 1
 17 39 l 1
23 43 m 1
 21 43 l 1
 21 41 l 1
 23 41 l 1
 23 43 l 1
23 39 m 1
 21 39 l 1
 21 37 l 1
 23 37 l 1
 23 39 l 1
31 43 m 1
 29 43 l 1
 29 41 l 1
 31 41 l 1
 31 43 l 1
31 39 m 1
 29 39 l 1
 29 37 l 1
 31 37 l 1
 31 39 l 1
17 35 m 1
 15 35 l 1
 15 33 l 1
 17 33 l 1
 17 35 l 1
17 31 m 1
 15 31 l 1
 15 29 l 1
 17 29 l 1
 17 31 l 1
17 27 m 1
 15 27 l 1
 15 25 l 1
 17 25 l 1
 17 27 l 1
23 35 m 1
 21 35 l 1
 21 33 l 1
 23 33 l 1
 23 35 l 1
25 35 m 1
 24 35 l 1
 24 33 l 1
 26 33 l 1
 26 34 l 1
 25 34 l 1
 25 35 l 1
28 35 m 1
 26 35 l 1
 26 34 l 1
 27 34 l 1
 27 33 l 1
 28 33 l 1
 28 35 l 1
31 35 m 1
 29 35 l 1
 29 33 l 1
 31 33 l 1
 31 35 l 1
36 37 m 1
 34 37 l 1
 34 35 l 1
 36 35 l 1
 36 37 l 1
31 31 m 1
 29 31 l 1
 29 29 l 1
 31 29 l 1
 31 31 l 1
36 33 m 1
 34 33 l 1
 34 31 l 1
 36 31 l 1
 36 33 l 1
31 27 m 1
 29 27 l 1
 29 25 l 1
 31 25 l 1
 31 27 l 1
49 43 m 1
 47 43 l 1
 47 41 l 1
 49 41 l 1
 49 43 l 1
49 39 m 1
 47 39 l 1
 47 37 l 1
 49 37 l 1
 49 39 l 1
55 43 m 1
 53 43 l 1
 53 41 l 1
 55 41 l 1
 55 43 l 1
58 43 m 1
 56 43 l 1
 56 41 l 1
 57 41 l 1
 57 42 l 1
 58 42 l 1
 58 43 l 1
59 42 m 1
 58 42 l 1
 58 41 l 1
 60 41 l 1
 60 43 l 1
 59 43 l 1
 59 42 l 1
63 43 m 1
 61 43 l 1
 61 41 l 1
 63 41 l 1
 63 43 l 1
63 39 m 1
 61 39 l 1
 61 37 l 1
 63 37 l 1
 63 39 l 1
49 35 m 1
 47 35 l 1
 47 33 l 1
 49 33 l 1
 49 35 l 1
49 31 m 1
 47 31 l 1
 47 29 l 1
 49 29 l 1
 49 31 l 1
49 27 m 1
 47 27 l 1
 47 25 l 1
 49 25 l 1
 49 27 l 1
55 35 m 1
 53 35 l 1
 53 33 l 1
 55 33 l 1
 55 35 l 1
57 35 m 1
 56 35 l 1
 56 33 l 1
 58 33 l 1
 58 34 l 1
 57 34 l 1
 57 35 l 1
60 35 m 1
 58 35 l 1
 58 34 l 1
 59 34 l 1
 59 33 l 1
 60 33 l 1
 60 35 l 1
63 35 m 1
 61 35 l 1
 61 33 l 1
 63 33 l 1
 63 35 l 1
63 31 m 1
 61 31 l 1
 61 29 l 1
 63 29 l 1
 63 31 l 1
55 27 m 1
 53 27 l 1
 53 25 l 1
 55 25 l 1
 55 27 l 1
58 27 m 1
 56 27 l 1
 56 25 l 1
 57 25 l 1
 57 26 l 1
 58 26 l 1
 58 27 l 1
59 26 m 1
 58 26 l 1
 58 25 l 1
 60 25 l 1
 60 27 l 1
 59 27 l 1
 59 26 l 1
63 27 m 1
 61 27 l 1
 61 25 l 1
 63 25 l 1
 63 27 l 1
EndSplineSet
EndChar

StartChar: custom_1_3_0_4_1
Encoding: 23909 23909 3941
Width: 70
Flags: H
LayerCount: 2
Fore
SplineSet
17 43 m 1
 15 43 l 1
 15 41 l 1
 17 41 l 1
 17 43 l 1
17 39 m 1
 15 39 l 1
 15 37 l 1
 17 37 l 1
 17 39 l 1
23 43 m 1
 21 43 l 1
 21 41 l 1
 23 41 l 1
 23 43 l 1
23 39 m 1
 21 39 l 1
 21 37 l 1
 23 37 l 1
 23 39 l 1
31 43 m 1
 29 43 l 1
 29 41 l 1
 31 41 l 1
 31 43 l 1
31 39 m 1
 29 39 l 1
 29 37 l 1
 31 37 l 1
 31 39 l 1
17 35 m 1
 15 35 l 1
 15 33 l 1
 17 33 l 1
 17 35 l 1
17 31 m 1
 15 31 l 1
 15 29 l 1
 17 29 l 1
 17 31 l 1
17 27 m 1
 15 27 l 1
 15 25 l 1
 17 25 l 1
 17 27 l 1
23 35 m 1
 21 35 l 1
 21 33 l 1
 23 33 l 1
 23 35 l 1
25 35 m 1
 24 35 l 1
 24 33 l 1
 26 33 l 1
 26 34 l 1
 25 34 l 1
 25 35 l 1
28 35 m 1
 26 35 l 1
 26 34 l 1
 27 34 l 1
 27 33 l 1
 28 33 l 1
 28 35 l 1
31 35 m 1
 29 35 l 1
 29 33 l 1
 31 33 l 1
 31 35 l 1
36 37 m 1
 34 37 l 1
 34 35 l 1
 36 35 l 1
 36 37 l 1
31 31 m 1
 29 31 l 1
 29 29 l 1
 31 29 l 1
 31 31 l 1
36 33 m 1
 34 33 l 1
 34 31 l 1
 36 31 l 1
 36 33 l 1
31 27 m 1
 29 27 l 1
 29 25 l 1
 31 25 l 1
 31 27 l 1
49 43 m 1
 47 43 l 1
 47 41 l 1
 49 41 l 1
 49 43 l 1
49 39 m 1
 47 39 l 1
 47 37 l 1
 49 37 l 1
 49 39 l 1
55 43 m 1
 53 43 l 1
 53 41 l 1
 55 41 l 1
 55 43 l 1
58 43 m 1
 56 43 l 1
 56 41 l 1
 57 41 l 1
 57 42 l 1
 58 42 l 1
 58 43 l 1
59 42 m 1
 58 42 l 1
 58 41 l 1
 60 41 l 1
 60 43 l 1
 59 43 l 1
 59 42 l 1
63 43 m 1
 61 43 l 1
 61 41 l 1
 63 41 l 1
 63 43 l 1
63 39 m 1
 61 39 l 1
 61 37 l 1
 63 37 l 1
 63 39 l 1
49 35 m 1
 47 35 l 1
 47 33 l 1
 49 33 l 1
 49 35 l 1
49 31 m 1
 47 31 l 1
 47 29 l 1
 49 29 l 1
 49 31 l 1
49 27 m 1
 47 27 l 1
 47 25 l 1
 49 25 l 1
 49 27 l 1
55 35 m 1
 53 35 l 1
 53 33 l 1
 55 33 l 1
 55 35 l 1
57 35 m 1
 56 35 l 1
 56 33 l 1
 58 33 l 1
 58 34 l 1
 57 34 l 1
 57 35 l 1
60 35 m 1
 58 35 l 1
 58 34 l 1
 59 34 l 1
 59 33 l 1
 60 33 l 1
 60 35 l 1
63 35 m 1
 61 35 l 1
 61 33 l 1
 63 33 l 1
 63 35 l 1
63 31 m 1
 61 31 l 1
 61 29 l 1
 63 29 l 1
 63 31 l 1
55 27 m 1
 53 27 l 1
 53 25 l 1
 55 25 l 1
 55 27 l 1
58 27 m 1
 56 27 l 1
 56 25 l 1
 57 25 l 1
 57 26 l 1
 58 26 l 1
 58 27 l 1
59 26 m 1
 58 26 l 1
 58 25 l 1
 60 25 l 1
 60 27 l 1
 59 27 l 1
 59 26 l 1
63 27 m 1
 61 27 l 1
 61 25 l 1
 63 25 l 1
 63 27 l 1
EndSplineSet
EndChar

StartChar: custom_1_3_0_4_2
Encoding: 23910 23910 3942
Width: 70
Flags: H
LayerCount: 2
Fore
SplineSet
17 43 m 1
 15 43 l 1
 15 41 l 1
 17 41 l 1
 17 43 l 1
17 39 m 1
 15 39 l 1
 15 37 l 1
 17 37 l 1
 17 39 l 1
23 43 m 1
 21 43 l 1
 21 41 l 1
 23 41 l 1
 23 43 l 1
23 39 m 1
 21 39 l 1
 21 37 l 1
 23 37 l 1
 23 39 l 1
31 43 m 1
 29 43 l 1
 29 41 l 1
 31 41 l 1
 31 43 l 1
31 39 m 1
 29 39 l 1
 29 37 l 1
 31 37 l 1
 31 39 l 1
17 35 m 1
 15 35 l 1
 15 33 l 1
 17 33 l 1
 17 35 l 1
17 31 m 1
 15 31 l 1
 15 29 l 1
 17 29 l 1
 17 31 l 1
17 27 m 1
 15 27 l 1
 15 25 l 1
 17 25 l 1
 17 27 l 1
23 35 m 1
 21 35 l 1
 21 33 l 1
 23 33 l 1
 23 35 l 1
25 35 m 1
 24 35 l 1
 24 33 l 1
 26 33 l 1
 26 34 l 1
 25 34 l 1
 25 35 l 1
28 35 m 1
 26 35 l 1
 26 34 l 1
 27 34 l 1
 27 33 l 1
 28 33 l 1
 28 35 l 1
31 35 m 1
 29 35 l 1
 29 33 l 1
 31 33 l 1
 31 35 l 1
36 37 m 1
 34 37 l 1
 34 35 l 1
 36 35 l 1
 36 37 l 1
31 31 m 1
 29 31 l 1
 29 29 l 1
 31 29 l 1
 31 31 l 1
36 33 m 1
 34 33 l 1
 34 31 l 1
 36 31 l 1
 36 33 l 1
31 27 m 1
 29 27 l 1
 29 25 l 1
 31 25 l 1
 31 27 l 1
49 43 m 1
 47 43 l 1
 47 41 l 1
 49 41 l 1
 49 43 l 1
49 39 m 1
 47 39 l 1
 47 37 l 1
 49 37 l 1
 49 39 l 1
55 43 m 1
 53 43 l 1
 53 41 l 1
 55 41 l 1
 55 43 l 1
58 43 m 1
 56 43 l 1
 56 41 l 1
 57 41 l 1
 57 42 l 1
 58 42 l 1
 58 43 l 1
59 42 m 1
 58 42 l 1
 58 41 l 1
 60 41 l 1
 60 43 l 1
 59 43 l 1
 59 42 l 1
63 43 m 1
 61 43 l 1
 61 41 l 1
 63 41 l 1
 63 43 l 1
63 39 m 1
 61 39 l 1
 61 37 l 1
 63 37 l 1
 63 39 l 1
49 35 m 1
 47 35 l 1
 47 33 l 1
 49 33 l 1
 49 35 l 1
49 31 m 1
 47 31 l 1
 47 29 l 1
 49 29 l 1
 49 31 l 1
49 27 m 1
 47 27 l 1
 47 25 l 1
 49 25 l 1
 49 27 l 1
55 35 m 1
 53 35 l 1
 53 33 l 1
 55 33 l 1
 55 35 l 1
57 35 m 1
 56 35 l 1
 56 33 l 1
 58 33 l 1
 58 34 l 1
 57 34 l 1
 57 35 l 1
60 35 m 1
 58 35 l 1
 58 34 l 1
 59 34 l 1
 59 33 l 1
 60 33 l 1
 60 35 l 1
63 35 m 1
 61 35 l 1
 61 33 l 1
 63 33 l 1
 63 35 l 1
63 31 m 1
 61 31 l 1
 61 29 l 1
 63 29 l 1
 63 31 l 1
55 27 m 1
 53 27 l 1
 53 25 l 1
 55 25 l 1
 55 27 l 1
58 27 m 1
 56 27 l 1
 56 25 l 1
 57 25 l 1
 57 26 l 1
 58 26 l 1
 58 27 l 1
59 26 m 1
 58 26 l 1
 58 25 l 1
 60 25 l 1
 60 27 l 1
 59 27 l 1
 59 26 l 1
63 27 m 1
 61 27 l 1
 61 25 l 1
 63 25 l 1
 63 27 l 1
EndSplineSet
EndChar

StartChar: custom_1_3_0_4_3
Encoding: 23911 23911 3943
Width: 70
Flags: H
LayerCount: 2
Fore
SplineSet
17 43 m 1
 15 43 l 1
 15 41 l 1
 17 41 l 1
 17 43 l 1
17 39 m 1
 15 39 l 1
 15 37 l 1
 17 37 l 1
 17 39 l 1
23 43 m 1
 21 43 l 1
 21 41 l 1
 23 41 l 1
 23 43 l 1
23 39 m 1
 21 39 l 1
 21 37 l 1
 23 37 l 1
 23 39 l 1
31 43 m 1
 29 43 l 1
 29 41 l 1
 31 41 l 1
 31 43 l 1
31 39 m 1
 29 39 l 1
 29 37 l 1
 31 37 l 1
 31 39 l 1
17 35 m 1
 15 35 l 1
 15 33 l 1
 17 33 l 1
 17 35 l 1
17 31 m 1
 15 31 l 1
 15 29 l 1
 17 29 l 1
 17 31 l 1
17 27 m 1
 15 27 l 1
 15 25 l 1
 17 25 l 1
 17 27 l 1
23 35 m 1
 21 35 l 1
 21 33 l 1
 23 33 l 1
 23 35 l 1
25 35 m 1
 24 35 l 1
 24 33 l 1
 26 33 l 1
 26 34 l 1
 25 34 l 1
 25 35 l 1
28 35 m 1
 26 35 l 1
 26 34 l 1
 27 34 l 1
 27 33 l 1
 28 33 l 1
 28 35 l 1
31 35 m 1
 29 35 l 1
 29 33 l 1
 31 33 l 1
 31 35 l 1
36 37 m 1
 34 37 l 1
 34 35 l 1
 36 35 l 1
 36 37 l 1
31 31 m 1
 29 31 l 1
 29 29 l 1
 31 29 l 1
 31 31 l 1
36 33 m 1
 34 33 l 1
 34 31 l 1
 36 31 l 1
 36 33 l 1
31 27 m 1
 29 27 l 1
 29 25 l 1
 31 25 l 1
 31 27 l 1
49 43 m 1
 47 43 l 1
 47 41 l 1
 49 41 l 1
 49 43 l 1
49 39 m 1
 47 39 l 1
 47 37 l 1
 49 37 l 1
 49 39 l 1
55 43 m 1
 53 43 l 1
 53 41 l 1
 55 41 l 1
 55 43 l 1
58 43 m 1
 56 43 l 1
 56 41 l 1
 57 41 l 1
 57 42 l 1
 58 42 l 1
 58 43 l 1
59 42 m 1
 58 42 l 1
 58 41 l 1
 60 41 l 1
 60 43 l 1
 59 43 l 1
 59 42 l 1
63 43 m 1
 61 43 l 1
 61 41 l 1
 63 41 l 1
 63 43 l 1
63 39 m 1
 61 39 l 1
 61 37 l 1
 63 37 l 1
 63 39 l 1
49 35 m 1
 47 35 l 1
 47 33 l 1
 49 33 l 1
 49 35 l 1
49 31 m 1
 47 31 l 1
 47 29 l 1
 49 29 l 1
 49 31 l 1
49 27 m 1
 47 27 l 1
 47 25 l 1
 49 25 l 1
 49 27 l 1
55 35 m 1
 53 35 l 1
 53 33 l 1
 55 33 l 1
 55 35 l 1
57 35 m 1
 56 35 l 1
 56 33 l 1
 58 33 l 1
 58 34 l 1
 57 34 l 1
 57 35 l 1
60 35 m 1
 58 35 l 1
 58 34 l 1
 59 34 l 1
 59 33 l 1
 60 33 l 1
 60 35 l 1
63 35 m 1
 61 35 l 1
 61 33 l 1
 63 33 l 1
 63 35 l 1
63 31 m 1
 61 31 l 1
 61 29 l 1
 63 29 l 1
 63 31 l 1
55 27 m 1
 53 27 l 1
 53 25 l 1
 55 25 l 1
 55 27 l 1
58 27 m 1
 56 27 l 1
 56 25 l 1
 57 25 l 1
 57 26 l 1
 58 26 l 1
 58 27 l 1
59 26 m 1
 58 26 l 1
 58 25 l 1
 60 25 l 1
 60 27 l 1
 59 27 l 1
 59 26 l 1
63 27 m 1
 61 27 l 1
 61 25 l 1
 63 25 l 1
 63 27 l 1
EndSplineSet
EndChar

StartChar: custom_1_3_0_4_4
Encoding: 23912 23912 3944
Width: 70
Flags: H
LayerCount: 2
Fore
SplineSet
17 43 m 1
 15 43 l 1
 15 41 l 1
 17 41 l 1
 17 43 l 1
17 39 m 1
 15 39 l 1
 15 37 l 1
 17 37 l 1
 17 39 l 1
23 43 m 1
 21 43 l 1
 21 41 l 1
 23 41 l 1
 23 43 l 1
23 39 m 1
 21 39 l 1
 21 37 l 1
 23 37 l 1
 23 39 l 1
31 43 m 1
 29 43 l 1
 29 41 l 1
 31 41 l 1
 31 43 l 1
31 39 m 1
 29 39 l 1
 29 37 l 1
 31 37 l 1
 31 39 l 1
17 35 m 1
 15 35 l 1
 15 33 l 1
 17 33 l 1
 17 35 l 1
17 31 m 1
 15 31 l 1
 15 29 l 1
 17 29 l 1
 17 31 l 1
17 27 m 1
 15 27 l 1
 15 25 l 1
 17 25 l 1
 17 27 l 1
23 35 m 1
 21 35 l 1
 21 33 l 1
 23 33 l 1
 23 35 l 1
25 35 m 1
 24 35 l 1
 24 33 l 1
 26 33 l 1
 26 34 l 1
 25 34 l 1
 25 35 l 1
28 35 m 1
 26 35 l 1
 26 34 l 1
 27 34 l 1
 27 33 l 1
 28 33 l 1
 28 35 l 1
31 35 m 1
 29 35 l 1
 29 33 l 1
 31 33 l 1
 31 35 l 1
36 37 m 1
 34 37 l 1
 34 35 l 1
 36 35 l 1
 36 37 l 1
31 31 m 1
 29 31 l 1
 29 29 l 1
 31 29 l 1
 31 31 l 1
36 33 m 1
 34 33 l 1
 34 31 l 1
 36 31 l 1
 36 33 l 1
31 27 m 1
 29 27 l 1
 29 25 l 1
 31 25 l 1
 31 27 l 1
49 43 m 1
 47 43 l 1
 47 41 l 1
 49 41 l 1
 49 43 l 1
49 39 m 1
 47 39 l 1
 47 37 l 1
 49 37 l 1
 49 39 l 1
55 43 m 1
 53 43 l 1
 53 41 l 1
 55 41 l 1
 55 43 l 1
58 43 m 1
 56 43 l 1
 56 41 l 1
 57 41 l 1
 57 42 l 1
 58 42 l 1
 58 43 l 1
59 42 m 1
 58 42 l 1
 58 41 l 1
 60 41 l 1
 60 43 l 1
 59 43 l 1
 59 42 l 1
63 43 m 1
 61 43 l 1
 61 41 l 1
 63 41 l 1
 63 43 l 1
63 39 m 1
 61 39 l 1
 61 37 l 1
 63 37 l 1
 63 39 l 1
49 35 m 1
 47 35 l 1
 47 33 l 1
 49 33 l 1
 49 35 l 1
49 31 m 1
 47 31 l 1
 47 29 l 1
 49 29 l 1
 49 31 l 1
49 27 m 1
 47 27 l 1
 47 25 l 1
 49 25 l 1
 49 27 l 1
55 35 m 1
 53 35 l 1
 53 33 l 1
 55 33 l 1
 55 35 l 1
57 35 m 1
 56 35 l 1
 56 33 l 1
 58 33 l 1
 58 34 l 1
 57 34 l 1
 57 35 l 1
60 35 m 1
 58 35 l 1
 58 34 l 1
 59 34 l 1
 59 33 l 1
 60 33 l 1
 60 35 l 1
63 35 m 1
 61 35 l 1
 61 33 l 1
 63 33 l 1
 63 35 l 1
63 31 m 1
 61 31 l 1
 61 29 l 1
 63 29 l 1
 63 31 l 1
55 27 m 1
 53 27 l 1
 53 25 l 1
 55 25 l 1
 55 27 l 1
58 27 m 1
 56 27 l 1
 56 25 l 1
 57 25 l 1
 57 26 l 1
 58 26 l 1
 58 27 l 1
59 26 m 1
 58 26 l 1
 58 25 l 1
 60 25 l 1
 60 27 l 1
 59 27 l 1
 59 26 l 1
63 27 m 1
 61 27 l 1
 61 25 l 1
 63 25 l 1
 63 27 l 1
EndSplineSet
EndChar

StartChar: custom_1_3_0_4_5
Encoding: 23913 23913 3945
Width: 70
Flags: H
LayerCount: 2
Fore
SplineSet
17 43 m 1
 15 43 l 1
 15 41 l 1
 17 41 l 1
 17 43 l 1
17 39 m 1
 15 39 l 1
 15 37 l 1
 17 37 l 1
 17 39 l 1
23 43 m 1
 21 43 l 1
 21 41 l 1
 23 41 l 1
 23 43 l 1
23 39 m 1
 21 39 l 1
 21 37 l 1
 23 37 l 1
 23 39 l 1
31 43 m 1
 29 43 l 1
 29 41 l 1
 31 41 l 1
 31 43 l 1
31 39 m 1
 29 39 l 1
 29 37 l 1
 31 37 l 1
 31 39 l 1
17 35 m 1
 15 35 l 1
 15 33 l 1
 17 33 l 1
 17 35 l 1
17 31 m 1
 15 31 l 1
 15 29 l 1
 17 29 l 1
 17 31 l 1
17 27 m 1
 15 27 l 1
 15 25 l 1
 17 25 l 1
 17 27 l 1
23 35 m 1
 21 35 l 1
 21 33 l 1
 23 33 l 1
 23 35 l 1
25 35 m 1
 24 35 l 1
 24 33 l 1
 26 33 l 1
 26 34 l 1
 25 34 l 1
 25 35 l 1
28 35 m 1
 26 35 l 1
 26 34 l 1
 27 34 l 1
 27 33 l 1
 28 33 l 1
 28 35 l 1
31 35 m 1
 29 35 l 1
 29 33 l 1
 31 33 l 1
 31 35 l 1
36 37 m 1
 34 37 l 1
 34 35 l 1
 36 35 l 1
 36 37 l 1
31 31 m 1
 29 31 l 1
 29 29 l 1
 31 29 l 1
 31 31 l 1
36 33 m 1
 34 33 l 1
 34 31 l 1
 36 31 l 1
 36 33 l 1
31 27 m 1
 29 27 l 1
 29 25 l 1
 31 25 l 1
 31 27 l 1
49 43 m 1
 47 43 l 1
 47 41 l 1
 49 41 l 1
 49 43 l 1
49 39 m 1
 47 39 l 1
 47 37 l 1
 49 37 l 1
 49 39 l 1
55 43 m 1
 53 43 l 1
 53 41 l 1
 55 41 l 1
 55 43 l 1
58 43 m 1
 56 43 l 1
 56 41 l 1
 57 41 l 1
 57 42 l 1
 58 42 l 1
 58 43 l 1
59 42 m 1
 58 42 l 1
 58 41 l 1
 60 41 l 1
 60 43 l 1
 59 43 l 1
 59 42 l 1
63 43 m 1
 61 43 l 1
 61 41 l 1
 63 41 l 1
 63 43 l 1
63 39 m 1
 61 39 l 1
 61 37 l 1
 63 37 l 1
 63 39 l 1
49 35 m 1
 47 35 l 1
 47 33 l 1
 49 33 l 1
 49 35 l 1
49 31 m 1
 47 31 l 1
 47 29 l 1
 49 29 l 1
 49 31 l 1
49 27 m 1
 47 27 l 1
 47 25 l 1
 49 25 l 1
 49 27 l 1
55 35 m 1
 53 35 l 1
 53 33 l 1
 55 33 l 1
 55 35 l 1
57 35 m 1
 56 35 l 1
 56 33 l 1
 58 33 l 1
 58 34 l 1
 57 34 l 1
 57 35 l 1
60 35 m 1
 58 35 l 1
 58 34 l 1
 59 34 l 1
 59 33 l 1
 60 33 l 1
 60 35 l 1
63 35 m 1
 61 35 l 1
 61 33 l 1
 63 33 l 1
 63 35 l 1
63 31 m 1
 61 31 l 1
 61 29 l 1
 63 29 l 1
 63 31 l 1
55 27 m 1
 53 27 l 1
 53 25 l 1
 55 25 l 1
 55 27 l 1
58 27 m 1
 56 27 l 1
 56 25 l 1
 57 25 l 1
 57 26 l 1
 58 26 l 1
 58 27 l 1
59 26 m 1
 58 26 l 1
 58 25 l 1
 60 25 l 1
 60 27 l 1
 59 27 l 1
 59 26 l 1
63 27 m 1
 61 27 l 1
 61 25 l 1
 63 25 l 1
 63 27 l 1
EndSplineSet
EndChar

StartChar: custom_1_3_0_4_6
Encoding: 23914 23914 3946
Width: 70
Flags: H
LayerCount: 2
Fore
SplineSet
17 43 m 1
 15 43 l 1
 15 41 l 1
 17 41 l 1
 17 43 l 1
17 39 m 1
 15 39 l 1
 15 37 l 1
 17 37 l 1
 17 39 l 1
23 43 m 1
 21 43 l 1
 21 41 l 1
 23 41 l 1
 23 43 l 1
23 39 m 1
 21 39 l 1
 21 37 l 1
 23 37 l 1
 23 39 l 1
31 43 m 1
 29 43 l 1
 29 41 l 1
 31 41 l 1
 31 43 l 1
31 39 m 1
 29 39 l 1
 29 37 l 1
 31 37 l 1
 31 39 l 1
17 35 m 1
 15 35 l 1
 15 33 l 1
 17 33 l 1
 17 35 l 1
17 31 m 1
 15 31 l 1
 15 29 l 1
 17 29 l 1
 17 31 l 1
17 27 m 1
 15 27 l 1
 15 25 l 1
 17 25 l 1
 17 27 l 1
23 35 m 1
 21 35 l 1
 21 33 l 1
 23 33 l 1
 23 35 l 1
25 35 m 1
 24 35 l 1
 24 33 l 1
 26 33 l 1
 26 34 l 1
 25 34 l 1
 25 35 l 1
28 35 m 1
 26 35 l 1
 26 34 l 1
 27 34 l 1
 27 33 l 1
 28 33 l 1
 28 35 l 1
31 35 m 1
 29 35 l 1
 29 33 l 1
 31 33 l 1
 31 35 l 1
36 37 m 1
 34 37 l 1
 34 35 l 1
 36 35 l 1
 36 37 l 1
31 31 m 1
 29 31 l 1
 29 29 l 1
 31 29 l 1
 31 31 l 1
36 33 m 1
 34 33 l 1
 34 31 l 1
 36 31 l 1
 36 33 l 1
31 27 m 1
 29 27 l 1
 29 25 l 1
 31 25 l 1
 31 27 l 1
49 43 m 1
 47 43 l 1
 47 41 l 1
 49 41 l 1
 49 43 l 1
49 39 m 1
 47 39 l 1
 47 37 l 1
 49 37 l 1
 49 39 l 1
55 43 m 1
 53 43 l 1
 53 41 l 1
 55 41 l 1
 55 43 l 1
58 43 m 1
 56 43 l 1
 56 41 l 1
 57 41 l 1
 57 42 l 1
 58 42 l 1
 58 43 l 1
59 42 m 1
 58 42 l 1
 58 41 l 1
 60 41 l 1
 60 43 l 1
 59 43 l 1
 59 42 l 1
63 43 m 1
 61 43 l 1
 61 41 l 1
 63 41 l 1
 63 43 l 1
63 39 m 1
 61 39 l 1
 61 37 l 1
 63 37 l 1
 63 39 l 1
49 35 m 1
 47 35 l 1
 47 33 l 1
 49 33 l 1
 49 35 l 1
49 31 m 1
 47 31 l 1
 47 29 l 1
 49 29 l 1
 49 31 l 1
49 27 m 1
 47 27 l 1
 47 25 l 1
 49 25 l 1
 49 27 l 1
55 35 m 1
 53 35 l 1
 53 33 l 1
 55 33 l 1
 55 35 l 1
57 35 m 1
 56 35 l 1
 56 33 l 1
 58 33 l 1
 58 34 l 1
 57 34 l 1
 57 35 l 1
60 35 m 1
 58 35 l 1
 58 34 l 1
 59 34 l 1
 59 33 l 1
 60 33 l 1
 60 35 l 1
63 35 m 1
 61 35 l 1
 61 33 l 1
 63 33 l 1
 63 35 l 1
63 31 m 1
 61 31 l 1
 61 29 l 1
 63 29 l 1
 63 31 l 1
55 27 m 1
 53 27 l 1
 53 25 l 1
 55 25 l 1
 55 27 l 1
58 27 m 1
 56 27 l 1
 56 25 l 1
 57 25 l 1
 57 26 l 1
 58 26 l 1
 58 27 l 1
59 26 m 1
 58 26 l 1
 58 25 l 1
 60 25 l 1
 60 27 l 1
 59 27 l 1
 59 26 l 1
63 27 m 1
 61 27 l 1
 61 25 l 1
 63 25 l 1
 63 27 l 1
EndSplineSet
EndChar

StartChar: custom_1_3_0_4_7
Encoding: 23915 23915 3947
Width: 70
Flags: H
LayerCount: 2
Fore
SplineSet
17 43 m 1
 15 43 l 1
 15 41 l 1
 17 41 l 1
 17 43 l 1
17 39 m 1
 15 39 l 1
 15 37 l 1
 17 37 l 1
 17 39 l 1
23 43 m 1
 21 43 l 1
 21 41 l 1
 23 41 l 1
 23 43 l 1
23 39 m 1
 21 39 l 1
 21 37 l 1
 23 37 l 1
 23 39 l 1
31 43 m 1
 29 43 l 1
 29 41 l 1
 31 41 l 1
 31 43 l 1
31 39 m 1
 29 39 l 1
 29 37 l 1
 31 37 l 1
 31 39 l 1
17 35 m 1
 15 35 l 1
 15 33 l 1
 17 33 l 1
 17 35 l 1
17 31 m 1
 15 31 l 1
 15 29 l 1
 17 29 l 1
 17 31 l 1
17 27 m 1
 15 27 l 1
 15 25 l 1
 17 25 l 1
 17 27 l 1
23 35 m 1
 21 35 l 1
 21 33 l 1
 23 33 l 1
 23 35 l 1
25 35 m 1
 24 35 l 1
 24 33 l 1
 26 33 l 1
 26 34 l 1
 25 34 l 1
 25 35 l 1
28 35 m 1
 26 35 l 1
 26 34 l 1
 27 34 l 1
 27 33 l 1
 28 33 l 1
 28 35 l 1
31 35 m 1
 29 35 l 1
 29 33 l 1
 31 33 l 1
 31 35 l 1
36 37 m 1
 34 37 l 1
 34 35 l 1
 36 35 l 1
 36 37 l 1
31 31 m 1
 29 31 l 1
 29 29 l 1
 31 29 l 1
 31 31 l 1
36 33 m 1
 34 33 l 1
 34 31 l 1
 36 31 l 1
 36 33 l 1
31 27 m 1
 29 27 l 1
 29 25 l 1
 31 25 l 1
 31 27 l 1
49 43 m 1
 47 43 l 1
 47 41 l 1
 49 41 l 1
 49 43 l 1
49 39 m 1
 47 39 l 1
 47 37 l 1
 49 37 l 1
 49 39 l 1
55 43 m 1
 53 43 l 1
 53 41 l 1
 55 41 l 1
 55 43 l 1
58 43 m 1
 56 43 l 1
 56 41 l 1
 57 41 l 1
 57 42 l 1
 58 42 l 1
 58 43 l 1
59 42 m 1
 58 42 l 1
 58 41 l 1
 60 41 l 1
 60 43 l 1
 59 43 l 1
 59 42 l 1
63 43 m 1
 61 43 l 1
 61 41 l 1
 63 41 l 1
 63 43 l 1
63 39 m 1
 61 39 l 1
 61 37 l 1
 63 37 l 1
 63 39 l 1
49 35 m 1
 47 35 l 1
 47 33 l 1
 49 33 l 1
 49 35 l 1
49 31 m 1
 47 31 l 1
 47 29 l 1
 49 29 l 1
 49 31 l 1
49 27 m 1
 47 27 l 1
 47 25 l 1
 49 25 l 1
 49 27 l 1
55 35 m 1
 53 35 l 1
 53 33 l 1
 55 33 l 1
 55 35 l 1
57 35 m 1
 56 35 l 1
 56 33 l 1
 58 33 l 1
 58 34 l 1
 57 34 l 1
 57 35 l 1
60 35 m 1
 58 35 l 1
 58 34 l 1
 59 34 l 1
 59 33 l 1
 60 33 l 1
 60 35 l 1
63 35 m 1
 61 35 l 1
 61 33 l 1
 63 33 l 1
 63 35 l 1
63 31 m 1
 61 31 l 1
 61 29 l 1
 63 29 l 1
 63 31 l 1
55 27 m 1
 53 27 l 1
 53 25 l 1
 55 25 l 1
 55 27 l 1
58 27 m 1
 56 27 l 1
 56 25 l 1
 57 25 l 1
 57 26 l 1
 58 26 l 1
 58 27 l 1
59 26 m 1
 58 26 l 1
 58 25 l 1
 60 25 l 1
 60 27 l 1
 59 27 l 1
 59 26 l 1
63 27 m 1
 61 27 l 1
 61 25 l 1
 63 25 l 1
 63 27 l 1
EndSplineSet
EndChar

StartChar: custom_1_3_0_4_8
Encoding: 23916 23916 3948
Width: 70
Flags: H
LayerCount: 2
Fore
SplineSet
17 43 m 1
 15 43 l 1
 15 41 l 1
 17 41 l 1
 17 43 l 1
17 39 m 1
 15 39 l 1
 15 37 l 1
 17 37 l 1
 17 39 l 1
23 43 m 1
 21 43 l 1
 21 41 l 1
 23 41 l 1
 23 43 l 1
23 39 m 1
 21 39 l 1
 21 37 l 1
 23 37 l 1
 23 39 l 1
31 43 m 1
 29 43 l 1
 29 41 l 1
 31 41 l 1
 31 43 l 1
31 39 m 1
 29 39 l 1
 29 37 l 1
 31 37 l 1
 31 39 l 1
17 35 m 1
 15 35 l 1
 15 33 l 1
 17 33 l 1
 17 35 l 1
17 31 m 1
 15 31 l 1
 15 29 l 1
 17 29 l 1
 17 31 l 1
17 27 m 1
 15 27 l 1
 15 25 l 1
 17 25 l 1
 17 27 l 1
23 35 m 1
 21 35 l 1
 21 33 l 1
 23 33 l 1
 23 35 l 1
25 35 m 1
 24 35 l 1
 24 33 l 1
 26 33 l 1
 26 34 l 1
 25 34 l 1
 25 35 l 1
28 35 m 1
 26 35 l 1
 26 34 l 1
 27 34 l 1
 27 33 l 1
 28 33 l 1
 28 35 l 1
31 35 m 1
 29 35 l 1
 29 33 l 1
 31 33 l 1
 31 35 l 1
36 37 m 1
 34 37 l 1
 34 35 l 1
 36 35 l 1
 36 37 l 1
31 31 m 1
 29 31 l 1
 29 29 l 1
 31 29 l 1
 31 31 l 1
36 33 m 1
 34 33 l 1
 34 31 l 1
 36 31 l 1
 36 33 l 1
31 27 m 1
 29 27 l 1
 29 25 l 1
 31 25 l 1
 31 27 l 1
49 43 m 1
 47 43 l 1
 47 41 l 1
 49 41 l 1
 49 43 l 1
49 39 m 1
 47 39 l 1
 47 37 l 1
 49 37 l 1
 49 39 l 1
55 43 m 1
 53 43 l 1
 53 41 l 1
 55 41 l 1
 55 43 l 1
58 43 m 1
 56 43 l 1
 56 41 l 1
 57 41 l 1
 57 42 l 1
 58 42 l 1
 58 43 l 1
59 42 m 1
 58 42 l 1
 58 41 l 1
 60 41 l 1
 60 43 l 1
 59 43 l 1
 59 42 l 1
63 43 m 1
 61 43 l 1
 61 41 l 1
 63 41 l 1
 63 43 l 1
63 39 m 1
 61 39 l 1
 61 37 l 1
 63 37 l 1
 63 39 l 1
49 35 m 1
 47 35 l 1
 47 33 l 1
 49 33 l 1
 49 35 l 1
49 31 m 1
 47 31 l 1
 47 29 l 1
 49 29 l 1
 49 31 l 1
49 27 m 1
 47 27 l 1
 47 25 l 1
 49 25 l 1
 49 27 l 1
55 35 m 1
 53 35 l 1
 53 33 l 1
 55 33 l 1
 55 35 l 1
57 35 m 1
 56 35 l 1
 56 33 l 1
 58 33 l 1
 58 34 l 1
 57 34 l 1
 57 35 l 1
60 35 m 1
 58 35 l 1
 58 34 l 1
 59 34 l 1
 59 33 l 1
 60 33 l 1
 60 35 l 1
63 35 m 1
 61 35 l 1
 61 33 l 1
 63 33 l 1
 63 35 l 1
63 31 m 1
 61 31 l 1
 61 29 l 1
 63 29 l 1
 63 31 l 1
55 27 m 1
 53 27 l 1
 53 25 l 1
 55 25 l 1
 55 27 l 1
58 27 m 1
 56 27 l 1
 56 25 l 1
 57 25 l 1
 57 26 l 1
 58 26 l 1
 58 27 l 1
59 26 m 1
 58 26 l 1
 58 25 l 1
 60 25 l 1
 60 27 l 1
 59 27 l 1
 59 26 l 1
63 27 m 1
 61 27 l 1
 61 25 l 1
 63 25 l 1
 63 27 l 1
EndSplineSet
EndChar

StartChar: custom_1_3_0_4_9
Encoding: 23917 23917 3949
Width: 70
Flags: H
LayerCount: 2
Fore
SplineSet
17 43 m 1
 15 43 l 1
 15 41 l 1
 17 41 l 1
 17 43 l 1
17 39 m 1
 15 39 l 1
 15 37 l 1
 17 37 l 1
 17 39 l 1
23 43 m 1
 21 43 l 1
 21 41 l 1
 23 41 l 1
 23 43 l 1
23 39 m 1
 21 39 l 1
 21 37 l 1
 23 37 l 1
 23 39 l 1
31 43 m 1
 29 43 l 1
 29 41 l 1
 31 41 l 1
 31 43 l 1
31 39 m 1
 29 39 l 1
 29 37 l 1
 31 37 l 1
 31 39 l 1
17 35 m 1
 15 35 l 1
 15 33 l 1
 17 33 l 1
 17 35 l 1
17 31 m 1
 15 31 l 1
 15 29 l 1
 17 29 l 1
 17 31 l 1
17 27 m 1
 15 27 l 1
 15 25 l 1
 17 25 l 1
 17 27 l 1
23 35 m 1
 21 35 l 1
 21 33 l 1
 23 33 l 1
 23 35 l 1
25 35 m 1
 24 35 l 1
 24 33 l 1
 26 33 l 1
 26 34 l 1
 25 34 l 1
 25 35 l 1
28 35 m 1
 26 35 l 1
 26 34 l 1
 27 34 l 1
 27 33 l 1
 28 33 l 1
 28 35 l 1
31 35 m 1
 29 35 l 1
 29 33 l 1
 31 33 l 1
 31 35 l 1
36 37 m 1
 34 37 l 1
 34 35 l 1
 36 35 l 1
 36 37 l 1
31 31 m 1
 29 31 l 1
 29 29 l 1
 31 29 l 1
 31 31 l 1
36 33 m 1
 34 33 l 1
 34 31 l 1
 36 31 l 1
 36 33 l 1
31 27 m 1
 29 27 l 1
 29 25 l 1
 31 25 l 1
 31 27 l 1
49 43 m 1
 47 43 l 1
 47 41 l 1
 49 41 l 1
 49 43 l 1
49 39 m 1
 47 39 l 1
 47 37 l 1
 49 37 l 1
 49 39 l 1
55 43 m 1
 53 43 l 1
 53 41 l 1
 55 41 l 1
 55 43 l 1
58 43 m 1
 56 43 l 1
 56 41 l 1
 57 41 l 1
 57 42 l 1
 58 42 l 1
 58 43 l 1
59 42 m 1
 58 42 l 1
 58 41 l 1
 60 41 l 1
 60 43 l 1
 59 43 l 1
 59 42 l 1
63 43 m 1
 61 43 l 1
 61 41 l 1
 63 41 l 1
 63 43 l 1
63 39 m 1
 61 39 l 1
 61 37 l 1
 63 37 l 1
 63 39 l 1
49 35 m 1
 47 35 l 1
 47 33 l 1
 49 33 l 1
 49 35 l 1
49 31 m 1
 47 31 l 1
 47 29 l 1
 49 29 l 1
 49 31 l 1
49 27 m 1
 47 27 l 1
 47 25 l 1
 49 25 l 1
 49 27 l 1
55 35 m 1
 53 35 l 1
 53 33 l 1
 55 33 l 1
 55 35 l 1
57 35 m 1
 56 35 l 1
 56 33 l 1
 58 33 l 1
 58 34 l 1
 57 34 l 1
 57 35 l 1
60 35 m 1
 58 35 l 1
 58 34 l 1
 59 34 l 1
 59 33 l 1
 60 33 l 1
 60 35 l 1
63 35 m 1
 61 35 l 1
 61 33 l 1
 63 33 l 1
 63 35 l 1
63 31 m 1
 61 31 l 1
 61 29 l 1
 63 29 l 1
 63 31 l 1
55 27 m 1
 53 27 l 1
 53 25 l 1
 55 25 l 1
 55 27 l 1
58 27 m 1
 56 27 l 1
 56 25 l 1
 57 25 l 1
 57 26 l 1
 58 26 l 1
 58 27 l 1
59 26 m 1
 58 26 l 1
 58 25 l 1
 60 25 l 1
 60 27 l 1
 59 27 l 1
 59 26 l 1
63 27 m 1
 61 27 l 1
 61 25 l 1
 63 25 l 1
 63 27 l 1
EndSplineSet
EndChar

StartChar: custom_1_3_0_5_0
Encoding: 23918 23918 3950
Width: 70
Flags: H
LayerCount: 2
Fore
SplineSet
17 43 m 1
 15 43 l 1
 15 41 l 1
 17 41 l 1
 17 43 l 1
17 39 m 1
 15 39 l 1
 15 37 l 1
 17 37 l 1
 17 39 l 1
23 43 m 1
 21 43 l 1
 21 41 l 1
 23 41 l 1
 23 43 l 1
23 39 m 1
 21 39 l 1
 21 37 l 1
 23 37 l 1
 23 39 l 1
31 43 m 1
 29 43 l 1
 29 41 l 1
 31 41 l 1
 31 43 l 1
31 39 m 1
 29 39 l 1
 29 37 l 1
 31 37 l 1
 31 39 l 1
17 35 m 1
 15 35 l 1
 15 33 l 1
 17 33 l 1
 17 35 l 1
17 31 m 1
 15 31 l 1
 15 29 l 1
 17 29 l 1
 17 31 l 1
17 27 m 1
 15 27 l 1
 15 25 l 1
 17 25 l 1
 17 27 l 1
23 35 m 1
 21 35 l 1
 21 33 l 1
 23 33 l 1
 23 35 l 1
25 35 m 1
 24 35 l 1
 24 33 l 1
 26 33 l 1
 26 34 l 1
 25 34 l 1
 25 35 l 1
28 35 m 1
 26 35 l 1
 26 34 l 1
 27 34 l 1
 27 33 l 1
 28 33 l 1
 28 35 l 1
31 35 m 1
 29 35 l 1
 29 33 l 1
 31 33 l 1
 31 35 l 1
36 37 m 1
 34 37 l 1
 34 35 l 1
 36 35 l 1
 36 37 l 1
31 31 m 1
 29 31 l 1
 29 29 l 1
 31 29 l 1
 31 31 l 1
36 33 m 1
 34 33 l 1
 34 31 l 1
 36 31 l 1
 36 33 l 1
31 27 m 1
 29 27 l 1
 29 25 l 1
 31 25 l 1
 31 27 l 1
49 43 m 1
 47 43 l 1
 47 41 l 1
 49 41 l 1
 49 43 l 1
49 39 m 1
 47 39 l 1
 47 37 l 1
 49 37 l 1
 49 39 l 1
55 43 m 1
 53 43 l 1
 53 41 l 1
 55 41 l 1
 55 43 l 1
58 43 m 1
 56 43 l 1
 56 41 l 1
 57 41 l 1
 57 42 l 1
 58 42 l 1
 58 43 l 1
59 42 m 1
 58 42 l 1
 58 41 l 1
 60 41 l 1
 60 43 l 1
 59 43 l 1
 59 42 l 1
63 43 m 1
 61 43 l 1
 61 41 l 1
 63 41 l 1
 63 43 l 1
63 39 m 1
 61 39 l 1
 61 37 l 1
 63 37 l 1
 63 39 l 1
49 35 m 1
 47 35 l 1
 47 33 l 1
 49 33 l 1
 49 35 l 1
49 31 m 1
 47 31 l 1
 47 29 l 1
 49 29 l 1
 49 31 l 1
49 27 m 1
 47 27 l 1
 47 25 l 1
 49 25 l 1
 49 27 l 1
55 35 m 1
 53 35 l 1
 53 33 l 1
 55 33 l 1
 55 35 l 1
57 35 m 1
 56 35 l 1
 56 33 l 1
 58 33 l 1
 58 34 l 1
 57 34 l 1
 57 35 l 1
60 35 m 1
 58 35 l 1
 58 34 l 1
 59 34 l 1
 59 33 l 1
 60 33 l 1
 60 35 l 1
63 35 m 1
 61 35 l 1
 61 33 l 1
 63 33 l 1
 63 35 l 1
63 31 m 1
 61 31 l 1
 61 29 l 1
 63 29 l 1
 63 31 l 1
55 27 m 1
 53 27 l 1
 53 25 l 1
 55 25 l 1
 55 27 l 1
58 27 m 1
 56 27 l 1
 56 25 l 1
 57 25 l 1
 57 26 l 1
 58 26 l 1
 58 27 l 1
59 26 m 1
 58 26 l 1
 58 25 l 1
 60 25 l 1
 60 27 l 1
 59 27 l 1
 59 26 l 1
63 27 m 1
 61 27 l 1
 61 25 l 1
 63 25 l 1
 63 27 l 1
EndSplineSet
EndChar

StartChar: custom_1_3_0_5_1
Encoding: 23919 23919 3951
Width: 70
Flags: H
LayerCount: 2
Fore
SplineSet
17 43 m 1
 15 43 l 1
 15 41 l 1
 17 41 l 1
 17 43 l 1
17 39 m 1
 15 39 l 1
 15 37 l 1
 17 37 l 1
 17 39 l 1
23 43 m 1
 21 43 l 1
 21 41 l 1
 23 41 l 1
 23 43 l 1
23 39 m 1
 21 39 l 1
 21 37 l 1
 23 37 l 1
 23 39 l 1
31 43 m 1
 29 43 l 1
 29 41 l 1
 31 41 l 1
 31 43 l 1
31 39 m 1
 29 39 l 1
 29 37 l 1
 31 37 l 1
 31 39 l 1
17 35 m 1
 15 35 l 1
 15 33 l 1
 17 33 l 1
 17 35 l 1
17 31 m 1
 15 31 l 1
 15 29 l 1
 17 29 l 1
 17 31 l 1
17 27 m 1
 15 27 l 1
 15 25 l 1
 17 25 l 1
 17 27 l 1
23 35 m 1
 21 35 l 1
 21 33 l 1
 23 33 l 1
 23 35 l 1
25 35 m 1
 24 35 l 1
 24 33 l 1
 26 33 l 1
 26 34 l 1
 25 34 l 1
 25 35 l 1
28 35 m 1
 26 35 l 1
 26 34 l 1
 27 34 l 1
 27 33 l 1
 28 33 l 1
 28 35 l 1
31 35 m 1
 29 35 l 1
 29 33 l 1
 31 33 l 1
 31 35 l 1
36 37 m 1
 34 37 l 1
 34 35 l 1
 36 35 l 1
 36 37 l 1
31 31 m 1
 29 31 l 1
 29 29 l 1
 31 29 l 1
 31 31 l 1
36 33 m 1
 34 33 l 1
 34 31 l 1
 36 31 l 1
 36 33 l 1
31 27 m 1
 29 27 l 1
 29 25 l 1
 31 25 l 1
 31 27 l 1
49 43 m 1
 47 43 l 1
 47 41 l 1
 49 41 l 1
 49 43 l 1
49 39 m 1
 47 39 l 1
 47 37 l 1
 49 37 l 1
 49 39 l 1
55 43 m 1
 53 43 l 1
 53 41 l 1
 55 41 l 1
 55 43 l 1
58 43 m 1
 56 43 l 1
 56 41 l 1
 57 41 l 1
 57 42 l 1
 58 42 l 1
 58 43 l 1
59 42 m 1
 58 42 l 1
 58 41 l 1
 60 41 l 1
 60 43 l 1
 59 43 l 1
 59 42 l 1
63 43 m 1
 61 43 l 1
 61 41 l 1
 63 41 l 1
 63 43 l 1
63 39 m 1
 61 39 l 1
 61 37 l 1
 63 37 l 1
 63 39 l 1
49 35 m 1
 47 35 l 1
 47 33 l 1
 49 33 l 1
 49 35 l 1
49 31 m 1
 47 31 l 1
 47 29 l 1
 49 29 l 1
 49 31 l 1
49 27 m 1
 47 27 l 1
 47 25 l 1
 49 25 l 1
 49 27 l 1
55 35 m 1
 53 35 l 1
 53 33 l 1
 55 33 l 1
 55 35 l 1
57 35 m 1
 56 35 l 1
 56 33 l 1
 58 33 l 1
 58 34 l 1
 57 34 l 1
 57 35 l 1
60 35 m 1
 58 35 l 1
 58 34 l 1
 59 34 l 1
 59 33 l 1
 60 33 l 1
 60 35 l 1
63 35 m 1
 61 35 l 1
 61 33 l 1
 63 33 l 1
 63 35 l 1
63 31 m 1
 61 31 l 1
 61 29 l 1
 63 29 l 1
 63 31 l 1
55 27 m 1
 53 27 l 1
 53 25 l 1
 55 25 l 1
 55 27 l 1
58 27 m 1
 56 27 l 1
 56 25 l 1
 57 25 l 1
 57 26 l 1
 58 26 l 1
 58 27 l 1
59 26 m 1
 58 26 l 1
 58 25 l 1
 60 25 l 1
 60 27 l 1
 59 27 l 1
 59 26 l 1
63 27 m 1
 61 27 l 1
 61 25 l 1
 63 25 l 1
 63 27 l 1
6 -1 m 1
 5 -1 l 1
 5 -2 l 1
 6 -2 l 1
 6 -1 l 1
EndSplineSet
EndChar

StartChar: custom_1_3_0_5_2
Encoding: 23920 23920 3952
Width: 70
Flags: H
LayerCount: 2
Fore
SplineSet
17 43 m 1
 15 43 l 1
 15 41 l 1
 17 41 l 1
 17 43 l 1
17 39 m 1
 15 39 l 1
 15 37 l 1
 17 37 l 1
 17 39 l 1
23 43 m 1
 21 43 l 1
 21 41 l 1
 23 41 l 1
 23 43 l 1
23 39 m 1
 21 39 l 1
 21 37 l 1
 23 37 l 1
 23 39 l 1
31 43 m 1
 29 43 l 1
 29 41 l 1
 31 41 l 1
 31 43 l 1
31 39 m 1
 29 39 l 1
 29 37 l 1
 31 37 l 1
 31 39 l 1
17 35 m 1
 15 35 l 1
 15 33 l 1
 17 33 l 1
 17 35 l 1
17 31 m 1
 15 31 l 1
 15 29 l 1
 17 29 l 1
 17 31 l 1
17 27 m 1
 15 27 l 1
 15 25 l 1
 17 25 l 1
 17 27 l 1
23 35 m 1
 21 35 l 1
 21 33 l 1
 23 33 l 1
 23 35 l 1
25 35 m 1
 24 35 l 1
 24 33 l 1
 26 33 l 1
 26 34 l 1
 25 34 l 1
 25 35 l 1
28 35 m 1
 26 35 l 1
 26 34 l 1
 27 34 l 1
 27 33 l 1
 28 33 l 1
 28 35 l 1
31 35 m 1
 29 35 l 1
 29 33 l 1
 31 33 l 1
 31 35 l 1
36 37 m 1
 34 37 l 1
 34 35 l 1
 36 35 l 1
 36 37 l 1
31 31 m 1
 29 31 l 1
 29 29 l 1
 31 29 l 1
 31 31 l 1
36 33 m 1
 34 33 l 1
 34 31 l 1
 36 31 l 1
 36 33 l 1
31 27 m 1
 29 27 l 1
 29 25 l 1
 31 25 l 1
 31 27 l 1
49 43 m 1
 47 43 l 1
 47 41 l 1
 49 41 l 1
 49 43 l 1
49 39 m 1
 47 39 l 1
 47 37 l 1
 49 37 l 1
 49 39 l 1
55 43 m 1
 53 43 l 1
 53 41 l 1
 55 41 l 1
 55 43 l 1
58 43 m 1
 56 43 l 1
 56 41 l 1
 57 41 l 1
 57 42 l 1
 58 42 l 1
 58 43 l 1
59 42 m 1
 58 42 l 1
 58 41 l 1
 60 41 l 1
 60 43 l 1
 59 43 l 1
 59 42 l 1
63 43 m 1
 61 43 l 1
 61 41 l 1
 63 41 l 1
 63 43 l 1
63 39 m 1
 61 39 l 1
 61 37 l 1
 63 37 l 1
 63 39 l 1
49 35 m 1
 47 35 l 1
 47 33 l 1
 49 33 l 1
 49 35 l 1
49 31 m 1
 47 31 l 1
 47 29 l 1
 49 29 l 1
 49 31 l 1
49 27 m 1
 47 27 l 1
 47 25 l 1
 49 25 l 1
 49 27 l 1
55 35 m 1
 53 35 l 1
 53 33 l 1
 55 33 l 1
 55 35 l 1
57 35 m 1
 56 35 l 1
 56 33 l 1
 58 33 l 1
 58 34 l 1
 57 34 l 1
 57 35 l 1
60 35 m 1
 58 35 l 1
 58 34 l 1
 59 34 l 1
 59 33 l 1
 60 33 l 1
 60 35 l 1
63 35 m 1
 61 35 l 1
 61 33 l 1
 63 33 l 1
 63 35 l 1
63 31 m 1
 61 31 l 1
 61 29 l 1
 63 29 l 1
 63 31 l 1
55 27 m 1
 53 27 l 1
 53 25 l 1
 55 25 l 1
 55 27 l 1
58 27 m 1
 56 27 l 1
 56 25 l 1
 57 25 l 1
 57 26 l 1
 58 26 l 1
 58 27 l 1
59 26 m 1
 58 26 l 1
 58 25 l 1
 60 25 l 1
 60 27 l 1
 59 27 l 1
 59 26 l 1
63 27 m 1
 61 27 l 1
 61 25 l 1
 63 25 l 1
 63 27 l 1
7 -1 m 1
 5 -1 l 1
 5 -2 l 1
 7 -2 l 1
 7 -1 l 1
EndSplineSet
EndChar

StartChar: custom_1_3_0_5_3
Encoding: 23921 23921 3953
Width: 70
Flags: H
LayerCount: 2
Fore
SplineSet
17 43 m 1
 15 43 l 1
 15 41 l 1
 17 41 l 1
 17 43 l 1
17 39 m 1
 15 39 l 1
 15 37 l 1
 17 37 l 1
 17 39 l 1
23 43 m 1
 21 43 l 1
 21 41 l 1
 23 41 l 1
 23 43 l 1
23 39 m 1
 21 39 l 1
 21 37 l 1
 23 37 l 1
 23 39 l 1
31 43 m 1
 29 43 l 1
 29 41 l 1
 31 41 l 1
 31 43 l 1
31 39 m 1
 29 39 l 1
 29 37 l 1
 31 37 l 1
 31 39 l 1
17 35 m 1
 15 35 l 1
 15 33 l 1
 17 33 l 1
 17 35 l 1
17 31 m 1
 15 31 l 1
 15 29 l 1
 17 29 l 1
 17 31 l 1
17 27 m 1
 15 27 l 1
 15 25 l 1
 17 25 l 1
 17 27 l 1
23 35 m 1
 21 35 l 1
 21 33 l 1
 23 33 l 1
 23 35 l 1
25 35 m 1
 24 35 l 1
 24 33 l 1
 26 33 l 1
 26 34 l 1
 25 34 l 1
 25 35 l 1
28 35 m 1
 26 35 l 1
 26 34 l 1
 27 34 l 1
 27 33 l 1
 28 33 l 1
 28 35 l 1
31 35 m 1
 29 35 l 1
 29 33 l 1
 31 33 l 1
 31 35 l 1
36 37 m 1
 34 37 l 1
 34 35 l 1
 36 35 l 1
 36 37 l 1
31 31 m 1
 29 31 l 1
 29 29 l 1
 31 29 l 1
 31 31 l 1
36 33 m 1
 34 33 l 1
 34 31 l 1
 36 31 l 1
 36 33 l 1
31 27 m 1
 29 27 l 1
 29 25 l 1
 31 25 l 1
 31 27 l 1
49 43 m 1
 47 43 l 1
 47 41 l 1
 49 41 l 1
 49 43 l 1
49 39 m 1
 47 39 l 1
 47 37 l 1
 49 37 l 1
 49 39 l 1
55 43 m 1
 53 43 l 1
 53 41 l 1
 55 41 l 1
 55 43 l 1
58 43 m 1
 56 43 l 1
 56 41 l 1
 57 41 l 1
 57 42 l 1
 58 42 l 1
 58 43 l 1
59 42 m 1
 58 42 l 1
 58 41 l 1
 60 41 l 1
 60 43 l 1
 59 43 l 1
 59 42 l 1
63 43 m 1
 61 43 l 1
 61 41 l 1
 63 41 l 1
 63 43 l 1
63 39 m 1
 61 39 l 1
 61 37 l 1
 63 37 l 1
 63 39 l 1
49 35 m 1
 47 35 l 1
 47 33 l 1
 49 33 l 1
 49 35 l 1
49 31 m 1
 47 31 l 1
 47 29 l 1
 49 29 l 1
 49 31 l 1
49 27 m 1
 47 27 l 1
 47 25 l 1
 49 25 l 1
 49 27 l 1
55 35 m 1
 53 35 l 1
 53 33 l 1
 55 33 l 1
 55 35 l 1
57 35 m 1
 56 35 l 1
 56 33 l 1
 58 33 l 1
 58 34 l 1
 57 34 l 1
 57 35 l 1
60 35 m 1
 58 35 l 1
 58 34 l 1
 59 34 l 1
 59 33 l 1
 60 33 l 1
 60 35 l 1
63 35 m 1
 61 35 l 1
 61 33 l 1
 63 33 l 1
 63 35 l 1
63 31 m 1
 61 31 l 1
 61 29 l 1
 63 29 l 1
 63 31 l 1
55 27 m 1
 53 27 l 1
 53 25 l 1
 55 25 l 1
 55 27 l 1
58 27 m 1
 56 27 l 1
 56 25 l 1
 57 25 l 1
 57 26 l 1
 58 26 l 1
 58 27 l 1
59 26 m 1
 58 26 l 1
 58 25 l 1
 60 25 l 1
 60 27 l 1
 59 27 l 1
 59 26 l 1
63 27 m 1
 61 27 l 1
 61 25 l 1
 63 25 l 1
 63 27 l 1
7 -1 m 1
 5 -1 l 1
 5 -2 l 1
 7 -2 l 1
 7 -1 l 1
EndSplineSet
EndChar

StartChar: custom_1_3_0_5_4
Encoding: 23922 23922 3954
Width: 70
Flags: H
LayerCount: 2
Fore
SplineSet
17 43 m 1
 15 43 l 1
 15 41 l 1
 17 41 l 1
 17 43 l 1
17 39 m 1
 15 39 l 1
 15 37 l 1
 17 37 l 1
 17 39 l 1
23 43 m 1
 21 43 l 1
 21 41 l 1
 23 41 l 1
 23 43 l 1
23 39 m 1
 21 39 l 1
 21 37 l 1
 23 37 l 1
 23 39 l 1
31 43 m 1
 29 43 l 1
 29 41 l 1
 31 41 l 1
 31 43 l 1
31 39 m 1
 29 39 l 1
 29 37 l 1
 31 37 l 1
 31 39 l 1
17 35 m 1
 15 35 l 1
 15 33 l 1
 17 33 l 1
 17 35 l 1
17 31 m 1
 15 31 l 1
 15 29 l 1
 17 29 l 1
 17 31 l 1
17 27 m 1
 15 27 l 1
 15 25 l 1
 17 25 l 1
 17 27 l 1
23 35 m 1
 21 35 l 1
 21 33 l 1
 23 33 l 1
 23 35 l 1
25 35 m 1
 24 35 l 1
 24 33 l 1
 26 33 l 1
 26 34 l 1
 25 34 l 1
 25 35 l 1
28 35 m 1
 26 35 l 1
 26 34 l 1
 27 34 l 1
 27 33 l 1
 28 33 l 1
 28 35 l 1
31 35 m 1
 29 35 l 1
 29 33 l 1
 31 33 l 1
 31 35 l 1
36 37 m 1
 34 37 l 1
 34 35 l 1
 36 35 l 1
 36 37 l 1
31 31 m 1
 29 31 l 1
 29 29 l 1
 31 29 l 1
 31 31 l 1
36 33 m 1
 34 33 l 1
 34 31 l 1
 36 31 l 1
 36 33 l 1
31 27 m 1
 29 27 l 1
 29 25 l 1
 31 25 l 1
 31 27 l 1
49 43 m 1
 47 43 l 1
 47 41 l 1
 49 41 l 1
 49 43 l 1
49 39 m 1
 47 39 l 1
 47 37 l 1
 49 37 l 1
 49 39 l 1
55 43 m 1
 53 43 l 1
 53 41 l 1
 55 41 l 1
 55 43 l 1
58 43 m 1
 56 43 l 1
 56 41 l 1
 57 41 l 1
 57 42 l 1
 58 42 l 1
 58 43 l 1
59 42 m 1
 58 42 l 1
 58 41 l 1
 60 41 l 1
 60 43 l 1
 59 43 l 1
 59 42 l 1
63 43 m 1
 61 43 l 1
 61 41 l 1
 63 41 l 1
 63 43 l 1
63 39 m 1
 61 39 l 1
 61 37 l 1
 63 37 l 1
 63 39 l 1
49 35 m 1
 47 35 l 1
 47 33 l 1
 49 33 l 1
 49 35 l 1
49 31 m 1
 47 31 l 1
 47 29 l 1
 49 29 l 1
 49 31 l 1
49 27 m 1
 47 27 l 1
 47 25 l 1
 49 25 l 1
 49 27 l 1
55 35 m 1
 53 35 l 1
 53 33 l 1
 55 33 l 1
 55 35 l 1
57 35 m 1
 56 35 l 1
 56 33 l 1
 58 33 l 1
 58 34 l 1
 57 34 l 1
 57 35 l 1
60 35 m 1
 58 35 l 1
 58 34 l 1
 59 34 l 1
 59 33 l 1
 60 33 l 1
 60 35 l 1
63 35 m 1
 61 35 l 1
 61 33 l 1
 63 33 l 1
 63 35 l 1
63 31 m 1
 61 31 l 1
 61 29 l 1
 63 29 l 1
 63 31 l 1
55 27 m 1
 53 27 l 1
 53 25 l 1
 55 25 l 1
 55 27 l 1
58 27 m 1
 56 27 l 1
 56 25 l 1
 57 25 l 1
 57 26 l 1
 58 26 l 1
 58 27 l 1
59 26 m 1
 58 26 l 1
 58 25 l 1
 60 25 l 1
 60 27 l 1
 59 27 l 1
 59 26 l 1
63 27 m 1
 61 27 l 1
 61 25 l 1
 63 25 l 1
 63 27 l 1
8 -1 m 1
 5 -1 l 1
 5 -2 l 1
 8 -2 l 1
 8 -1 l 1
EndSplineSet
EndChar

StartChar: custom_1_3_0_5_5
Encoding: 23923 23923 3955
Width: 70
Flags: H
LayerCount: 2
Fore
SplineSet
17 43 m 1
 15 43 l 1
 15 41 l 1
 17 41 l 1
 17 43 l 1
17 39 m 1
 15 39 l 1
 15 37 l 1
 17 37 l 1
 17 39 l 1
23 43 m 1
 21 43 l 1
 21 41 l 1
 23 41 l 1
 23 43 l 1
23 39 m 1
 21 39 l 1
 21 37 l 1
 23 37 l 1
 23 39 l 1
31 43 m 1
 29 43 l 1
 29 41 l 1
 31 41 l 1
 31 43 l 1
31 39 m 1
 29 39 l 1
 29 37 l 1
 31 37 l 1
 31 39 l 1
17 35 m 1
 15 35 l 1
 15 33 l 1
 17 33 l 1
 17 35 l 1
17 31 m 1
 15 31 l 1
 15 29 l 1
 17 29 l 1
 17 31 l 1
17 27 m 1
 15 27 l 1
 15 25 l 1
 17 25 l 1
 17 27 l 1
23 35 m 1
 21 35 l 1
 21 33 l 1
 23 33 l 1
 23 35 l 1
25 35 m 1
 24 35 l 1
 24 33 l 1
 26 33 l 1
 26 34 l 1
 25 34 l 1
 25 35 l 1
28 35 m 1
 26 35 l 1
 26 34 l 1
 27 34 l 1
 27 33 l 1
 28 33 l 1
 28 35 l 1
31 35 m 1
 29 35 l 1
 29 33 l 1
 31 33 l 1
 31 35 l 1
36 37 m 1
 34 37 l 1
 34 35 l 1
 36 35 l 1
 36 37 l 1
31 31 m 1
 29 31 l 1
 29 29 l 1
 31 29 l 1
 31 31 l 1
36 33 m 1
 34 33 l 1
 34 31 l 1
 36 31 l 1
 36 33 l 1
31 27 m 1
 29 27 l 1
 29 25 l 1
 31 25 l 1
 31 27 l 1
49 43 m 1
 47 43 l 1
 47 41 l 1
 49 41 l 1
 49 43 l 1
49 39 m 1
 47 39 l 1
 47 37 l 1
 49 37 l 1
 49 39 l 1
55 43 m 1
 53 43 l 1
 53 41 l 1
 55 41 l 1
 55 43 l 1
58 43 m 1
 56 43 l 1
 56 41 l 1
 57 41 l 1
 57 42 l 1
 58 42 l 1
 58 43 l 1
59 42 m 1
 58 42 l 1
 58 41 l 1
 60 41 l 1
 60 43 l 1
 59 43 l 1
 59 42 l 1
63 43 m 1
 61 43 l 1
 61 41 l 1
 63 41 l 1
 63 43 l 1
63 39 m 1
 61 39 l 1
 61 37 l 1
 63 37 l 1
 63 39 l 1
49 35 m 1
 47 35 l 1
 47 33 l 1
 49 33 l 1
 49 35 l 1
49 31 m 1
 47 31 l 1
 47 29 l 1
 49 29 l 1
 49 31 l 1
49 27 m 1
 47 27 l 1
 47 25 l 1
 49 25 l 1
 49 27 l 1
55 35 m 1
 53 35 l 1
 53 33 l 1
 55 33 l 1
 55 35 l 1
57 35 m 1
 56 35 l 1
 56 33 l 1
 58 33 l 1
 58 34 l 1
 57 34 l 1
 57 35 l 1
60 35 m 1
 58 35 l 1
 58 34 l 1
 59 34 l 1
 59 33 l 1
 60 33 l 1
 60 35 l 1
63 35 m 1
 61 35 l 1
 61 33 l 1
 63 33 l 1
 63 35 l 1
63 31 m 1
 61 31 l 1
 61 29 l 1
 63 29 l 1
 63 31 l 1
55 27 m 1
 53 27 l 1
 53 25 l 1
 55 25 l 1
 55 27 l 1
58 27 m 1
 56 27 l 1
 56 25 l 1
 57 25 l 1
 57 26 l 1
 58 26 l 1
 58 27 l 1
59 26 m 1
 58 26 l 1
 58 25 l 1
 60 25 l 1
 60 27 l 1
 59 27 l 1
 59 26 l 1
63 27 m 1
 61 27 l 1
 61 25 l 1
 63 25 l 1
 63 27 l 1
7 0 m 1
 6 0 l 1
 6 -2 l 1
 8 -2 l 1
 8 -1 l 1
 7 -1 l 1
 7 0 l 1
EndSplineSet
EndChar

StartChar: custom_1_3_0_5_6
Encoding: 23924 23924 3956
Width: 70
Flags: H
LayerCount: 2
Fore
SplineSet
17 43 m 1
 15 43 l 1
 15 41 l 1
 17 41 l 1
 17 43 l 1
17 39 m 1
 15 39 l 1
 15 37 l 1
 17 37 l 1
 17 39 l 1
23 43 m 1
 21 43 l 1
 21 41 l 1
 23 41 l 1
 23 43 l 1
23 39 m 1
 21 39 l 1
 21 37 l 1
 23 37 l 1
 23 39 l 1
31 43 m 1
 29 43 l 1
 29 41 l 1
 31 41 l 1
 31 43 l 1
31 39 m 1
 29 39 l 1
 29 37 l 1
 31 37 l 1
 31 39 l 1
17 35 m 1
 15 35 l 1
 15 33 l 1
 17 33 l 1
 17 35 l 1
17 31 m 1
 15 31 l 1
 15 29 l 1
 17 29 l 1
 17 31 l 1
17 27 m 1
 15 27 l 1
 15 25 l 1
 17 25 l 1
 17 27 l 1
23 35 m 1
 21 35 l 1
 21 33 l 1
 23 33 l 1
 23 35 l 1
25 35 m 1
 24 35 l 1
 24 33 l 1
 26 33 l 1
 26 34 l 1
 25 34 l 1
 25 35 l 1
28 35 m 1
 26 35 l 1
 26 34 l 1
 27 34 l 1
 27 33 l 1
 28 33 l 1
 28 35 l 1
31 35 m 1
 29 35 l 1
 29 33 l 1
 31 33 l 1
 31 35 l 1
36 37 m 1
 34 37 l 1
 34 35 l 1
 36 35 l 1
 36 37 l 1
31 31 m 1
 29 31 l 1
 29 29 l 1
 31 29 l 1
 31 31 l 1
36 33 m 1
 34 33 l 1
 34 31 l 1
 36 31 l 1
 36 33 l 1
31 27 m 1
 29 27 l 1
 29 25 l 1
 31 25 l 1
 31 27 l 1
49 43 m 1
 47 43 l 1
 47 41 l 1
 49 41 l 1
 49 43 l 1
49 39 m 1
 47 39 l 1
 47 37 l 1
 49 37 l 1
 49 39 l 1
55 43 m 1
 53 43 l 1
 53 41 l 1
 55 41 l 1
 55 43 l 1
58 43 m 1
 56 43 l 1
 56 41 l 1
 57 41 l 1
 57 42 l 1
 58 42 l 1
 58 43 l 1
59 42 m 1
 58 42 l 1
 58 41 l 1
 60 41 l 1
 60 43 l 1
 59 43 l 1
 59 42 l 1
63 43 m 1
 61 43 l 1
 61 41 l 1
 63 41 l 1
 63 43 l 1
63 39 m 1
 61 39 l 1
 61 37 l 1
 63 37 l 1
 63 39 l 1
49 35 m 1
 47 35 l 1
 47 33 l 1
 49 33 l 1
 49 35 l 1
49 31 m 1
 47 31 l 1
 47 29 l 1
 49 29 l 1
 49 31 l 1
49 27 m 1
 47 27 l 1
 47 25 l 1
 49 25 l 1
 49 27 l 1
55 35 m 1
 53 35 l 1
 53 33 l 1
 55 33 l 1
 55 35 l 1
57 35 m 1
 56 35 l 1
 56 33 l 1
 58 33 l 1
 58 34 l 1
 57 34 l 1
 57 35 l 1
60 35 m 1
 58 35 l 1
 58 34 l 1
 59 34 l 1
 59 33 l 1
 60 33 l 1
 60 35 l 1
63 35 m 1
 61 35 l 1
 61 33 l 1
 63 33 l 1
 63 35 l 1
63 31 m 1
 61 31 l 1
 61 29 l 1
 63 29 l 1
 63 31 l 1
55 27 m 1
 53 27 l 1
 53 25 l 1
 55 25 l 1
 55 27 l 1
58 27 m 1
 56 27 l 1
 56 25 l 1
 57 25 l 1
 57 26 l 1
 58 26 l 1
 58 27 l 1
59 26 m 1
 58 26 l 1
 58 25 l 1
 60 25 l 1
 60 27 l 1
 59 27 l 1
 59 26 l 1
63 27 m 1
 61 27 l 1
 61 25 l 1
 63 25 l 1
 63 27 l 1
8 0 m 1
 6 0 l 1
 6 -1 l 1
 7 -1 l 1
 7 -2 l 1
 8 -2 l 1
 8 0 l 1
6 -1 m 1
 5 -1 l 1
 5 -2 l 1
 6 -2 l 1
 6 -1 l 1
EndSplineSet
EndChar

StartChar: custom_1_3_0_5_7
Encoding: 23925 23925 3957
Width: 70
Flags: H
LayerCount: 2
Fore
SplineSet
17 43 m 1
 15 43 l 1
 15 41 l 1
 17 41 l 1
 17 43 l 1
17 39 m 1
 15 39 l 1
 15 37 l 1
 17 37 l 1
 17 39 l 1
23 43 m 1
 21 43 l 1
 21 41 l 1
 23 41 l 1
 23 43 l 1
23 39 m 1
 21 39 l 1
 21 37 l 1
 23 37 l 1
 23 39 l 1
31 43 m 1
 29 43 l 1
 29 41 l 1
 31 41 l 1
 31 43 l 1
31 39 m 1
 29 39 l 1
 29 37 l 1
 31 37 l 1
 31 39 l 1
17 35 m 1
 15 35 l 1
 15 33 l 1
 17 33 l 1
 17 35 l 1
17 31 m 1
 15 31 l 1
 15 29 l 1
 17 29 l 1
 17 31 l 1
17 27 m 1
 15 27 l 1
 15 25 l 1
 17 25 l 1
 17 27 l 1
23 35 m 1
 21 35 l 1
 21 33 l 1
 23 33 l 1
 23 35 l 1
25 35 m 1
 24 35 l 1
 24 33 l 1
 26 33 l 1
 26 34 l 1
 25 34 l 1
 25 35 l 1
28 35 m 1
 26 35 l 1
 26 34 l 1
 27 34 l 1
 27 33 l 1
 28 33 l 1
 28 35 l 1
31 35 m 1
 29 35 l 1
 29 33 l 1
 31 33 l 1
 31 35 l 1
36 37 m 1
 34 37 l 1
 34 35 l 1
 36 35 l 1
 36 37 l 1
31 31 m 1
 29 31 l 1
 29 29 l 1
 31 29 l 1
 31 31 l 1
36 33 m 1
 34 33 l 1
 34 31 l 1
 36 31 l 1
 36 33 l 1
31 27 m 1
 29 27 l 1
 29 25 l 1
 31 25 l 1
 31 27 l 1
49 43 m 1
 47 43 l 1
 47 41 l 1
 49 41 l 1
 49 43 l 1
49 39 m 1
 47 39 l 1
 47 37 l 1
 49 37 l 1
 49 39 l 1
55 43 m 1
 53 43 l 1
 53 41 l 1
 55 41 l 1
 55 43 l 1
58 43 m 1
 56 43 l 1
 56 41 l 1
 57 41 l 1
 57 42 l 1
 58 42 l 1
 58 43 l 1
59 42 m 1
 58 42 l 1
 58 41 l 1
 60 41 l 1
 60 43 l 1
 59 43 l 1
 59 42 l 1
63 43 m 1
 61 43 l 1
 61 41 l 1
 63 41 l 1
 63 43 l 1
63 39 m 1
 61 39 l 1
 61 37 l 1
 63 37 l 1
 63 39 l 1
49 35 m 1
 47 35 l 1
 47 33 l 1
 49 33 l 1
 49 35 l 1
49 31 m 1
 47 31 l 1
 47 29 l 1
 49 29 l 1
 49 31 l 1
49 27 m 1
 47 27 l 1
 47 25 l 1
 49 25 l 1
 49 27 l 1
55 35 m 1
 53 35 l 1
 53 33 l 1
 55 33 l 1
 55 35 l 1
57 35 m 1
 56 35 l 1
 56 33 l 1
 58 33 l 1
 58 34 l 1
 57 34 l 1
 57 35 l 1
60 35 m 1
 58 35 l 1
 58 34 l 1
 59 34 l 1
 59 33 l 1
 60 33 l 1
 60 35 l 1
63 35 m 1
 61 35 l 1
 61 33 l 1
 63 33 l 1
 63 35 l 1
63 31 m 1
 61 31 l 1
 61 29 l 1
 63 29 l 1
 63 31 l 1
55 27 m 1
 53 27 l 1
 53 25 l 1
 55 25 l 1
 55 27 l 1
58 27 m 1
 56 27 l 1
 56 25 l 1
 57 25 l 1
 57 26 l 1
 58 26 l 1
 58 27 l 1
59 26 m 1
 58 26 l 1
 58 25 l 1
 60 25 l 1
 60 27 l 1
 59 27 l 1
 59 26 l 1
63 27 m 1
 61 27 l 1
 61 25 l 1
 63 25 l 1
 63 27 l 1
8 0 m 1
 6 0 l 1
 6 -1 l 1
 7 -1 l 1
 7 -2 l 1
 9 -2 l 1
 9 -1 l 1
 8 -1 l 1
 8 0 l 1
EndSplineSet
EndChar

StartChar: custom_1_3_0_5_8
Encoding: 23926 23926 3958
Width: 70
Flags: H
LayerCount: 2
Fore
SplineSet
17 43 m 1
 15 43 l 1
 15 41 l 1
 17 41 l 1
 17 43 l 1
17 39 m 1
 15 39 l 1
 15 37 l 1
 17 37 l 1
 17 39 l 1
23 43 m 1
 21 43 l 1
 21 41 l 1
 23 41 l 1
 23 43 l 1
23 39 m 1
 21 39 l 1
 21 37 l 1
 23 37 l 1
 23 39 l 1
31 43 m 1
 29 43 l 1
 29 41 l 1
 31 41 l 1
 31 43 l 1
31 39 m 1
 29 39 l 1
 29 37 l 1
 31 37 l 1
 31 39 l 1
17 35 m 1
 15 35 l 1
 15 33 l 1
 17 33 l 1
 17 35 l 1
17 31 m 1
 15 31 l 1
 15 29 l 1
 17 29 l 1
 17 31 l 1
17 27 m 1
 15 27 l 1
 15 25 l 1
 17 25 l 1
 17 27 l 1
23 35 m 1
 21 35 l 1
 21 33 l 1
 23 33 l 1
 23 35 l 1
25 35 m 1
 24 35 l 1
 24 33 l 1
 26 33 l 1
 26 34 l 1
 25 34 l 1
 25 35 l 1
28 35 m 1
 26 35 l 1
 26 34 l 1
 27 34 l 1
 27 33 l 1
 28 33 l 1
 28 35 l 1
31 35 m 1
 29 35 l 1
 29 33 l 1
 31 33 l 1
 31 35 l 1
36 37 m 1
 34 37 l 1
 34 35 l 1
 36 35 l 1
 36 37 l 1
31 31 m 1
 29 31 l 1
 29 29 l 1
 31 29 l 1
 31 31 l 1
36 33 m 1
 34 33 l 1
 34 31 l 1
 36 31 l 1
 36 33 l 1
31 27 m 1
 29 27 l 1
 29 25 l 1
 31 25 l 1
 31 27 l 1
49 43 m 1
 47 43 l 1
 47 41 l 1
 49 41 l 1
 49 43 l 1
49 39 m 1
 47 39 l 1
 47 37 l 1
 49 37 l 1
 49 39 l 1
55 43 m 1
 53 43 l 1
 53 41 l 1
 55 41 l 1
 55 43 l 1
58 43 m 1
 56 43 l 1
 56 41 l 1
 57 41 l 1
 57 42 l 1
 58 42 l 1
 58 43 l 1
59 42 m 1
 58 42 l 1
 58 41 l 1
 60 41 l 1
 60 43 l 1
 59 43 l 1
 59 42 l 1
63 43 m 1
 61 43 l 1
 61 41 l 1
 63 41 l 1
 63 43 l 1
63 39 m 1
 61 39 l 1
 61 37 l 1
 63 37 l 1
 63 39 l 1
49 35 m 1
 47 35 l 1
 47 33 l 1
 49 33 l 1
 49 35 l 1
49 31 m 1
 47 31 l 1
 47 29 l 1
 49 29 l 1
 49 31 l 1
49 27 m 1
 47 27 l 1
 47 25 l 1
 49 25 l 1
 49 27 l 1
55 35 m 1
 53 35 l 1
 53 33 l 1
 55 33 l 1
 55 35 l 1
57 35 m 1
 56 35 l 1
 56 33 l 1
 58 33 l 1
 58 34 l 1
 57 34 l 1
 57 35 l 1
60 35 m 1
 58 35 l 1
 58 34 l 1
 59 34 l 1
 59 33 l 1
 60 33 l 1
 60 35 l 1
63 35 m 1
 61 35 l 1
 61 33 l 1
 63 33 l 1
 63 35 l 1
63 31 m 1
 61 31 l 1
 61 29 l 1
 63 29 l 1
 63 31 l 1
55 27 m 1
 53 27 l 1
 53 25 l 1
 55 25 l 1
 55 27 l 1
58 27 m 1
 56 27 l 1
 56 25 l 1
 57 25 l 1
 57 26 l 1
 58 26 l 1
 58 27 l 1
59 26 m 1
 58 26 l 1
 58 25 l 1
 60 25 l 1
 60 27 l 1
 59 27 l 1
 59 26 l 1
63 27 m 1
 61 27 l 1
 61 25 l 1
 63 25 l 1
 63 27 l 1
9 0 m 1
 6 0 l 1
 6 -1 l 1
 8 -1 l 1
 8 -2 l 1
 9 -2 l 1
 9 0 l 1
EndSplineSet
EndChar

StartChar: custom_1_3_0_5_9
Encoding: 23927 23927 3959
Width: 70
Flags: H
LayerCount: 2
Fore
SplineSet
17 43 m 1
 15 43 l 1
 15 41 l 1
 17 41 l 1
 17 43 l 1
17 39 m 1
 15 39 l 1
 15 37 l 1
 17 37 l 1
 17 39 l 1
23 43 m 1
 21 43 l 1
 21 41 l 1
 23 41 l 1
 23 43 l 1
23 39 m 1
 21 39 l 1
 21 37 l 1
 23 37 l 1
 23 39 l 1
31 43 m 1
 29 43 l 1
 29 41 l 1
 31 41 l 1
 31 43 l 1
31 39 m 1
 29 39 l 1
 29 37 l 1
 31 37 l 1
 31 39 l 1
17 35 m 1
 15 35 l 1
 15 33 l 1
 17 33 l 1
 17 35 l 1
17 31 m 1
 15 31 l 1
 15 29 l 1
 17 29 l 1
 17 31 l 1
17 27 m 1
 15 27 l 1
 15 25 l 1
 17 25 l 1
 17 27 l 1
23 35 m 1
 21 35 l 1
 21 33 l 1
 23 33 l 1
 23 35 l 1
25 35 m 1
 24 35 l 1
 24 33 l 1
 26 33 l 1
 26 34 l 1
 25 34 l 1
 25 35 l 1
28 35 m 1
 26 35 l 1
 26 34 l 1
 27 34 l 1
 27 33 l 1
 28 33 l 1
 28 35 l 1
31 35 m 1
 29 35 l 1
 29 33 l 1
 31 33 l 1
 31 35 l 1
36 37 m 1
 34 37 l 1
 34 35 l 1
 36 35 l 1
 36 37 l 1
31 31 m 1
 29 31 l 1
 29 29 l 1
 31 29 l 1
 31 31 l 1
36 33 m 1
 34 33 l 1
 34 31 l 1
 36 31 l 1
 36 33 l 1
31 27 m 1
 29 27 l 1
 29 25 l 1
 31 25 l 1
 31 27 l 1
49 43 m 1
 47 43 l 1
 47 41 l 1
 49 41 l 1
 49 43 l 1
49 39 m 1
 47 39 l 1
 47 37 l 1
 49 37 l 1
 49 39 l 1
55 43 m 1
 53 43 l 1
 53 41 l 1
 55 41 l 1
 55 43 l 1
58 43 m 1
 56 43 l 1
 56 41 l 1
 57 41 l 1
 57 42 l 1
 58 42 l 1
 58 43 l 1
59 42 m 1
 58 42 l 1
 58 41 l 1
 60 41 l 1
 60 43 l 1
 59 43 l 1
 59 42 l 1
63 43 m 1
 61 43 l 1
 61 41 l 1
 63 41 l 1
 63 43 l 1
63 39 m 1
 61 39 l 1
 61 37 l 1
 63 37 l 1
 63 39 l 1
49 35 m 1
 47 35 l 1
 47 33 l 1
 49 33 l 1
 49 35 l 1
49 31 m 1
 47 31 l 1
 47 29 l 1
 49 29 l 1
 49 31 l 1
49 27 m 1
 47 27 l 1
 47 25 l 1
 49 25 l 1
 49 27 l 1
55 35 m 1
 53 35 l 1
 53 33 l 1
 55 33 l 1
 55 35 l 1
57 35 m 1
 56 35 l 1
 56 33 l 1
 58 33 l 1
 58 34 l 1
 57 34 l 1
 57 35 l 1
60 35 m 1
 58 35 l 1
 58 34 l 1
 59 34 l 1
 59 33 l 1
 60 33 l 1
 60 35 l 1
63 35 m 1
 61 35 l 1
 61 33 l 1
 63 33 l 1
 63 35 l 1
63 31 m 1
 61 31 l 1
 61 29 l 1
 63 29 l 1
 63 31 l 1
55 27 m 1
 53 27 l 1
 53 25 l 1
 55 25 l 1
 55 27 l 1
58 27 m 1
 56 27 l 1
 56 25 l 1
 57 25 l 1
 57 26 l 1
 58 26 l 1
 58 27 l 1
59 26 m 1
 58 26 l 1
 58 25 l 1
 60 25 l 1
 60 27 l 1
 59 27 l 1
 59 26 l 1
63 27 m 1
 61 27 l 1
 61 25 l 1
 63 25 l 1
 63 27 l 1
8 1 m 1
 7 1 l 1
 7 -1 l 1
 8 -1 l 1
 8 -2 l 1
 9 -2 l 1
 9 0 l 1
 8 0 l 1
 8 1 l 1
7 -1 m 1
 6 -1 l 1
 6 -2 l 1
 7 -2 l 1
 7 -1 l 1
EndSplineSet
EndChar

StartChar: custom_1_3_0_6_0
Encoding: 23928 23928 3960
Width: 70
Flags: H
LayerCount: 2
Fore
SplineSet
17 43 m 1
 15 43 l 1
 15 41 l 1
 17 41 l 1
 17 43 l 1
17 39 m 1
 15 39 l 1
 15 37 l 1
 17 37 l 1
 17 39 l 1
23 43 m 1
 21 43 l 1
 21 41 l 1
 23 41 l 1
 23 43 l 1
23 39 m 1
 21 39 l 1
 21 37 l 1
 23 37 l 1
 23 39 l 1
31 43 m 1
 29 43 l 1
 29 41 l 1
 31 41 l 1
 31 43 l 1
31 39 m 1
 29 39 l 1
 29 37 l 1
 31 37 l 1
 31 39 l 1
17 35 m 1
 15 35 l 1
 15 33 l 1
 17 33 l 1
 17 35 l 1
17 31 m 1
 15 31 l 1
 15 29 l 1
 17 29 l 1
 17 31 l 1
17 27 m 1
 15 27 l 1
 15 25 l 1
 17 25 l 1
 17 27 l 1
23 35 m 1
 21 35 l 1
 21 33 l 1
 23 33 l 1
 23 35 l 1
25 35 m 1
 24 35 l 1
 24 33 l 1
 26 33 l 1
 26 34 l 1
 25 34 l 1
 25 35 l 1
28 35 m 1
 26 35 l 1
 26 34 l 1
 27 34 l 1
 27 33 l 1
 28 33 l 1
 28 35 l 1
31 35 m 1
 29 35 l 1
 29 33 l 1
 31 33 l 1
 31 35 l 1
36 37 m 1
 34 37 l 1
 34 35 l 1
 36 35 l 1
 36 37 l 1
31 31 m 1
 29 31 l 1
 29 29 l 1
 31 29 l 1
 31 31 l 1
36 33 m 1
 34 33 l 1
 34 31 l 1
 36 31 l 1
 36 33 l 1
31 27 m 1
 29 27 l 1
 29 25 l 1
 31 25 l 1
 31 27 l 1
49 43 m 1
 47 43 l 1
 47 41 l 1
 49 41 l 1
 49 43 l 1
49 39 m 1
 47 39 l 1
 47 37 l 1
 49 37 l 1
 49 39 l 1
55 43 m 1
 53 43 l 1
 53 41 l 1
 55 41 l 1
 55 43 l 1
58 43 m 1
 56 43 l 1
 56 41 l 1
 57 41 l 1
 57 42 l 1
 58 42 l 1
 58 43 l 1
59 42 m 1
 58 42 l 1
 58 41 l 1
 60 41 l 1
 60 43 l 1
 59 43 l 1
 59 42 l 1
63 43 m 1
 61 43 l 1
 61 41 l 1
 63 41 l 1
 63 43 l 1
63 39 m 1
 61 39 l 1
 61 37 l 1
 63 37 l 1
 63 39 l 1
49 35 m 1
 47 35 l 1
 47 33 l 1
 49 33 l 1
 49 35 l 1
49 31 m 1
 47 31 l 1
 47 29 l 1
 49 29 l 1
 49 31 l 1
49 27 m 1
 47 27 l 1
 47 25 l 1
 49 25 l 1
 49 27 l 1
55 35 m 1
 53 35 l 1
 53 33 l 1
 55 33 l 1
 55 35 l 1
57 35 m 1
 56 35 l 1
 56 33 l 1
 58 33 l 1
 58 34 l 1
 57 34 l 1
 57 35 l 1
60 35 m 1
 58 35 l 1
 58 34 l 1
 59 34 l 1
 59 33 l 1
 60 33 l 1
 60 35 l 1
63 35 m 1
 61 35 l 1
 61 33 l 1
 63 33 l 1
 63 35 l 1
63 31 m 1
 61 31 l 1
 61 29 l 1
 63 29 l 1
 63 31 l 1
55 27 m 1
 53 27 l 1
 53 25 l 1
 55 25 l 1
 55 27 l 1
58 27 m 1
 56 27 l 1
 56 25 l 1
 57 25 l 1
 57 26 l 1
 58 26 l 1
 58 27 l 1
59 26 m 1
 58 26 l 1
 58 25 l 1
 60 25 l 1
 60 27 l 1
 59 27 l 1
 59 26 l 1
63 27 m 1
 61 27 l 1
 61 25 l 1
 63 25 l 1
 63 27 l 1
7 0 m 1
 6 0 l 1
 6 -1 l 1
 7 -1 l 1
 7 0 l 1
9 1 m 1
 7 1 l 1
 7 0 l 1
 8 0 l 1
 8 -2 l 1
 9 -2 l 1
 9 1 l 1
EndSplineSet
EndChar

StartChar: custom_1_3_0_6_1
Encoding: 23929 23929 3961
Width: 70
Flags: H
LayerCount: 2
Fore
SplineSet
17 43 m 1
 15 43 l 1
 15 41 l 1
 17 41 l 1
 17 43 l 1
17 39 m 1
 15 39 l 1
 15 37 l 1
 17 37 l 1
 17 39 l 1
23 43 m 1
 21 43 l 1
 21 41 l 1
 23 41 l 1
 23 43 l 1
23 39 m 1
 21 39 l 1
 21 37 l 1
 23 37 l 1
 23 39 l 1
31 43 m 1
 29 43 l 1
 29 41 l 1
 31 41 l 1
 31 43 l 1
31 39 m 1
 29 39 l 1
 29 37 l 1
 31 37 l 1
 31 39 l 1
17 35 m 1
 15 35 l 1
 15 33 l 1
 17 33 l 1
 17 35 l 1
17 31 m 1
 15 31 l 1
 15 29 l 1
 17 29 l 1
 17 31 l 1
17 27 m 1
 15 27 l 1
 15 25 l 1
 17 25 l 1
 17 27 l 1
23 35 m 1
 21 35 l 1
 21 33 l 1
 23 33 l 1
 23 35 l 1
25 35 m 1
 24 35 l 1
 24 33 l 1
 26 33 l 1
 26 34 l 1
 25 34 l 1
 25 35 l 1
28 35 m 1
 26 35 l 1
 26 34 l 1
 27 34 l 1
 27 33 l 1
 28 33 l 1
 28 35 l 1
31 35 m 1
 29 35 l 1
 29 33 l 1
 31 33 l 1
 31 35 l 1
36 37 m 1
 34 37 l 1
 34 35 l 1
 36 35 l 1
 36 37 l 1
31 31 m 1
 29 31 l 1
 29 29 l 1
 31 29 l 1
 31 31 l 1
36 33 m 1
 34 33 l 1
 34 31 l 1
 36 31 l 1
 36 33 l 1
31 27 m 1
 29 27 l 1
 29 25 l 1
 31 25 l 1
 31 27 l 1
49 43 m 1
 47 43 l 1
 47 41 l 1
 49 41 l 1
 49 43 l 1
49 39 m 1
 47 39 l 1
 47 37 l 1
 49 37 l 1
 49 39 l 1
55 43 m 1
 53 43 l 1
 53 41 l 1
 55 41 l 1
 55 43 l 1
58 43 m 1
 56 43 l 1
 56 41 l 1
 57 41 l 1
 57 42 l 1
 58 42 l 1
 58 43 l 1
59 42 m 1
 58 42 l 1
 58 41 l 1
 60 41 l 1
 60 43 l 1
 59 43 l 1
 59 42 l 1
63 43 m 1
 61 43 l 1
 61 41 l 1
 63 41 l 1
 63 43 l 1
63 39 m 1
 61 39 l 1
 61 37 l 1
 63 37 l 1
 63 39 l 1
49 35 m 1
 47 35 l 1
 47 33 l 1
 49 33 l 1
 49 35 l 1
49 31 m 1
 47 31 l 1
 47 29 l 1
 49 29 l 1
 49 31 l 1
49 27 m 1
 47 27 l 1
 47 25 l 1
 49 25 l 1
 49 27 l 1
55 35 m 1
 53 35 l 1
 53 33 l 1
 55 33 l 1
 55 35 l 1
57 35 m 1
 56 35 l 1
 56 33 l 1
 58 33 l 1
 58 34 l 1
 57 34 l 1
 57 35 l 1
60 35 m 1
 58 35 l 1
 58 34 l 1
 59 34 l 1
 59 33 l 1
 60 33 l 1
 60 35 l 1
63 35 m 1
 61 35 l 1
 61 33 l 1
 63 33 l 1
 63 35 l 1
63 31 m 1
 61 31 l 1
 61 29 l 1
 63 29 l 1
 63 31 l 1
55 27 m 1
 53 27 l 1
 53 25 l 1
 55 25 l 1
 55 27 l 1
58 27 m 1
 56 27 l 1
 56 25 l 1
 57 25 l 1
 57 26 l 1
 58 26 l 1
 58 27 l 1
59 26 m 1
 58 26 l 1
 58 25 l 1
 60 25 l 1
 60 27 l 1
 59 27 l 1
 59 26 l 1
63 27 m 1
 61 27 l 1
 61 25 l 1
 63 25 l 1
 63 27 l 1
9 1 m 1
 7 1 l 1
 7 0 l 1
 8 0 l 1
 8 -1 l 1
 10 -1 l 1
 10 0 l 1
 9 0 l 1
 9 1 l 1
8 -1 m 1
 7 -1 l 1
 7 -2 l 1
 8 -2 l 1
 8 -1 l 1
EndSplineSet
EndChar

StartChar: custom_1_3_0_6_2
Encoding: 23930 23930 3962
Width: 70
Flags: H
LayerCount: 2
Fore
SplineSet
17 43 m 1
 15 43 l 1
 15 41 l 1
 17 41 l 1
 17 43 l 1
17 39 m 1
 15 39 l 1
 15 37 l 1
 17 37 l 1
 17 39 l 1
23 43 m 1
 21 43 l 1
 21 41 l 1
 23 41 l 1
 23 43 l 1
23 39 m 1
 21 39 l 1
 21 37 l 1
 23 37 l 1
 23 39 l 1
31 43 m 1
 29 43 l 1
 29 41 l 1
 31 41 l 1
 31 43 l 1
31 39 m 1
 29 39 l 1
 29 37 l 1
 31 37 l 1
 31 39 l 1
17 35 m 1
 15 35 l 1
 15 33 l 1
 17 33 l 1
 17 35 l 1
17 31 m 1
 15 31 l 1
 15 29 l 1
 17 29 l 1
 17 31 l 1
17 27 m 1
 15 27 l 1
 15 25 l 1
 17 25 l 1
 17 27 l 1
23 35 m 1
 21 35 l 1
 21 33 l 1
 23 33 l 1
 23 35 l 1
25 35 m 1
 24 35 l 1
 24 33 l 1
 26 33 l 1
 26 34 l 1
 25 34 l 1
 25 35 l 1
28 35 m 1
 26 35 l 1
 26 34 l 1
 27 34 l 1
 27 33 l 1
 28 33 l 1
 28 35 l 1
31 35 m 1
 29 35 l 1
 29 33 l 1
 31 33 l 1
 31 35 l 1
36 37 m 1
 34 37 l 1
 34 35 l 1
 36 35 l 1
 36 37 l 1
31 31 m 1
 29 31 l 1
 29 29 l 1
 31 29 l 1
 31 31 l 1
36 33 m 1
 34 33 l 1
 34 31 l 1
 36 31 l 1
 36 33 l 1
31 27 m 1
 29 27 l 1
 29 25 l 1
 31 25 l 1
 31 27 l 1
49 43 m 1
 47 43 l 1
 47 41 l 1
 49 41 l 1
 49 43 l 1
49 39 m 1
 47 39 l 1
 47 37 l 1
 49 37 l 1
 49 39 l 1
55 43 m 1
 53 43 l 1
 53 41 l 1
 55 41 l 1
 55 43 l 1
58 43 m 1
 56 43 l 1
 56 41 l 1
 57 41 l 1
 57 42 l 1
 58 42 l 1
 58 43 l 1
59 42 m 1
 58 42 l 1
 58 41 l 1
 60 41 l 1
 60 43 l 1
 59 43 l 1
 59 42 l 1
63 43 m 1
 61 43 l 1
 61 41 l 1
 63 41 l 1
 63 43 l 1
63 39 m 1
 61 39 l 1
 61 37 l 1
 63 37 l 1
 63 39 l 1
49 35 m 1
 47 35 l 1
 47 33 l 1
 49 33 l 1
 49 35 l 1
49 31 m 1
 47 31 l 1
 47 29 l 1
 49 29 l 1
 49 31 l 1
49 27 m 1
 47 27 l 1
 47 25 l 1
 49 25 l 1
 49 27 l 1
55 35 m 1
 53 35 l 1
 53 33 l 1
 55 33 l 1
 55 35 l 1
57 35 m 1
 56 35 l 1
 56 33 l 1
 58 33 l 1
 58 34 l 1
 57 34 l 1
 57 35 l 1
60 35 m 1
 58 35 l 1
 58 34 l 1
 59 34 l 1
 59 33 l 1
 60 33 l 1
 60 35 l 1
63 35 m 1
 61 35 l 1
 61 33 l 1
 63 33 l 1
 63 35 l 1
63 31 m 1
 61 31 l 1
 61 29 l 1
 63 29 l 1
 63 31 l 1
55 27 m 1
 53 27 l 1
 53 25 l 1
 55 25 l 1
 55 27 l 1
58 27 m 1
 56 27 l 1
 56 25 l 1
 57 25 l 1
 57 26 l 1
 58 26 l 1
 58 27 l 1
59 26 m 1
 58 26 l 1
 58 25 l 1
 60 25 l 1
 60 27 l 1
 59 27 l 1
 59 26 l 1
63 27 m 1
 61 27 l 1
 61 25 l 1
 63 25 l 1
 63 27 l 1
10 1 m 1
 7 1 l 1
 7 0 l 1
 9 0 l 1
 9 -1 l 1
 10 -1 l 1
 10 1 l 1
9 -1 m 1
 8 -1 l 1
 8 -2 l 1
 9 -2 l 1
 9 -1 l 1
EndSplineSet
EndChar

StartChar: custom_1_3_0_6_3
Encoding: 23931 23931 3963
Width: 70
Flags: H
LayerCount: 2
Fore
SplineSet
17 43 m 1
 15 43 l 1
 15 41 l 1
 17 41 l 1
 17 43 l 1
17 39 m 1
 15 39 l 1
 15 37 l 1
 17 37 l 1
 17 39 l 1
23 43 m 1
 21 43 l 1
 21 41 l 1
 23 41 l 1
 23 43 l 1
23 39 m 1
 21 39 l 1
 21 37 l 1
 23 37 l 1
 23 39 l 1
31 43 m 1
 29 43 l 1
 29 41 l 1
 31 41 l 1
 31 43 l 1
31 39 m 1
 29 39 l 1
 29 37 l 1
 31 37 l 1
 31 39 l 1
17 35 m 1
 15 35 l 1
 15 33 l 1
 17 33 l 1
 17 35 l 1
17 31 m 1
 15 31 l 1
 15 29 l 1
 17 29 l 1
 17 31 l 1
17 27 m 1
 15 27 l 1
 15 25 l 1
 17 25 l 1
 17 27 l 1
23 35 m 1
 21 35 l 1
 21 33 l 1
 23 33 l 1
 23 35 l 1
25 35 m 1
 24 35 l 1
 24 33 l 1
 26 33 l 1
 26 34 l 1
 25 34 l 1
 25 35 l 1
28 35 m 1
 26 35 l 1
 26 34 l 1
 27 34 l 1
 27 33 l 1
 28 33 l 1
 28 35 l 1
31 35 m 1
 29 35 l 1
 29 33 l 1
 31 33 l 1
 31 35 l 1
36 37 m 1
 34 37 l 1
 34 35 l 1
 36 35 l 1
 36 37 l 1
31 31 m 1
 29 31 l 1
 29 29 l 1
 31 29 l 1
 31 31 l 1
36 33 m 1
 34 33 l 1
 34 31 l 1
 36 31 l 1
 36 33 l 1
31 27 m 1
 29 27 l 1
 29 25 l 1
 31 25 l 1
 31 27 l 1
49 43 m 1
 47 43 l 1
 47 41 l 1
 49 41 l 1
 49 43 l 1
49 39 m 1
 47 39 l 1
 47 37 l 1
 49 37 l 1
 49 39 l 1
55 43 m 1
 53 43 l 1
 53 41 l 1
 55 41 l 1
 55 43 l 1
58 43 m 1
 56 43 l 1
 56 41 l 1
 57 41 l 1
 57 42 l 1
 58 42 l 1
 58 43 l 1
59 42 m 1
 58 42 l 1
 58 41 l 1
 60 41 l 1
 60 43 l 1
 59 43 l 1
 59 42 l 1
63 43 m 1
 61 43 l 1
 61 41 l 1
 63 41 l 1
 63 43 l 1
63 39 m 1
 61 39 l 1
 61 37 l 1
 63 37 l 1
 63 39 l 1
49 35 m 1
 47 35 l 1
 47 33 l 1
 49 33 l 1
 49 35 l 1
49 31 m 1
 47 31 l 1
 47 29 l 1
 49 29 l 1
 49 31 l 1
49 27 m 1
 47 27 l 1
 47 25 l 1
 49 25 l 1
 49 27 l 1
55 35 m 1
 53 35 l 1
 53 33 l 1
 55 33 l 1
 55 35 l 1
57 35 m 1
 56 35 l 1
 56 33 l 1
 58 33 l 1
 58 34 l 1
 57 34 l 1
 57 35 l 1
60 35 m 1
 58 35 l 1
 58 34 l 1
 59 34 l 1
 59 33 l 1
 60 33 l 1
 60 35 l 1
63 35 m 1
 61 35 l 1
 61 33 l 1
 63 33 l 1
 63 35 l 1
63 31 m 1
 61 31 l 1
 61 29 l 1
 63 29 l 1
 63 31 l 1
55 27 m 1
 53 27 l 1
 53 25 l 1
 55 25 l 1
 55 27 l 1
58 27 m 1
 56 27 l 1
 56 25 l 1
 57 25 l 1
 57 26 l 1
 58 26 l 1
 58 27 l 1
59 26 m 1
 58 26 l 1
 58 25 l 1
 60 25 l 1
 60 27 l 1
 59 27 l 1
 59 26 l 1
63 27 m 1
 61 27 l 1
 61 25 l 1
 63 25 l 1
 63 27 l 1
9 2 m 1
 8 2 l 1
 8 0 l 1
 9 0 l 1
 9 -1 l 1
 10 -1 l 1
 10 1 l 1
 9 1 l 1
 9 2 l 1
8 0 m 1
 7 0 l 1
 7 -1 l 1
 8 -1 l 1
 8 0 l 1
EndSplineSet
EndChar

StartChar: custom_1_3_0_6_4
Encoding: 23932 23932 3964
Width: 70
Flags: H
LayerCount: 2
Fore
SplineSet
17 43 m 1
 15 43 l 1
 15 41 l 1
 17 41 l 1
 17 43 l 1
17 39 m 1
 15 39 l 1
 15 37 l 1
 17 37 l 1
 17 39 l 1
23 43 m 1
 21 43 l 1
 21 41 l 1
 23 41 l 1
 23 43 l 1
23 39 m 1
 21 39 l 1
 21 37 l 1
 23 37 l 1
 23 39 l 1
31 43 m 1
 29 43 l 1
 29 41 l 1
 31 41 l 1
 31 43 l 1
31 39 m 1
 29 39 l 1
 29 37 l 1
 31 37 l 1
 31 39 l 1
17 35 m 1
 15 35 l 1
 15 33 l 1
 17 33 l 1
 17 35 l 1
17 31 m 1
 15 31 l 1
 15 29 l 1
 17 29 l 1
 17 31 l 1
17 27 m 1
 15 27 l 1
 15 25 l 1
 17 25 l 1
 17 27 l 1
23 35 m 1
 21 35 l 1
 21 33 l 1
 23 33 l 1
 23 35 l 1
25 35 m 1
 24 35 l 1
 24 33 l 1
 26 33 l 1
 26 34 l 1
 25 34 l 1
 25 35 l 1
28 35 m 1
 26 35 l 1
 26 34 l 1
 27 34 l 1
 27 33 l 1
 28 33 l 1
 28 35 l 1
31 35 m 1
 29 35 l 1
 29 33 l 1
 31 33 l 1
 31 35 l 1
36 37 m 1
 34 37 l 1
 34 35 l 1
 36 35 l 1
 36 37 l 1
31 31 m 1
 29 31 l 1
 29 29 l 1
 31 29 l 1
 31 31 l 1
36 33 m 1
 34 33 l 1
 34 31 l 1
 36 31 l 1
 36 33 l 1
31 27 m 1
 29 27 l 1
 29 25 l 1
 31 25 l 1
 31 27 l 1
49 43 m 1
 47 43 l 1
 47 41 l 1
 49 41 l 1
 49 43 l 1
49 39 m 1
 47 39 l 1
 47 37 l 1
 49 37 l 1
 49 39 l 1
55 43 m 1
 53 43 l 1
 53 41 l 1
 55 41 l 1
 55 43 l 1
58 43 m 1
 56 43 l 1
 56 41 l 1
 57 41 l 1
 57 42 l 1
 58 42 l 1
 58 43 l 1
59 42 m 1
 58 42 l 1
 58 41 l 1
 60 41 l 1
 60 43 l 1
 59 43 l 1
 59 42 l 1
63 43 m 1
 61 43 l 1
 61 41 l 1
 63 41 l 1
 63 43 l 1
63 39 m 1
 61 39 l 1
 61 37 l 1
 63 37 l 1
 63 39 l 1
49 35 m 1
 47 35 l 1
 47 33 l 1
 49 33 l 1
 49 35 l 1
49 31 m 1
 47 31 l 1
 47 29 l 1
 49 29 l 1
 49 31 l 1
49 27 m 1
 47 27 l 1
 47 25 l 1
 49 25 l 1
 49 27 l 1
55 35 m 1
 53 35 l 1
 53 33 l 1
 55 33 l 1
 55 35 l 1
57 35 m 1
 56 35 l 1
 56 33 l 1
 58 33 l 1
 58 34 l 1
 57 34 l 1
 57 35 l 1
60 35 m 1
 58 35 l 1
 58 34 l 1
 59 34 l 1
 59 33 l 1
 60 33 l 1
 60 35 l 1
63 35 m 1
 61 35 l 1
 61 33 l 1
 63 33 l 1
 63 35 l 1
63 31 m 1
 61 31 l 1
 61 29 l 1
 63 29 l 1
 63 31 l 1
55 27 m 1
 53 27 l 1
 53 25 l 1
 55 25 l 1
 55 27 l 1
58 27 m 1
 56 27 l 1
 56 25 l 1
 57 25 l 1
 57 26 l 1
 58 26 l 1
 58 27 l 1
59 26 m 1
 58 26 l 1
 58 25 l 1
 60 25 l 1
 60 27 l 1
 59 27 l 1
 59 26 l 1
63 27 m 1
 61 27 l 1
 61 25 l 1
 63 25 l 1
 63 27 l 1
10 2 m 1
 8 2 l 1
 8 1 l 1
 9 1 l 1
 9 -1 l 1
 10 -1 l 1
 10 2 l 1
8 1 m 1
 7 1 l 1
 7 0 l 1
 8 0 l 1
 8 1 l 1
EndSplineSet
EndChar

StartChar: custom_1_3_0_6_5
Encoding: 23933 23933 3965
Width: 70
Flags: H
LayerCount: 2
Fore
SplineSet
17 43 m 1
 15 43 l 1
 15 41 l 1
 17 41 l 1
 17 43 l 1
17 39 m 1
 15 39 l 1
 15 37 l 1
 17 37 l 1
 17 39 l 1
23 43 m 1
 21 43 l 1
 21 41 l 1
 23 41 l 1
 23 43 l 1
23 39 m 1
 21 39 l 1
 21 37 l 1
 23 37 l 1
 23 39 l 1
31 43 m 1
 29 43 l 1
 29 41 l 1
 31 41 l 1
 31 43 l 1
31 39 m 1
 29 39 l 1
 29 37 l 1
 31 37 l 1
 31 39 l 1
17 35 m 1
 15 35 l 1
 15 33 l 1
 17 33 l 1
 17 35 l 1
17 31 m 1
 15 31 l 1
 15 29 l 1
 17 29 l 1
 17 31 l 1
17 27 m 1
 15 27 l 1
 15 25 l 1
 17 25 l 1
 17 27 l 1
23 35 m 1
 21 35 l 1
 21 33 l 1
 23 33 l 1
 23 35 l 1
25 35 m 1
 24 35 l 1
 24 33 l 1
 26 33 l 1
 26 34 l 1
 25 34 l 1
 25 35 l 1
28 35 m 1
 26 35 l 1
 26 34 l 1
 27 34 l 1
 27 33 l 1
 28 33 l 1
 28 35 l 1
31 35 m 1
 29 35 l 1
 29 33 l 1
 31 33 l 1
 31 35 l 1
36 37 m 1
 34 37 l 1
 34 35 l 1
 36 35 l 1
 36 37 l 1
31 31 m 1
 29 31 l 1
 29 29 l 1
 31 29 l 1
 31 31 l 1
36 33 m 1
 34 33 l 1
 34 31 l 1
 36 31 l 1
 36 33 l 1
31 27 m 1
 29 27 l 1
 29 25 l 1
 31 25 l 1
 31 27 l 1
49 43 m 1
 47 43 l 1
 47 41 l 1
 49 41 l 1
 49 43 l 1
49 39 m 1
 47 39 l 1
 47 37 l 1
 49 37 l 1
 49 39 l 1
55 43 m 1
 53 43 l 1
 53 41 l 1
 55 41 l 1
 55 43 l 1
58 43 m 1
 56 43 l 1
 56 41 l 1
 57 41 l 1
 57 42 l 1
 58 42 l 1
 58 43 l 1
59 42 m 1
 58 42 l 1
 58 41 l 1
 60 41 l 1
 60 43 l 1
 59 43 l 1
 59 42 l 1
63 43 m 1
 61 43 l 1
 61 41 l 1
 63 41 l 1
 63 43 l 1
63 39 m 1
 61 39 l 1
 61 37 l 1
 63 37 l 1
 63 39 l 1
49 35 m 1
 47 35 l 1
 47 33 l 1
 49 33 l 1
 49 35 l 1
49 31 m 1
 47 31 l 1
 47 29 l 1
 49 29 l 1
 49 31 l 1
49 27 m 1
 47 27 l 1
 47 25 l 1
 49 25 l 1
 49 27 l 1
55 35 m 1
 53 35 l 1
 53 33 l 1
 55 33 l 1
 55 35 l 1
57 35 m 1
 56 35 l 1
 56 33 l 1
 58 33 l 1
 58 34 l 1
 57 34 l 1
 57 35 l 1
60 35 m 1
 58 35 l 1
 58 34 l 1
 59 34 l 1
 59 33 l 1
 60 33 l 1
 60 35 l 1
63 35 m 1
 61 35 l 1
 61 33 l 1
 63 33 l 1
 63 35 l 1
63 31 m 1
 61 31 l 1
 61 29 l 1
 63 29 l 1
 63 31 l 1
55 27 m 1
 53 27 l 1
 53 25 l 1
 55 25 l 1
 55 27 l 1
58 27 m 1
 56 27 l 1
 56 25 l 1
 57 25 l 1
 57 26 l 1
 58 26 l 1
 58 27 l 1
59 26 m 1
 58 26 l 1
 58 25 l 1
 60 25 l 1
 60 27 l 1
 59 27 l 1
 59 26 l 1
63 27 m 1
 61 27 l 1
 61 25 l 1
 63 25 l 1
 63 27 l 1
10 2 m 1
 8 2 l 1
 8 1 l 1
 9 1 l 1
 9 0 l 1
 11 0 l 1
 11 1 l 1
 10 1 l 1
 10 2 l 1
9 0 m 1
 8 0 l 1
 8 -1 l 1
 9 -1 l 1
 9 0 l 1
EndSplineSet
EndChar

StartChar: custom_1_3_0_6_6
Encoding: 23934 23934 3966
Width: 70
Flags: H
LayerCount: 2
Fore
SplineSet
17 43 m 1
 15 43 l 1
 15 41 l 1
 17 41 l 1
 17 43 l 1
17 39 m 1
 15 39 l 1
 15 37 l 1
 17 37 l 1
 17 39 l 1
23 43 m 1
 21 43 l 1
 21 41 l 1
 23 41 l 1
 23 43 l 1
23 39 m 1
 21 39 l 1
 21 37 l 1
 23 37 l 1
 23 39 l 1
31 43 m 1
 29 43 l 1
 29 41 l 1
 31 41 l 1
 31 43 l 1
31 39 m 1
 29 39 l 1
 29 37 l 1
 31 37 l 1
 31 39 l 1
17 35 m 1
 15 35 l 1
 15 33 l 1
 17 33 l 1
 17 35 l 1
17 31 m 1
 15 31 l 1
 15 29 l 1
 17 29 l 1
 17 31 l 1
17 27 m 1
 15 27 l 1
 15 25 l 1
 17 25 l 1
 17 27 l 1
23 35 m 1
 21 35 l 1
 21 33 l 1
 23 33 l 1
 23 35 l 1
25 35 m 1
 24 35 l 1
 24 33 l 1
 26 33 l 1
 26 34 l 1
 25 34 l 1
 25 35 l 1
28 35 m 1
 26 35 l 1
 26 34 l 1
 27 34 l 1
 27 33 l 1
 28 33 l 1
 28 35 l 1
31 35 m 1
 29 35 l 1
 29 33 l 1
 31 33 l 1
 31 35 l 1
36 37 m 1
 34 37 l 1
 34 35 l 1
 36 35 l 1
 36 37 l 1
31 31 m 1
 29 31 l 1
 29 29 l 1
 31 29 l 1
 31 31 l 1
36 33 m 1
 34 33 l 1
 34 31 l 1
 36 31 l 1
 36 33 l 1
31 27 m 1
 29 27 l 1
 29 25 l 1
 31 25 l 1
 31 27 l 1
49 43 m 1
 47 43 l 1
 47 41 l 1
 49 41 l 1
 49 43 l 1
49 39 m 1
 47 39 l 1
 47 37 l 1
 49 37 l 1
 49 39 l 1
55 43 m 1
 53 43 l 1
 53 41 l 1
 55 41 l 1
 55 43 l 1
58 43 m 1
 56 43 l 1
 56 41 l 1
 57 41 l 1
 57 42 l 1
 58 42 l 1
 58 43 l 1
59 42 m 1
 58 42 l 1
 58 41 l 1
 60 41 l 1
 60 43 l 1
 59 43 l 1
 59 42 l 1
63 43 m 1
 61 43 l 1
 61 41 l 1
 63 41 l 1
 63 43 l 1
63 39 m 1
 61 39 l 1
 61 37 l 1
 63 37 l 1
 63 39 l 1
49 35 m 1
 47 35 l 1
 47 33 l 1
 49 33 l 1
 49 35 l 1
49 31 m 1
 47 31 l 1
 47 29 l 1
 49 29 l 1
 49 31 l 1
49 27 m 1
 47 27 l 1
 47 25 l 1
 49 25 l 1
 49 27 l 1
55 35 m 1
 53 35 l 1
 53 33 l 1
 55 33 l 1
 55 35 l 1
57 35 m 1
 56 35 l 1
 56 33 l 1
 58 33 l 1
 58 34 l 1
 57 34 l 1
 57 35 l 1
60 35 m 1
 58 35 l 1
 58 34 l 1
 59 34 l 1
 59 33 l 1
 60 33 l 1
 60 35 l 1
63 35 m 1
 61 35 l 1
 61 33 l 1
 63 33 l 1
 63 35 l 1
63 31 m 1
 61 31 l 1
 61 29 l 1
 63 29 l 1
 63 31 l 1
55 27 m 1
 53 27 l 1
 53 25 l 1
 55 25 l 1
 55 27 l 1
58 27 m 1
 56 27 l 1
 56 25 l 1
 57 25 l 1
 57 26 l 1
 58 26 l 1
 58 27 l 1
59 26 m 1
 58 26 l 1
 58 25 l 1
 60 25 l 1
 60 27 l 1
 59 27 l 1
 59 26 l 1
63 27 m 1
 61 27 l 1
 61 25 l 1
 63 25 l 1
 63 27 l 1
11 2 m 1
 8 2 l 1
 8 1 l 1
 10 1 l 1
 10 0 l 1
 11 0 l 1
 11 2 l 1
10 0 m 1
 9 0 l 1
 9 -1 l 1
 10 -1 l 1
 10 0 l 1
EndSplineSet
EndChar

StartChar: custom_1_3_0_6_7
Encoding: 23935 23935 3967
Width: 70
Flags: H
LayerCount: 2
Fore
SplineSet
17 43 m 1
 15 43 l 1
 15 41 l 1
 17 41 l 1
 17 43 l 1
17 39 m 1
 15 39 l 1
 15 37 l 1
 17 37 l 1
 17 39 l 1
23 43 m 1
 21 43 l 1
 21 41 l 1
 23 41 l 1
 23 43 l 1
23 39 m 1
 21 39 l 1
 21 37 l 1
 23 37 l 1
 23 39 l 1
31 43 m 1
 29 43 l 1
 29 41 l 1
 31 41 l 1
 31 43 l 1
31 39 m 1
 29 39 l 1
 29 37 l 1
 31 37 l 1
 31 39 l 1
17 35 m 1
 15 35 l 1
 15 33 l 1
 17 33 l 1
 17 35 l 1
17 31 m 1
 15 31 l 1
 15 29 l 1
 17 29 l 1
 17 31 l 1
17 27 m 1
 15 27 l 1
 15 25 l 1
 17 25 l 1
 17 27 l 1
23 35 m 1
 21 35 l 1
 21 33 l 1
 23 33 l 1
 23 35 l 1
25 35 m 1
 24 35 l 1
 24 33 l 1
 26 33 l 1
 26 34 l 1
 25 34 l 1
 25 35 l 1
28 35 m 1
 26 35 l 1
 26 34 l 1
 27 34 l 1
 27 33 l 1
 28 33 l 1
 28 35 l 1
31 35 m 1
 29 35 l 1
 29 33 l 1
 31 33 l 1
 31 35 l 1
36 37 m 1
 34 37 l 1
 34 35 l 1
 36 35 l 1
 36 37 l 1
31 31 m 1
 29 31 l 1
 29 29 l 1
 31 29 l 1
 31 31 l 1
36 33 m 1
 34 33 l 1
 34 31 l 1
 36 31 l 1
 36 33 l 1
31 27 m 1
 29 27 l 1
 29 25 l 1
 31 25 l 1
 31 27 l 1
49 43 m 1
 47 43 l 1
 47 41 l 1
 49 41 l 1
 49 43 l 1
49 39 m 1
 47 39 l 1
 47 37 l 1
 49 37 l 1
 49 39 l 1
55 43 m 1
 53 43 l 1
 53 41 l 1
 55 41 l 1
 55 43 l 1
58 43 m 1
 56 43 l 1
 56 41 l 1
 57 41 l 1
 57 42 l 1
 58 42 l 1
 58 43 l 1
59 42 m 1
 58 42 l 1
 58 41 l 1
 60 41 l 1
 60 43 l 1
 59 43 l 1
 59 42 l 1
63 43 m 1
 61 43 l 1
 61 41 l 1
 63 41 l 1
 63 43 l 1
63 39 m 1
 61 39 l 1
 61 37 l 1
 63 37 l 1
 63 39 l 1
49 35 m 1
 47 35 l 1
 47 33 l 1
 49 33 l 1
 49 35 l 1
49 31 m 1
 47 31 l 1
 47 29 l 1
 49 29 l 1
 49 31 l 1
49 27 m 1
 47 27 l 1
 47 25 l 1
 49 25 l 1
 49 27 l 1
55 35 m 1
 53 35 l 1
 53 33 l 1
 55 33 l 1
 55 35 l 1
57 35 m 1
 56 35 l 1
 56 33 l 1
 58 33 l 1
 58 34 l 1
 57 34 l 1
 57 35 l 1
60 35 m 1
 58 35 l 1
 58 34 l 1
 59 34 l 1
 59 33 l 1
 60 33 l 1
 60 35 l 1
63 35 m 1
 61 35 l 1
 61 33 l 1
 63 33 l 1
 63 35 l 1
63 31 m 1
 61 31 l 1
 61 29 l 1
 63 29 l 1
 63 31 l 1
55 27 m 1
 53 27 l 1
 53 25 l 1
 55 25 l 1
 55 27 l 1
58 27 m 1
 56 27 l 1
 56 25 l 1
 57 25 l 1
 57 26 l 1
 58 26 l 1
 58 27 l 1
59 26 m 1
 58 26 l 1
 58 25 l 1
 60 25 l 1
 60 27 l 1
 59 27 l 1
 59 26 l 1
63 27 m 1
 61 27 l 1
 61 25 l 1
 63 25 l 1
 63 27 l 1
10 3 m 1
 9 3 l 1
 9 1 l 1
 10 1 l 1
 10 0 l 1
 11 0 l 1
 11 2 l 1
 10 2 l 1
 10 3 l 1
9 1 m 1
 8 1 l 1
 8 0 l 1
 9 0 l 1
 9 1 l 1
EndSplineSet
EndChar

StartChar: custom_1_3_0_6_8
Encoding: 23936 23936 3968
Width: 70
Flags: H
LayerCount: 2
Fore
SplineSet
17 43 m 1
 15 43 l 1
 15 41 l 1
 17 41 l 1
 17 43 l 1
17 39 m 1
 15 39 l 1
 15 37 l 1
 17 37 l 1
 17 39 l 1
23 43 m 1
 21 43 l 1
 21 41 l 1
 23 41 l 1
 23 43 l 1
23 39 m 1
 21 39 l 1
 21 37 l 1
 23 37 l 1
 23 39 l 1
31 43 m 1
 29 43 l 1
 29 41 l 1
 31 41 l 1
 31 43 l 1
31 39 m 1
 29 39 l 1
 29 37 l 1
 31 37 l 1
 31 39 l 1
17 35 m 1
 15 35 l 1
 15 33 l 1
 17 33 l 1
 17 35 l 1
17 31 m 1
 15 31 l 1
 15 29 l 1
 17 29 l 1
 17 31 l 1
17 27 m 1
 15 27 l 1
 15 25 l 1
 17 25 l 1
 17 27 l 1
23 35 m 1
 21 35 l 1
 21 33 l 1
 23 33 l 1
 23 35 l 1
25 35 m 1
 24 35 l 1
 24 33 l 1
 26 33 l 1
 26 34 l 1
 25 34 l 1
 25 35 l 1
28 35 m 1
 26 35 l 1
 26 34 l 1
 27 34 l 1
 27 33 l 1
 28 33 l 1
 28 35 l 1
31 35 m 1
 29 35 l 1
 29 33 l 1
 31 33 l 1
 31 35 l 1
36 37 m 1
 34 37 l 1
 34 35 l 1
 36 35 l 1
 36 37 l 1
31 31 m 1
 29 31 l 1
 29 29 l 1
 31 29 l 1
 31 31 l 1
36 33 m 1
 34 33 l 1
 34 31 l 1
 36 31 l 1
 36 33 l 1
31 27 m 1
 29 27 l 1
 29 25 l 1
 31 25 l 1
 31 27 l 1
49 43 m 1
 47 43 l 1
 47 41 l 1
 49 41 l 1
 49 43 l 1
49 39 m 1
 47 39 l 1
 47 37 l 1
 49 37 l 1
 49 39 l 1
55 43 m 1
 53 43 l 1
 53 41 l 1
 55 41 l 1
 55 43 l 1
58 43 m 1
 56 43 l 1
 56 41 l 1
 57 41 l 1
 57 42 l 1
 58 42 l 1
 58 43 l 1
59 42 m 1
 58 42 l 1
 58 41 l 1
 60 41 l 1
 60 43 l 1
 59 43 l 1
 59 42 l 1
63 43 m 1
 61 43 l 1
 61 41 l 1
 63 41 l 1
 63 43 l 1
63 39 m 1
 61 39 l 1
 61 37 l 1
 63 37 l 1
 63 39 l 1
49 35 m 1
 47 35 l 1
 47 33 l 1
 49 33 l 1
 49 35 l 1
49 31 m 1
 47 31 l 1
 47 29 l 1
 49 29 l 1
 49 31 l 1
49 27 m 1
 47 27 l 1
 47 25 l 1
 49 25 l 1
 49 27 l 1
55 35 m 1
 53 35 l 1
 53 33 l 1
 55 33 l 1
 55 35 l 1
57 35 m 1
 56 35 l 1
 56 33 l 1
 58 33 l 1
 58 34 l 1
 57 34 l 1
 57 35 l 1
60 35 m 1
 58 35 l 1
 58 34 l 1
 59 34 l 1
 59 33 l 1
 60 33 l 1
 60 35 l 1
63 35 m 1
 61 35 l 1
 61 33 l 1
 63 33 l 1
 63 35 l 1
63 31 m 1
 61 31 l 1
 61 29 l 1
 63 29 l 1
 63 31 l 1
55 27 m 1
 53 27 l 1
 53 25 l 1
 55 25 l 1
 55 27 l 1
58 27 m 1
 56 27 l 1
 56 25 l 1
 57 25 l 1
 57 26 l 1
 58 26 l 1
 58 27 l 1
59 26 m 1
 58 26 l 1
 58 25 l 1
 60 25 l 1
 60 27 l 1
 59 27 l 1
 59 26 l 1
63 27 m 1
 61 27 l 1
 61 25 l 1
 63 25 l 1
 63 27 l 1
9 2 m 1
 8 2 l 1
 8 1 l 1
 9 1 l 1
 9 2 l 1
11 3 m 1
 9 3 l 1
 9 2 l 1
 10 2 l 1
 10 0 l 1
 11 0 l 1
 11 3 l 1
EndSplineSet
EndChar

StartChar: custom_1_3_0_6_9
Encoding: 23937 23937 3969
Width: 70
Flags: H
LayerCount: 2
Fore
SplineSet
17 43 m 1
 15 43 l 1
 15 41 l 1
 17 41 l 1
 17 43 l 1
17 39 m 1
 15 39 l 1
 15 37 l 1
 17 37 l 1
 17 39 l 1
23 43 m 1
 21 43 l 1
 21 41 l 1
 23 41 l 1
 23 43 l 1
23 39 m 1
 21 39 l 1
 21 37 l 1
 23 37 l 1
 23 39 l 1
31 43 m 1
 29 43 l 1
 29 41 l 1
 31 41 l 1
 31 43 l 1
31 39 m 1
 29 39 l 1
 29 37 l 1
 31 37 l 1
 31 39 l 1
17 35 m 1
 15 35 l 1
 15 33 l 1
 17 33 l 1
 17 35 l 1
17 31 m 1
 15 31 l 1
 15 29 l 1
 17 29 l 1
 17 31 l 1
17 27 m 1
 15 27 l 1
 15 25 l 1
 17 25 l 1
 17 27 l 1
23 35 m 1
 21 35 l 1
 21 33 l 1
 23 33 l 1
 23 35 l 1
25 35 m 1
 24 35 l 1
 24 33 l 1
 26 33 l 1
 26 34 l 1
 25 34 l 1
 25 35 l 1
28 35 m 1
 26 35 l 1
 26 34 l 1
 27 34 l 1
 27 33 l 1
 28 33 l 1
 28 35 l 1
31 35 m 1
 29 35 l 1
 29 33 l 1
 31 33 l 1
 31 35 l 1
36 37 m 1
 34 37 l 1
 34 35 l 1
 36 35 l 1
 36 37 l 1
31 31 m 1
 29 31 l 1
 29 29 l 1
 31 29 l 1
 31 31 l 1
36 33 m 1
 34 33 l 1
 34 31 l 1
 36 31 l 1
 36 33 l 1
31 27 m 1
 29 27 l 1
 29 25 l 1
 31 25 l 1
 31 27 l 1
49 43 m 1
 47 43 l 1
 47 41 l 1
 49 41 l 1
 49 43 l 1
49 39 m 1
 47 39 l 1
 47 37 l 1
 49 37 l 1
 49 39 l 1
55 43 m 1
 53 43 l 1
 53 41 l 1
 55 41 l 1
 55 43 l 1
58 43 m 1
 56 43 l 1
 56 41 l 1
 57 41 l 1
 57 42 l 1
 58 42 l 1
 58 43 l 1
59 42 m 1
 58 42 l 1
 58 41 l 1
 60 41 l 1
 60 43 l 1
 59 43 l 1
 59 42 l 1
63 43 m 1
 61 43 l 1
 61 41 l 1
 63 41 l 1
 63 43 l 1
63 39 m 1
 61 39 l 1
 61 37 l 1
 63 37 l 1
 63 39 l 1
49 35 m 1
 47 35 l 1
 47 33 l 1
 49 33 l 1
 49 35 l 1
49 31 m 1
 47 31 l 1
 47 29 l 1
 49 29 l 1
 49 31 l 1
49 27 m 1
 47 27 l 1
 47 25 l 1
 49 25 l 1
 49 27 l 1
55 35 m 1
 53 35 l 1
 53 33 l 1
 55 33 l 1
 55 35 l 1
57 35 m 1
 56 35 l 1
 56 33 l 1
 58 33 l 1
 58 34 l 1
 57 34 l 1
 57 35 l 1
60 35 m 1
 58 35 l 1
 58 34 l 1
 59 34 l 1
 59 33 l 1
 60 33 l 1
 60 35 l 1
63 35 m 1
 61 35 l 1
 61 33 l 1
 63 33 l 1
 63 35 l 1
63 31 m 1
 61 31 l 1
 61 29 l 1
 63 29 l 1
 63 31 l 1
55 27 m 1
 53 27 l 1
 53 25 l 1
 55 25 l 1
 55 27 l 1
58 27 m 1
 56 27 l 1
 56 25 l 1
 57 25 l 1
 57 26 l 1
 58 26 l 1
 58 27 l 1
59 26 m 1
 58 26 l 1
 58 25 l 1
 60 25 l 1
 60 27 l 1
 59 27 l 1
 59 26 l 1
63 27 m 1
 61 27 l 1
 61 25 l 1
 63 25 l 1
 63 27 l 1
11 3 m 1
 9 3 l 1
 9 2 l 1
 10 2 l 1
 10 1 l 1
 12 1 l 1
 12 2 l 1
 11 2 l 1
 11 3 l 1
10 1 m 1
 9 1 l 1
 9 0 l 1
 10 0 l 1
 10 1 l 1
EndSplineSet
EndChar

StartChar: custom_1_3_0_7_0
Encoding: 23938 23938 3970
Width: 70
Flags: H
LayerCount: 2
Fore
SplineSet
17 43 m 1
 15 43 l 1
 15 41 l 1
 17 41 l 1
 17 43 l 1
17 39 m 1
 15 39 l 1
 15 37 l 1
 17 37 l 1
 17 39 l 1
23 43 m 1
 21 43 l 1
 21 41 l 1
 23 41 l 1
 23 43 l 1
23 39 m 1
 21 39 l 1
 21 37 l 1
 23 37 l 1
 23 39 l 1
31 43 m 1
 29 43 l 1
 29 41 l 1
 31 41 l 1
 31 43 l 1
31 39 m 1
 29 39 l 1
 29 37 l 1
 31 37 l 1
 31 39 l 1
17 35 m 1
 15 35 l 1
 15 33 l 1
 17 33 l 1
 17 35 l 1
17 31 m 1
 15 31 l 1
 15 29 l 1
 17 29 l 1
 17 31 l 1
17 27 m 1
 15 27 l 1
 15 25 l 1
 17 25 l 1
 17 27 l 1
23 35 m 1
 21 35 l 1
 21 33 l 1
 23 33 l 1
 23 35 l 1
25 35 m 1
 24 35 l 1
 24 33 l 1
 26 33 l 1
 26 34 l 1
 25 34 l 1
 25 35 l 1
28 35 m 1
 26 35 l 1
 26 34 l 1
 27 34 l 1
 27 33 l 1
 28 33 l 1
 28 35 l 1
31 35 m 1
 29 35 l 1
 29 33 l 1
 31 33 l 1
 31 35 l 1
36 37 m 1
 34 37 l 1
 34 35 l 1
 36 35 l 1
 36 37 l 1
31 31 m 1
 29 31 l 1
 29 29 l 1
 31 29 l 1
 31 31 l 1
36 33 m 1
 34 33 l 1
 34 31 l 1
 36 31 l 1
 36 33 l 1
31 27 m 1
 29 27 l 1
 29 25 l 1
 31 25 l 1
 31 27 l 1
49 43 m 1
 47 43 l 1
 47 41 l 1
 49 41 l 1
 49 43 l 1
49 39 m 1
 47 39 l 1
 47 37 l 1
 49 37 l 1
 49 39 l 1
55 43 m 1
 53 43 l 1
 53 41 l 1
 55 41 l 1
 55 43 l 1
58 43 m 1
 56 43 l 1
 56 41 l 1
 57 41 l 1
 57 42 l 1
 58 42 l 1
 58 43 l 1
59 42 m 1
 58 42 l 1
 58 41 l 1
 60 41 l 1
 60 43 l 1
 59 43 l 1
 59 42 l 1
63 43 m 1
 61 43 l 1
 61 41 l 1
 63 41 l 1
 63 43 l 1
63 39 m 1
 61 39 l 1
 61 37 l 1
 63 37 l 1
 63 39 l 1
49 35 m 1
 47 35 l 1
 47 33 l 1
 49 33 l 1
 49 35 l 1
49 31 m 1
 47 31 l 1
 47 29 l 1
 49 29 l 1
 49 31 l 1
49 27 m 1
 47 27 l 1
 47 25 l 1
 49 25 l 1
 49 27 l 1
55 35 m 1
 53 35 l 1
 53 33 l 1
 55 33 l 1
 55 35 l 1
57 35 m 1
 56 35 l 1
 56 33 l 1
 58 33 l 1
 58 34 l 1
 57 34 l 1
 57 35 l 1
60 35 m 1
 58 35 l 1
 58 34 l 1
 59 34 l 1
 59 33 l 1
 60 33 l 1
 60 35 l 1
63 35 m 1
 61 35 l 1
 61 33 l 1
 63 33 l 1
 63 35 l 1
63 31 m 1
 61 31 l 1
 61 29 l 1
 63 29 l 1
 63 31 l 1
55 27 m 1
 53 27 l 1
 53 25 l 1
 55 25 l 1
 55 27 l 1
58 27 m 1
 56 27 l 1
 56 25 l 1
 57 25 l 1
 57 26 l 1
 58 26 l 1
 58 27 l 1
59 26 m 1
 58 26 l 1
 58 25 l 1
 60 25 l 1
 60 27 l 1
 59 27 l 1
 59 26 l 1
63 27 m 1
 61 27 l 1
 61 25 l 1
 63 25 l 1
 63 27 l 1
12 3 m 1
 9 3 l 1
 9 2 l 1
 11 2 l 1
 11 1 l 1
 12 1 l 1
 12 3 l 1
11 1 m 1
 10 1 l 1
 10 0 l 1
 11 0 l 1
 11 1 l 1
EndSplineSet
EndChar

StartChar: custom_1_3_0_7_1
Encoding: 23939 23939 3971
Width: 70
Flags: H
LayerCount: 2
Fore
SplineSet
17 43 m 1
 15 43 l 1
 15 41 l 1
 17 41 l 1
 17 43 l 1
17 39 m 1
 15 39 l 1
 15 37 l 1
 17 37 l 1
 17 39 l 1
23 43 m 1
 21 43 l 1
 21 41 l 1
 23 41 l 1
 23 43 l 1
23 39 m 1
 21 39 l 1
 21 37 l 1
 23 37 l 1
 23 39 l 1
31 43 m 1
 29 43 l 1
 29 41 l 1
 31 41 l 1
 31 43 l 1
31 39 m 1
 29 39 l 1
 29 37 l 1
 31 37 l 1
 31 39 l 1
17 35 m 1
 15 35 l 1
 15 33 l 1
 17 33 l 1
 17 35 l 1
17 31 m 1
 15 31 l 1
 15 29 l 1
 17 29 l 1
 17 31 l 1
17 27 m 1
 15 27 l 1
 15 25 l 1
 17 25 l 1
 17 27 l 1
23 35 m 1
 21 35 l 1
 21 33 l 1
 23 33 l 1
 23 35 l 1
25 35 m 1
 24 35 l 1
 24 33 l 1
 26 33 l 1
 26 34 l 1
 25 34 l 1
 25 35 l 1
28 35 m 1
 26 35 l 1
 26 34 l 1
 27 34 l 1
 27 33 l 1
 28 33 l 1
 28 35 l 1
31 35 m 1
 29 35 l 1
 29 33 l 1
 31 33 l 1
 31 35 l 1
36 37 m 1
 34 37 l 1
 34 35 l 1
 36 35 l 1
 36 37 l 1
31 31 m 1
 29 31 l 1
 29 29 l 1
 31 29 l 1
 31 31 l 1
36 33 m 1
 34 33 l 1
 34 31 l 1
 36 31 l 1
 36 33 l 1
31 27 m 1
 29 27 l 1
 29 25 l 1
 31 25 l 1
 31 27 l 1
49 43 m 1
 47 43 l 1
 47 41 l 1
 49 41 l 1
 49 43 l 1
49 39 m 1
 47 39 l 1
 47 37 l 1
 49 37 l 1
 49 39 l 1
55 43 m 1
 53 43 l 1
 53 41 l 1
 55 41 l 1
 55 43 l 1
58 43 m 1
 56 43 l 1
 56 41 l 1
 57 41 l 1
 57 42 l 1
 58 42 l 1
 58 43 l 1
59 42 m 1
 58 42 l 1
 58 41 l 1
 60 41 l 1
 60 43 l 1
 59 43 l 1
 59 42 l 1
63 43 m 1
 61 43 l 1
 61 41 l 1
 63 41 l 1
 63 43 l 1
63 39 m 1
 61 39 l 1
 61 37 l 1
 63 37 l 1
 63 39 l 1
49 35 m 1
 47 35 l 1
 47 33 l 1
 49 33 l 1
 49 35 l 1
49 31 m 1
 47 31 l 1
 47 29 l 1
 49 29 l 1
 49 31 l 1
49 27 m 1
 47 27 l 1
 47 25 l 1
 49 25 l 1
 49 27 l 1
55 35 m 1
 53 35 l 1
 53 33 l 1
 55 33 l 1
 55 35 l 1
57 35 m 1
 56 35 l 1
 56 33 l 1
 58 33 l 1
 58 34 l 1
 57 34 l 1
 57 35 l 1
60 35 m 1
 58 35 l 1
 58 34 l 1
 59 34 l 1
 59 33 l 1
 60 33 l 1
 60 35 l 1
63 35 m 1
 61 35 l 1
 61 33 l 1
 63 33 l 1
 63 35 l 1
63 31 m 1
 61 31 l 1
 61 29 l 1
 63 29 l 1
 63 31 l 1
55 27 m 1
 53 27 l 1
 53 25 l 1
 55 25 l 1
 55 27 l 1
58 27 m 1
 56 27 l 1
 56 25 l 1
 57 25 l 1
 57 26 l 1
 58 26 l 1
 58 27 l 1
59 26 m 1
 58 26 l 1
 58 25 l 1
 60 25 l 1
 60 27 l 1
 59 27 l 1
 59 26 l 1
63 27 m 1
 61 27 l 1
 61 25 l 1
 63 25 l 1
 63 27 l 1
11 4 m 1
 10 4 l 1
 10 2 l 1
 11 2 l 1
 11 1 l 1
 12 1 l 1
 12 3 l 1
 11 3 l 1
 11 4 l 1
10 2 m 1
 9 2 l 1
 9 1 l 1
 10 1 l 1
 10 2 l 1
EndSplineSet
EndChar

StartChar: custom_1_3_0_7_2
Encoding: 23940 23940 3972
Width: 70
Flags: H
LayerCount: 2
Fore
SplineSet
17 43 m 1
 15 43 l 1
 15 41 l 1
 17 41 l 1
 17 43 l 1
17 39 m 1
 15 39 l 1
 15 37 l 1
 17 37 l 1
 17 39 l 1
23 43 m 1
 21 43 l 1
 21 41 l 1
 23 41 l 1
 23 43 l 1
23 39 m 1
 21 39 l 1
 21 37 l 1
 23 37 l 1
 23 39 l 1
31 43 m 1
 29 43 l 1
 29 41 l 1
 31 41 l 1
 31 43 l 1
31 39 m 1
 29 39 l 1
 29 37 l 1
 31 37 l 1
 31 39 l 1
17 35 m 1
 15 35 l 1
 15 33 l 1
 17 33 l 1
 17 35 l 1
17 31 m 1
 15 31 l 1
 15 29 l 1
 17 29 l 1
 17 31 l 1
17 27 m 1
 15 27 l 1
 15 25 l 1
 17 25 l 1
 17 27 l 1
23 35 m 1
 21 35 l 1
 21 33 l 1
 23 33 l 1
 23 35 l 1
25 35 m 1
 24 35 l 1
 24 33 l 1
 26 33 l 1
 26 34 l 1
 25 34 l 1
 25 35 l 1
28 35 m 1
 26 35 l 1
 26 34 l 1
 27 34 l 1
 27 33 l 1
 28 33 l 1
 28 35 l 1
31 35 m 1
 29 35 l 1
 29 33 l 1
 31 33 l 1
 31 35 l 1
36 37 m 1
 34 37 l 1
 34 35 l 1
 36 35 l 1
 36 37 l 1
31 31 m 1
 29 31 l 1
 29 29 l 1
 31 29 l 1
 31 31 l 1
36 33 m 1
 34 33 l 1
 34 31 l 1
 36 31 l 1
 36 33 l 1
31 27 m 1
 29 27 l 1
 29 25 l 1
 31 25 l 1
 31 27 l 1
49 43 m 1
 47 43 l 1
 47 41 l 1
 49 41 l 1
 49 43 l 1
49 39 m 1
 47 39 l 1
 47 37 l 1
 49 37 l 1
 49 39 l 1
55 43 m 1
 53 43 l 1
 53 41 l 1
 55 41 l 1
 55 43 l 1
58 43 m 1
 56 43 l 1
 56 41 l 1
 57 41 l 1
 57 42 l 1
 58 42 l 1
 58 43 l 1
59 42 m 1
 58 42 l 1
 58 41 l 1
 60 41 l 1
 60 43 l 1
 59 43 l 1
 59 42 l 1
63 43 m 1
 61 43 l 1
 61 41 l 1
 63 41 l 1
 63 43 l 1
63 39 m 1
 61 39 l 1
 61 37 l 1
 63 37 l 1
 63 39 l 1
49 35 m 1
 47 35 l 1
 47 33 l 1
 49 33 l 1
 49 35 l 1
49 31 m 1
 47 31 l 1
 47 29 l 1
 49 29 l 1
 49 31 l 1
49 27 m 1
 47 27 l 1
 47 25 l 1
 49 25 l 1
 49 27 l 1
55 35 m 1
 53 35 l 1
 53 33 l 1
 55 33 l 1
 55 35 l 1
57 35 m 1
 56 35 l 1
 56 33 l 1
 58 33 l 1
 58 34 l 1
 57 34 l 1
 57 35 l 1
60 35 m 1
 58 35 l 1
 58 34 l 1
 59 34 l 1
 59 33 l 1
 60 33 l 1
 60 35 l 1
63 35 m 1
 61 35 l 1
 61 33 l 1
 63 33 l 1
 63 35 l 1
63 31 m 1
 61 31 l 1
 61 29 l 1
 63 29 l 1
 63 31 l 1
55 27 m 1
 53 27 l 1
 53 25 l 1
 55 25 l 1
 55 27 l 1
58 27 m 1
 56 27 l 1
 56 25 l 1
 57 25 l 1
 57 26 l 1
 58 26 l 1
 58 27 l 1
59 26 m 1
 58 26 l 1
 58 25 l 1
 60 25 l 1
 60 27 l 1
 59 27 l 1
 59 26 l 1
63 27 m 1
 61 27 l 1
 61 25 l 1
 63 25 l 1
 63 27 l 1
12 4 m 1
 10 4 l 1
 10 3 l 1
 11 3 l 1
 11 1 l 1
 12 1 l 1
 12 4 l 1
10 3 m 1
 9 3 l 1
 9 2 l 1
 10 2 l 1
 10 3 l 1
EndSplineSet
EndChar

StartChar: custom_1_3_0_7_3
Encoding: 23941 23941 3973
Width: 70
Flags: H
LayerCount: 2
Fore
SplineSet
17 43 m 1
 15 43 l 1
 15 41 l 1
 17 41 l 1
 17 43 l 1
17 39 m 1
 15 39 l 1
 15 37 l 1
 17 37 l 1
 17 39 l 1
23 43 m 1
 21 43 l 1
 21 41 l 1
 23 41 l 1
 23 43 l 1
23 39 m 1
 21 39 l 1
 21 37 l 1
 23 37 l 1
 23 39 l 1
31 43 m 1
 29 43 l 1
 29 41 l 1
 31 41 l 1
 31 43 l 1
31 39 m 1
 29 39 l 1
 29 37 l 1
 31 37 l 1
 31 39 l 1
17 35 m 1
 15 35 l 1
 15 33 l 1
 17 33 l 1
 17 35 l 1
17 31 m 1
 15 31 l 1
 15 29 l 1
 17 29 l 1
 17 31 l 1
17 27 m 1
 15 27 l 1
 15 25 l 1
 17 25 l 1
 17 27 l 1
23 35 m 1
 21 35 l 1
 21 33 l 1
 23 33 l 1
 23 35 l 1
25 35 m 1
 24 35 l 1
 24 33 l 1
 26 33 l 1
 26 34 l 1
 25 34 l 1
 25 35 l 1
28 35 m 1
 26 35 l 1
 26 34 l 1
 27 34 l 1
 27 33 l 1
 28 33 l 1
 28 35 l 1
31 35 m 1
 29 35 l 1
 29 33 l 1
 31 33 l 1
 31 35 l 1
36 37 m 1
 34 37 l 1
 34 35 l 1
 36 35 l 1
 36 37 l 1
31 31 m 1
 29 31 l 1
 29 29 l 1
 31 29 l 1
 31 31 l 1
36 33 m 1
 34 33 l 1
 34 31 l 1
 36 31 l 1
 36 33 l 1
31 27 m 1
 29 27 l 1
 29 25 l 1
 31 25 l 1
 31 27 l 1
49 43 m 1
 47 43 l 1
 47 41 l 1
 49 41 l 1
 49 43 l 1
49 39 m 1
 47 39 l 1
 47 37 l 1
 49 37 l 1
 49 39 l 1
55 43 m 1
 53 43 l 1
 53 41 l 1
 55 41 l 1
 55 43 l 1
58 43 m 1
 56 43 l 1
 56 41 l 1
 57 41 l 1
 57 42 l 1
 58 42 l 1
 58 43 l 1
59 42 m 1
 58 42 l 1
 58 41 l 1
 60 41 l 1
 60 43 l 1
 59 43 l 1
 59 42 l 1
63 43 m 1
 61 43 l 1
 61 41 l 1
 63 41 l 1
 63 43 l 1
63 39 m 1
 61 39 l 1
 61 37 l 1
 63 37 l 1
 63 39 l 1
49 35 m 1
 47 35 l 1
 47 33 l 1
 49 33 l 1
 49 35 l 1
49 31 m 1
 47 31 l 1
 47 29 l 1
 49 29 l 1
 49 31 l 1
49 27 m 1
 47 27 l 1
 47 25 l 1
 49 25 l 1
 49 27 l 1
55 35 m 1
 53 35 l 1
 53 33 l 1
 55 33 l 1
 55 35 l 1
57 35 m 1
 56 35 l 1
 56 33 l 1
 58 33 l 1
 58 34 l 1
 57 34 l 1
 57 35 l 1
60 35 m 1
 58 35 l 1
 58 34 l 1
 59 34 l 1
 59 33 l 1
 60 33 l 1
 60 35 l 1
63 35 m 1
 61 35 l 1
 61 33 l 1
 63 33 l 1
 63 35 l 1
63 31 m 1
 61 31 l 1
 61 29 l 1
 63 29 l 1
 63 31 l 1
55 27 m 1
 53 27 l 1
 53 25 l 1
 55 25 l 1
 55 27 l 1
58 27 m 1
 56 27 l 1
 56 25 l 1
 57 25 l 1
 57 26 l 1
 58 26 l 1
 58 27 l 1
59 26 m 1
 58 26 l 1
 58 25 l 1
 60 25 l 1
 60 27 l 1
 59 27 l 1
 59 26 l 1
63 27 m 1
 61 27 l 1
 61 25 l 1
 63 25 l 1
 63 27 l 1
12 4 m 1
 10 4 l 1
 10 3 l 1
 11 3 l 1
 11 2 l 1
 13 2 l 1
 13 3 l 1
 12 3 l 1
 12 4 l 1
11 2 m 1
 10 2 l 1
 10 1 l 1
 11 1 l 1
 11 2 l 1
EndSplineSet
EndChar

StartChar: custom_1_3_0_7_4
Encoding: 23942 23942 3974
Width: 70
Flags: H
LayerCount: 2
Fore
SplineSet
17 43 m 1
 15 43 l 1
 15 41 l 1
 17 41 l 1
 17 43 l 1
17 39 m 1
 15 39 l 1
 15 37 l 1
 17 37 l 1
 17 39 l 1
23 43 m 1
 21 43 l 1
 21 41 l 1
 23 41 l 1
 23 43 l 1
23 39 m 1
 21 39 l 1
 21 37 l 1
 23 37 l 1
 23 39 l 1
31 43 m 1
 29 43 l 1
 29 41 l 1
 31 41 l 1
 31 43 l 1
31 39 m 1
 29 39 l 1
 29 37 l 1
 31 37 l 1
 31 39 l 1
17 35 m 1
 15 35 l 1
 15 33 l 1
 17 33 l 1
 17 35 l 1
17 31 m 1
 15 31 l 1
 15 29 l 1
 17 29 l 1
 17 31 l 1
17 27 m 1
 15 27 l 1
 15 25 l 1
 17 25 l 1
 17 27 l 1
23 35 m 1
 21 35 l 1
 21 33 l 1
 23 33 l 1
 23 35 l 1
25 35 m 1
 24 35 l 1
 24 33 l 1
 26 33 l 1
 26 34 l 1
 25 34 l 1
 25 35 l 1
28 35 m 1
 26 35 l 1
 26 34 l 1
 27 34 l 1
 27 33 l 1
 28 33 l 1
 28 35 l 1
31 35 m 1
 29 35 l 1
 29 33 l 1
 31 33 l 1
 31 35 l 1
36 37 m 1
 34 37 l 1
 34 35 l 1
 36 35 l 1
 36 37 l 1
31 31 m 1
 29 31 l 1
 29 29 l 1
 31 29 l 1
 31 31 l 1
36 33 m 1
 34 33 l 1
 34 31 l 1
 36 31 l 1
 36 33 l 1
31 27 m 1
 29 27 l 1
 29 25 l 1
 31 25 l 1
 31 27 l 1
49 43 m 1
 47 43 l 1
 47 41 l 1
 49 41 l 1
 49 43 l 1
49 39 m 1
 47 39 l 1
 47 37 l 1
 49 37 l 1
 49 39 l 1
55 43 m 1
 53 43 l 1
 53 41 l 1
 55 41 l 1
 55 43 l 1
58 43 m 1
 56 43 l 1
 56 41 l 1
 57 41 l 1
 57 42 l 1
 58 42 l 1
 58 43 l 1
59 42 m 1
 58 42 l 1
 58 41 l 1
 60 41 l 1
 60 43 l 1
 59 43 l 1
 59 42 l 1
63 43 m 1
 61 43 l 1
 61 41 l 1
 63 41 l 1
 63 43 l 1
63 39 m 1
 61 39 l 1
 61 37 l 1
 63 37 l 1
 63 39 l 1
49 35 m 1
 47 35 l 1
 47 33 l 1
 49 33 l 1
 49 35 l 1
49 31 m 1
 47 31 l 1
 47 29 l 1
 49 29 l 1
 49 31 l 1
49 27 m 1
 47 27 l 1
 47 25 l 1
 49 25 l 1
 49 27 l 1
55 35 m 1
 53 35 l 1
 53 33 l 1
 55 33 l 1
 55 35 l 1
57 35 m 1
 56 35 l 1
 56 33 l 1
 58 33 l 1
 58 34 l 1
 57 34 l 1
 57 35 l 1
60 35 m 1
 58 35 l 1
 58 34 l 1
 59 34 l 1
 59 33 l 1
 60 33 l 1
 60 35 l 1
63 35 m 1
 61 35 l 1
 61 33 l 1
 63 33 l 1
 63 35 l 1
63 31 m 1
 61 31 l 1
 61 29 l 1
 63 29 l 1
 63 31 l 1
55 27 m 1
 53 27 l 1
 53 25 l 1
 55 25 l 1
 55 27 l 1
58 27 m 1
 56 27 l 1
 56 25 l 1
 57 25 l 1
 57 26 l 1
 58 26 l 1
 58 27 l 1
59 26 m 1
 58 26 l 1
 58 25 l 1
 60 25 l 1
 60 27 l 1
 59 27 l 1
 59 26 l 1
63 27 m 1
 61 27 l 1
 61 25 l 1
 63 25 l 1
 63 27 l 1
13 4 m 1
 10 4 l 1
 10 3 l 1
 12 3 l 1
 12 2 l 1
 13 2 l 1
 13 4 l 1
12 2 m 1
 11 2 l 1
 11 1 l 1
 12 1 l 1
 12 2 l 1
EndSplineSet
EndChar

StartChar: custom_1_3_0_7_5
Encoding: 23943 23943 3975
Width: 70
Flags: H
LayerCount: 2
Fore
SplineSet
17 43 m 1
 15 43 l 1
 15 41 l 1
 17 41 l 1
 17 43 l 1
17 39 m 1
 15 39 l 1
 15 37 l 1
 17 37 l 1
 17 39 l 1
23 43 m 1
 21 43 l 1
 21 41 l 1
 23 41 l 1
 23 43 l 1
23 39 m 1
 21 39 l 1
 21 37 l 1
 23 37 l 1
 23 39 l 1
31 43 m 1
 29 43 l 1
 29 41 l 1
 31 41 l 1
 31 43 l 1
31 39 m 1
 29 39 l 1
 29 37 l 1
 31 37 l 1
 31 39 l 1
17 35 m 1
 15 35 l 1
 15 33 l 1
 17 33 l 1
 17 35 l 1
17 31 m 1
 15 31 l 1
 15 29 l 1
 17 29 l 1
 17 31 l 1
17 27 m 1
 15 27 l 1
 15 25 l 1
 17 25 l 1
 17 27 l 1
23 35 m 1
 21 35 l 1
 21 33 l 1
 23 33 l 1
 23 35 l 1
25 35 m 1
 24 35 l 1
 24 33 l 1
 26 33 l 1
 26 34 l 1
 25 34 l 1
 25 35 l 1
28 35 m 1
 26 35 l 1
 26 34 l 1
 27 34 l 1
 27 33 l 1
 28 33 l 1
 28 35 l 1
31 35 m 1
 29 35 l 1
 29 33 l 1
 31 33 l 1
 31 35 l 1
36 37 m 1
 34 37 l 1
 34 35 l 1
 36 35 l 1
 36 37 l 1
31 31 m 1
 29 31 l 1
 29 29 l 1
 31 29 l 1
 31 31 l 1
36 33 m 1
 34 33 l 1
 34 31 l 1
 36 31 l 1
 36 33 l 1
31 27 m 1
 29 27 l 1
 29 25 l 1
 31 25 l 1
 31 27 l 1
49 43 m 1
 47 43 l 1
 47 41 l 1
 49 41 l 1
 49 43 l 1
49 39 m 1
 47 39 l 1
 47 37 l 1
 49 37 l 1
 49 39 l 1
55 43 m 1
 53 43 l 1
 53 41 l 1
 55 41 l 1
 55 43 l 1
58 43 m 1
 56 43 l 1
 56 41 l 1
 57 41 l 1
 57 42 l 1
 58 42 l 1
 58 43 l 1
59 42 m 1
 58 42 l 1
 58 41 l 1
 60 41 l 1
 60 43 l 1
 59 43 l 1
 59 42 l 1
63 43 m 1
 61 43 l 1
 61 41 l 1
 63 41 l 1
 63 43 l 1
63 39 m 1
 61 39 l 1
 61 37 l 1
 63 37 l 1
 63 39 l 1
49 35 m 1
 47 35 l 1
 47 33 l 1
 49 33 l 1
 49 35 l 1
49 31 m 1
 47 31 l 1
 47 29 l 1
 49 29 l 1
 49 31 l 1
49 27 m 1
 47 27 l 1
 47 25 l 1
 49 25 l 1
 49 27 l 1
55 35 m 1
 53 35 l 1
 53 33 l 1
 55 33 l 1
 55 35 l 1
57 35 m 1
 56 35 l 1
 56 33 l 1
 58 33 l 1
 58 34 l 1
 57 34 l 1
 57 35 l 1
60 35 m 1
 58 35 l 1
 58 34 l 1
 59 34 l 1
 59 33 l 1
 60 33 l 1
 60 35 l 1
63 35 m 1
 61 35 l 1
 61 33 l 1
 63 33 l 1
 63 35 l 1
63 31 m 1
 61 31 l 1
 61 29 l 1
 63 29 l 1
 63 31 l 1
55 27 m 1
 53 27 l 1
 53 25 l 1
 55 25 l 1
 55 27 l 1
58 27 m 1
 56 27 l 1
 56 25 l 1
 57 25 l 1
 57 26 l 1
 58 26 l 1
 58 27 l 1
59 26 m 1
 58 26 l 1
 58 25 l 1
 60 25 l 1
 60 27 l 1
 59 27 l 1
 59 26 l 1
63 27 m 1
 61 27 l 1
 61 25 l 1
 63 25 l 1
 63 27 l 1
12 5 m 1
 11 5 l 1
 11 3 l 1
 12 3 l 1
 12 2 l 1
 13 2 l 1
 13 4 l 1
 12 4 l 1
 12 5 l 1
11 3 m 1
 10 3 l 1
 10 2 l 1
 11 2 l 1
 11 3 l 1
EndSplineSet
EndChar

StartChar: custom_1_3_0_7_6
Encoding: 23944 23944 3976
Width: 70
Flags: H
LayerCount: 2
Fore
SplineSet
17 43 m 1
 15 43 l 1
 15 41 l 1
 17 41 l 1
 17 43 l 1
17 39 m 1
 15 39 l 1
 15 37 l 1
 17 37 l 1
 17 39 l 1
23 43 m 1
 21 43 l 1
 21 41 l 1
 23 41 l 1
 23 43 l 1
23 39 m 1
 21 39 l 1
 21 37 l 1
 23 37 l 1
 23 39 l 1
31 43 m 1
 29 43 l 1
 29 41 l 1
 31 41 l 1
 31 43 l 1
31 39 m 1
 29 39 l 1
 29 37 l 1
 31 37 l 1
 31 39 l 1
17 35 m 1
 15 35 l 1
 15 33 l 1
 17 33 l 1
 17 35 l 1
17 31 m 1
 15 31 l 1
 15 29 l 1
 17 29 l 1
 17 31 l 1
17 27 m 1
 15 27 l 1
 15 25 l 1
 17 25 l 1
 17 27 l 1
23 35 m 1
 21 35 l 1
 21 33 l 1
 23 33 l 1
 23 35 l 1
25 35 m 1
 24 35 l 1
 24 33 l 1
 26 33 l 1
 26 34 l 1
 25 34 l 1
 25 35 l 1
28 35 m 1
 26 35 l 1
 26 34 l 1
 27 34 l 1
 27 33 l 1
 28 33 l 1
 28 35 l 1
31 35 m 1
 29 35 l 1
 29 33 l 1
 31 33 l 1
 31 35 l 1
36 37 m 1
 34 37 l 1
 34 35 l 1
 36 35 l 1
 36 37 l 1
31 31 m 1
 29 31 l 1
 29 29 l 1
 31 29 l 1
 31 31 l 1
36 33 m 1
 34 33 l 1
 34 31 l 1
 36 31 l 1
 36 33 l 1
31 27 m 1
 29 27 l 1
 29 25 l 1
 31 25 l 1
 31 27 l 1
49 43 m 1
 47 43 l 1
 47 41 l 1
 49 41 l 1
 49 43 l 1
49 39 m 1
 47 39 l 1
 47 37 l 1
 49 37 l 1
 49 39 l 1
55 43 m 1
 53 43 l 1
 53 41 l 1
 55 41 l 1
 55 43 l 1
58 43 m 1
 56 43 l 1
 56 41 l 1
 57 41 l 1
 57 42 l 1
 58 42 l 1
 58 43 l 1
59 42 m 1
 58 42 l 1
 58 41 l 1
 60 41 l 1
 60 43 l 1
 59 43 l 1
 59 42 l 1
63 43 m 1
 61 43 l 1
 61 41 l 1
 63 41 l 1
 63 43 l 1
63 39 m 1
 61 39 l 1
 61 37 l 1
 63 37 l 1
 63 39 l 1
49 35 m 1
 47 35 l 1
 47 33 l 1
 49 33 l 1
 49 35 l 1
49 31 m 1
 47 31 l 1
 47 29 l 1
 49 29 l 1
 49 31 l 1
49 27 m 1
 47 27 l 1
 47 25 l 1
 49 25 l 1
 49 27 l 1
55 35 m 1
 53 35 l 1
 53 33 l 1
 55 33 l 1
 55 35 l 1
57 35 m 1
 56 35 l 1
 56 33 l 1
 58 33 l 1
 58 34 l 1
 57 34 l 1
 57 35 l 1
60 35 m 1
 58 35 l 1
 58 34 l 1
 59 34 l 1
 59 33 l 1
 60 33 l 1
 60 35 l 1
63 35 m 1
 61 35 l 1
 61 33 l 1
 63 33 l 1
 63 35 l 1
63 31 m 1
 61 31 l 1
 61 29 l 1
 63 29 l 1
 63 31 l 1
55 27 m 1
 53 27 l 1
 53 25 l 1
 55 25 l 1
 55 27 l 1
58 27 m 1
 56 27 l 1
 56 25 l 1
 57 25 l 1
 57 26 l 1
 58 26 l 1
 58 27 l 1
59 26 m 1
 58 26 l 1
 58 25 l 1
 60 25 l 1
 60 27 l 1
 59 27 l 1
 59 26 l 1
63 27 m 1
 61 27 l 1
 61 25 l 1
 63 25 l 1
 63 27 l 1
11 4 m 1
 10 4 l 1
 10 3 l 1
 11 3 l 1
 11 4 l 1
13 5 m 1
 11 5 l 1
 11 4 l 1
 12 4 l 1
 12 2 l 1
 13 2 l 1
 13 5 l 1
EndSplineSet
EndChar

StartChar: custom_1_3_0_7_7
Encoding: 23945 23945 3977
Width: 70
Flags: H
LayerCount: 2
Fore
SplineSet
17 43 m 1
 15 43 l 1
 15 41 l 1
 17 41 l 1
 17 43 l 1
17 39 m 1
 15 39 l 1
 15 37 l 1
 17 37 l 1
 17 39 l 1
23 43 m 1
 21 43 l 1
 21 41 l 1
 23 41 l 1
 23 43 l 1
23 39 m 1
 21 39 l 1
 21 37 l 1
 23 37 l 1
 23 39 l 1
31 43 m 1
 29 43 l 1
 29 41 l 1
 31 41 l 1
 31 43 l 1
31 39 m 1
 29 39 l 1
 29 37 l 1
 31 37 l 1
 31 39 l 1
17 35 m 1
 15 35 l 1
 15 33 l 1
 17 33 l 1
 17 35 l 1
17 31 m 1
 15 31 l 1
 15 29 l 1
 17 29 l 1
 17 31 l 1
17 27 m 1
 15 27 l 1
 15 25 l 1
 17 25 l 1
 17 27 l 1
23 35 m 1
 21 35 l 1
 21 33 l 1
 23 33 l 1
 23 35 l 1
25 35 m 1
 24 35 l 1
 24 33 l 1
 26 33 l 1
 26 34 l 1
 25 34 l 1
 25 35 l 1
28 35 m 1
 26 35 l 1
 26 34 l 1
 27 34 l 1
 27 33 l 1
 28 33 l 1
 28 35 l 1
31 35 m 1
 29 35 l 1
 29 33 l 1
 31 33 l 1
 31 35 l 1
36 37 m 1
 34 37 l 1
 34 35 l 1
 36 35 l 1
 36 37 l 1
31 31 m 1
 29 31 l 1
 29 29 l 1
 31 29 l 1
 31 31 l 1
36 33 m 1
 34 33 l 1
 34 31 l 1
 36 31 l 1
 36 33 l 1
31 27 m 1
 29 27 l 1
 29 25 l 1
 31 25 l 1
 31 27 l 1
49 43 m 1
 47 43 l 1
 47 41 l 1
 49 41 l 1
 49 43 l 1
49 39 m 1
 47 39 l 1
 47 37 l 1
 49 37 l 1
 49 39 l 1
55 43 m 1
 53 43 l 1
 53 41 l 1
 55 41 l 1
 55 43 l 1
58 43 m 1
 56 43 l 1
 56 41 l 1
 57 41 l 1
 57 42 l 1
 58 42 l 1
 58 43 l 1
59 42 m 1
 58 42 l 1
 58 41 l 1
 60 41 l 1
 60 43 l 1
 59 43 l 1
 59 42 l 1
63 43 m 1
 61 43 l 1
 61 41 l 1
 63 41 l 1
 63 43 l 1
63 39 m 1
 61 39 l 1
 61 37 l 1
 63 37 l 1
 63 39 l 1
49 35 m 1
 47 35 l 1
 47 33 l 1
 49 33 l 1
 49 35 l 1
49 31 m 1
 47 31 l 1
 47 29 l 1
 49 29 l 1
 49 31 l 1
49 27 m 1
 47 27 l 1
 47 25 l 1
 49 25 l 1
 49 27 l 1
55 35 m 1
 53 35 l 1
 53 33 l 1
 55 33 l 1
 55 35 l 1
57 35 m 1
 56 35 l 1
 56 33 l 1
 58 33 l 1
 58 34 l 1
 57 34 l 1
 57 35 l 1
60 35 m 1
 58 35 l 1
 58 34 l 1
 59 34 l 1
 59 33 l 1
 60 33 l 1
 60 35 l 1
63 35 m 1
 61 35 l 1
 61 33 l 1
 63 33 l 1
 63 35 l 1
63 31 m 1
 61 31 l 1
 61 29 l 1
 63 29 l 1
 63 31 l 1
55 27 m 1
 53 27 l 1
 53 25 l 1
 55 25 l 1
 55 27 l 1
58 27 m 1
 56 27 l 1
 56 25 l 1
 57 25 l 1
 57 26 l 1
 58 26 l 1
 58 27 l 1
59 26 m 1
 58 26 l 1
 58 25 l 1
 60 25 l 1
 60 27 l 1
 59 27 l 1
 59 26 l 1
63 27 m 1
 61 27 l 1
 61 25 l 1
 63 25 l 1
 63 27 l 1
13 5 m 1
 11 5 l 1
 11 4 l 1
 12 4 l 1
 12 3 l 1
 14 3 l 1
 14 4 l 1
 13 4 l 1
 13 5 l 1
12 3 m 1
 11 3 l 1
 11 2 l 1
 12 2 l 1
 12 3 l 1
EndSplineSet
EndChar

StartChar: custom_1_3_0_7_8
Encoding: 23946 23946 3978
Width: 70
Flags: H
LayerCount: 2
Fore
SplineSet
17 43 m 1
 15 43 l 1
 15 41 l 1
 17 41 l 1
 17 43 l 1
17 39 m 1
 15 39 l 1
 15 37 l 1
 17 37 l 1
 17 39 l 1
23 43 m 1
 21 43 l 1
 21 41 l 1
 23 41 l 1
 23 43 l 1
23 39 m 1
 21 39 l 1
 21 37 l 1
 23 37 l 1
 23 39 l 1
31 43 m 1
 29 43 l 1
 29 41 l 1
 31 41 l 1
 31 43 l 1
31 39 m 1
 29 39 l 1
 29 37 l 1
 31 37 l 1
 31 39 l 1
17 35 m 1
 15 35 l 1
 15 33 l 1
 17 33 l 1
 17 35 l 1
17 31 m 1
 15 31 l 1
 15 29 l 1
 17 29 l 1
 17 31 l 1
17 27 m 1
 15 27 l 1
 15 25 l 1
 17 25 l 1
 17 27 l 1
23 35 m 1
 21 35 l 1
 21 33 l 1
 23 33 l 1
 23 35 l 1
25 35 m 1
 24 35 l 1
 24 33 l 1
 26 33 l 1
 26 34 l 1
 25 34 l 1
 25 35 l 1
28 35 m 1
 26 35 l 1
 26 34 l 1
 27 34 l 1
 27 33 l 1
 28 33 l 1
 28 35 l 1
31 35 m 1
 29 35 l 1
 29 33 l 1
 31 33 l 1
 31 35 l 1
36 37 m 1
 34 37 l 1
 34 35 l 1
 36 35 l 1
 36 37 l 1
31 31 m 1
 29 31 l 1
 29 29 l 1
 31 29 l 1
 31 31 l 1
36 33 m 1
 34 33 l 1
 34 31 l 1
 36 31 l 1
 36 33 l 1
31 27 m 1
 29 27 l 1
 29 25 l 1
 31 25 l 1
 31 27 l 1
49 43 m 1
 47 43 l 1
 47 41 l 1
 49 41 l 1
 49 43 l 1
49 39 m 1
 47 39 l 1
 47 37 l 1
 49 37 l 1
 49 39 l 1
55 43 m 1
 53 43 l 1
 53 41 l 1
 55 41 l 1
 55 43 l 1
58 43 m 1
 56 43 l 1
 56 41 l 1
 57 41 l 1
 57 42 l 1
 58 42 l 1
 58 43 l 1
59 42 m 1
 58 42 l 1
 58 41 l 1
 60 41 l 1
 60 43 l 1
 59 43 l 1
 59 42 l 1
63 43 m 1
 61 43 l 1
 61 41 l 1
 63 41 l 1
 63 43 l 1
63 39 m 1
 61 39 l 1
 61 37 l 1
 63 37 l 1
 63 39 l 1
49 35 m 1
 47 35 l 1
 47 33 l 1
 49 33 l 1
 49 35 l 1
49 31 m 1
 47 31 l 1
 47 29 l 1
 49 29 l 1
 49 31 l 1
49 27 m 1
 47 27 l 1
 47 25 l 1
 49 25 l 1
 49 27 l 1
55 35 m 1
 53 35 l 1
 53 33 l 1
 55 33 l 1
 55 35 l 1
57 35 m 1
 56 35 l 1
 56 33 l 1
 58 33 l 1
 58 34 l 1
 57 34 l 1
 57 35 l 1
60 35 m 1
 58 35 l 1
 58 34 l 1
 59 34 l 1
 59 33 l 1
 60 33 l 1
 60 35 l 1
63 35 m 1
 61 35 l 1
 61 33 l 1
 63 33 l 1
 63 35 l 1
63 31 m 1
 61 31 l 1
 61 29 l 1
 63 29 l 1
 63 31 l 1
55 27 m 1
 53 27 l 1
 53 25 l 1
 55 25 l 1
 55 27 l 1
58 27 m 1
 56 27 l 1
 56 25 l 1
 57 25 l 1
 57 26 l 1
 58 26 l 1
 58 27 l 1
59 26 m 1
 58 26 l 1
 58 25 l 1
 60 25 l 1
 60 27 l 1
 59 27 l 1
 59 26 l 1
63 27 m 1
 61 27 l 1
 61 25 l 1
 63 25 l 1
 63 27 l 1
14 5 m 1
 11 5 l 1
 11 4 l 1
 13 4 l 1
 13 3 l 1
 14 3 l 1
 14 5 l 1
13 3 m 1
 12 3 l 1
 12 2 l 1
 13 2 l 1
 13 3 l 1
EndSplineSet
EndChar

StartChar: custom_1_3_0_7_9
Encoding: 23947 23947 3979
Width: 70
Flags: H
LayerCount: 2
Fore
SplineSet
17 43 m 1
 15 43 l 1
 15 41 l 1
 17 41 l 1
 17 43 l 1
17 39 m 1
 15 39 l 1
 15 37 l 1
 17 37 l 1
 17 39 l 1
23 43 m 1
 21 43 l 1
 21 41 l 1
 23 41 l 1
 23 43 l 1
23 39 m 1
 21 39 l 1
 21 37 l 1
 23 37 l 1
 23 39 l 1
31 43 m 1
 29 43 l 1
 29 41 l 1
 31 41 l 1
 31 43 l 1
31 39 m 1
 29 39 l 1
 29 37 l 1
 31 37 l 1
 31 39 l 1
17 35 m 1
 15 35 l 1
 15 33 l 1
 17 33 l 1
 17 35 l 1
17 31 m 1
 15 31 l 1
 15 29 l 1
 17 29 l 1
 17 31 l 1
17 27 m 1
 15 27 l 1
 15 25 l 1
 17 25 l 1
 17 27 l 1
23 35 m 1
 21 35 l 1
 21 33 l 1
 23 33 l 1
 23 35 l 1
25 35 m 1
 24 35 l 1
 24 33 l 1
 26 33 l 1
 26 34 l 1
 25 34 l 1
 25 35 l 1
28 35 m 1
 26 35 l 1
 26 34 l 1
 27 34 l 1
 27 33 l 1
 28 33 l 1
 28 35 l 1
31 35 m 1
 29 35 l 1
 29 33 l 1
 31 33 l 1
 31 35 l 1
36 37 m 1
 34 37 l 1
 34 35 l 1
 36 35 l 1
 36 37 l 1
31 31 m 1
 29 31 l 1
 29 29 l 1
 31 29 l 1
 31 31 l 1
36 33 m 1
 34 33 l 1
 34 31 l 1
 36 31 l 1
 36 33 l 1
31 27 m 1
 29 27 l 1
 29 25 l 1
 31 25 l 1
 31 27 l 1
49 43 m 1
 47 43 l 1
 47 41 l 1
 49 41 l 1
 49 43 l 1
49 39 m 1
 47 39 l 1
 47 37 l 1
 49 37 l 1
 49 39 l 1
55 43 m 1
 53 43 l 1
 53 41 l 1
 55 41 l 1
 55 43 l 1
58 43 m 1
 56 43 l 1
 56 41 l 1
 57 41 l 1
 57 42 l 1
 58 42 l 1
 58 43 l 1
59 42 m 1
 58 42 l 1
 58 41 l 1
 60 41 l 1
 60 43 l 1
 59 43 l 1
 59 42 l 1
63 43 m 1
 61 43 l 1
 61 41 l 1
 63 41 l 1
 63 43 l 1
63 39 m 1
 61 39 l 1
 61 37 l 1
 63 37 l 1
 63 39 l 1
49 35 m 1
 47 35 l 1
 47 33 l 1
 49 33 l 1
 49 35 l 1
49 31 m 1
 47 31 l 1
 47 29 l 1
 49 29 l 1
 49 31 l 1
49 27 m 1
 47 27 l 1
 47 25 l 1
 49 25 l 1
 49 27 l 1
55 35 m 1
 53 35 l 1
 53 33 l 1
 55 33 l 1
 55 35 l 1
57 35 m 1
 56 35 l 1
 56 33 l 1
 58 33 l 1
 58 34 l 1
 57 34 l 1
 57 35 l 1
60 35 m 1
 58 35 l 1
 58 34 l 1
 59 34 l 1
 59 33 l 1
 60 33 l 1
 60 35 l 1
63 35 m 1
 61 35 l 1
 61 33 l 1
 63 33 l 1
 63 35 l 1
63 31 m 1
 61 31 l 1
 61 29 l 1
 63 29 l 1
 63 31 l 1
55 27 m 1
 53 27 l 1
 53 25 l 1
 55 25 l 1
 55 27 l 1
58 27 m 1
 56 27 l 1
 56 25 l 1
 57 25 l 1
 57 26 l 1
 58 26 l 1
 58 27 l 1
59 26 m 1
 58 26 l 1
 58 25 l 1
 60 25 l 1
 60 27 l 1
 59 27 l 1
 59 26 l 1
63 27 m 1
 61 27 l 1
 61 25 l 1
 63 25 l 1
 63 27 l 1
13 6 m 1
 12 6 l 1
 12 4 l 1
 13 4 l 1
 13 3 l 1
 14 3 l 1
 14 5 l 1
 13 5 l 1
 13 6 l 1
12 4 m 1
 11 4 l 1
 11 3 l 1
 12 3 l 1
 12 4 l 1
EndSplineSet
EndChar

StartChar: custom_1_3_0_8_0
Encoding: 23948 23948 3980
Width: 70
Flags: H
LayerCount: 2
Fore
SplineSet
17 43 m 1
 15 43 l 1
 15 41 l 1
 17 41 l 1
 17 43 l 1
17 39 m 1
 15 39 l 1
 15 37 l 1
 17 37 l 1
 17 39 l 1
23 43 m 1
 21 43 l 1
 21 41 l 1
 23 41 l 1
 23 43 l 1
23 39 m 1
 21 39 l 1
 21 37 l 1
 23 37 l 1
 23 39 l 1
31 43 m 1
 29 43 l 1
 29 41 l 1
 31 41 l 1
 31 43 l 1
31 39 m 1
 29 39 l 1
 29 37 l 1
 31 37 l 1
 31 39 l 1
17 35 m 1
 15 35 l 1
 15 33 l 1
 17 33 l 1
 17 35 l 1
17 31 m 1
 15 31 l 1
 15 29 l 1
 17 29 l 1
 17 31 l 1
17 27 m 1
 15 27 l 1
 15 25 l 1
 17 25 l 1
 17 27 l 1
23 35 m 1
 21 35 l 1
 21 33 l 1
 23 33 l 1
 23 35 l 1
25 35 m 1
 24 35 l 1
 24 33 l 1
 26 33 l 1
 26 34 l 1
 25 34 l 1
 25 35 l 1
28 35 m 1
 26 35 l 1
 26 34 l 1
 27 34 l 1
 27 33 l 1
 28 33 l 1
 28 35 l 1
31 35 m 1
 29 35 l 1
 29 33 l 1
 31 33 l 1
 31 35 l 1
36 37 m 1
 34 37 l 1
 34 35 l 1
 36 35 l 1
 36 37 l 1
31 31 m 1
 29 31 l 1
 29 29 l 1
 31 29 l 1
 31 31 l 1
36 33 m 1
 34 33 l 1
 34 31 l 1
 36 31 l 1
 36 33 l 1
31 27 m 1
 29 27 l 1
 29 25 l 1
 31 25 l 1
 31 27 l 1
49 43 m 1
 47 43 l 1
 47 41 l 1
 49 41 l 1
 49 43 l 1
49 39 m 1
 47 39 l 1
 47 37 l 1
 49 37 l 1
 49 39 l 1
55 43 m 1
 53 43 l 1
 53 41 l 1
 55 41 l 1
 55 43 l 1
58 43 m 1
 56 43 l 1
 56 41 l 1
 57 41 l 1
 57 42 l 1
 58 42 l 1
 58 43 l 1
59 42 m 1
 58 42 l 1
 58 41 l 1
 60 41 l 1
 60 43 l 1
 59 43 l 1
 59 42 l 1
63 43 m 1
 61 43 l 1
 61 41 l 1
 63 41 l 1
 63 43 l 1
63 39 m 1
 61 39 l 1
 61 37 l 1
 63 37 l 1
 63 39 l 1
49 35 m 1
 47 35 l 1
 47 33 l 1
 49 33 l 1
 49 35 l 1
49 31 m 1
 47 31 l 1
 47 29 l 1
 49 29 l 1
 49 31 l 1
49 27 m 1
 47 27 l 1
 47 25 l 1
 49 25 l 1
 49 27 l 1
55 35 m 1
 53 35 l 1
 53 33 l 1
 55 33 l 1
 55 35 l 1
57 35 m 1
 56 35 l 1
 56 33 l 1
 58 33 l 1
 58 34 l 1
 57 34 l 1
 57 35 l 1
60 35 m 1
 58 35 l 1
 58 34 l 1
 59 34 l 1
 59 33 l 1
 60 33 l 1
 60 35 l 1
63 35 m 1
 61 35 l 1
 61 33 l 1
 63 33 l 1
 63 35 l 1
63 31 m 1
 61 31 l 1
 61 29 l 1
 63 29 l 1
 63 31 l 1
55 27 m 1
 53 27 l 1
 53 25 l 1
 55 25 l 1
 55 27 l 1
58 27 m 1
 56 27 l 1
 56 25 l 1
 57 25 l 1
 57 26 l 1
 58 26 l 1
 58 27 l 1
59 26 m 1
 58 26 l 1
 58 25 l 1
 60 25 l 1
 60 27 l 1
 59 27 l 1
 59 26 l 1
63 27 m 1
 61 27 l 1
 61 25 l 1
 63 25 l 1
 63 27 l 1
14 6 m 1
 12 6 l 1
 12 5 l 1
 13 5 l 1
 13 3 l 1
 14 3 l 1
 14 6 l 1
12 5 m 1
 11 5 l 1
 11 4 l 1
 12 4 l 1
 12 5 l 1
EndSplineSet
EndChar

StartChar: custom_1_3_0_8_1
Encoding: 23949 23949 3981
Width: 70
Flags: H
LayerCount: 2
Fore
SplineSet
17 43 m 1
 15 43 l 1
 15 41 l 1
 17 41 l 1
 17 43 l 1
17 39 m 1
 15 39 l 1
 15 37 l 1
 17 37 l 1
 17 39 l 1
23 43 m 1
 21 43 l 1
 21 41 l 1
 23 41 l 1
 23 43 l 1
23 39 m 1
 21 39 l 1
 21 37 l 1
 23 37 l 1
 23 39 l 1
31 43 m 1
 29 43 l 1
 29 41 l 1
 31 41 l 1
 31 43 l 1
31 39 m 1
 29 39 l 1
 29 37 l 1
 31 37 l 1
 31 39 l 1
17 35 m 1
 15 35 l 1
 15 33 l 1
 17 33 l 1
 17 35 l 1
17 31 m 1
 15 31 l 1
 15 29 l 1
 17 29 l 1
 17 31 l 1
17 27 m 1
 15 27 l 1
 15 25 l 1
 17 25 l 1
 17 27 l 1
23 35 m 1
 21 35 l 1
 21 33 l 1
 23 33 l 1
 23 35 l 1
25 35 m 1
 24 35 l 1
 24 33 l 1
 26 33 l 1
 26 34 l 1
 25 34 l 1
 25 35 l 1
28 35 m 1
 26 35 l 1
 26 34 l 1
 27 34 l 1
 27 33 l 1
 28 33 l 1
 28 35 l 1
31 35 m 1
 29 35 l 1
 29 33 l 1
 31 33 l 1
 31 35 l 1
36 37 m 1
 34 37 l 1
 34 35 l 1
 36 35 l 1
 36 37 l 1
31 31 m 1
 29 31 l 1
 29 29 l 1
 31 29 l 1
 31 31 l 1
36 33 m 1
 34 33 l 1
 34 31 l 1
 36 31 l 1
 36 33 l 1
31 27 m 1
 29 27 l 1
 29 25 l 1
 31 25 l 1
 31 27 l 1
49 43 m 1
 47 43 l 1
 47 41 l 1
 49 41 l 1
 49 43 l 1
49 39 m 1
 47 39 l 1
 47 37 l 1
 49 37 l 1
 49 39 l 1
55 43 m 1
 53 43 l 1
 53 41 l 1
 55 41 l 1
 55 43 l 1
58 43 m 1
 56 43 l 1
 56 41 l 1
 57 41 l 1
 57 42 l 1
 58 42 l 1
 58 43 l 1
59 42 m 1
 58 42 l 1
 58 41 l 1
 60 41 l 1
 60 43 l 1
 59 43 l 1
 59 42 l 1
63 43 m 1
 61 43 l 1
 61 41 l 1
 63 41 l 1
 63 43 l 1
63 39 m 1
 61 39 l 1
 61 37 l 1
 63 37 l 1
 63 39 l 1
49 35 m 1
 47 35 l 1
 47 33 l 1
 49 33 l 1
 49 35 l 1
49 31 m 1
 47 31 l 1
 47 29 l 1
 49 29 l 1
 49 31 l 1
49 27 m 1
 47 27 l 1
 47 25 l 1
 49 25 l 1
 49 27 l 1
55 35 m 1
 53 35 l 1
 53 33 l 1
 55 33 l 1
 55 35 l 1
57 35 m 1
 56 35 l 1
 56 33 l 1
 58 33 l 1
 58 34 l 1
 57 34 l 1
 57 35 l 1
60 35 m 1
 58 35 l 1
 58 34 l 1
 59 34 l 1
 59 33 l 1
 60 33 l 1
 60 35 l 1
63 35 m 1
 61 35 l 1
 61 33 l 1
 63 33 l 1
 63 35 l 1
63 31 m 1
 61 31 l 1
 61 29 l 1
 63 29 l 1
 63 31 l 1
55 27 m 1
 53 27 l 1
 53 25 l 1
 55 25 l 1
 55 27 l 1
58 27 m 1
 56 27 l 1
 56 25 l 1
 57 25 l 1
 57 26 l 1
 58 26 l 1
 58 27 l 1
59 26 m 1
 58 26 l 1
 58 25 l 1
 60 25 l 1
 60 27 l 1
 59 27 l 1
 59 26 l 1
63 27 m 1
 61 27 l 1
 61 25 l 1
 63 25 l 1
 63 27 l 1
14 6 m 1
 12 6 l 1
 12 5 l 1
 13 5 l 1
 13 4 l 1
 15 4 l 1
 15 5 l 1
 14 5 l 1
 14 6 l 1
13 4 m 1
 12 4 l 1
 12 3 l 1
 13 3 l 1
 13 4 l 1
EndSplineSet
EndChar

StartChar: custom_1_3_0_8_2
Encoding: 23950 23950 3982
Width: 70
Flags: H
LayerCount: 2
Fore
SplineSet
17 43 m 1
 15 43 l 1
 15 41 l 1
 17 41 l 1
 17 43 l 1
17 39 m 1
 15 39 l 1
 15 37 l 1
 17 37 l 1
 17 39 l 1
23 43 m 1
 21 43 l 1
 21 41 l 1
 23 41 l 1
 23 43 l 1
23 39 m 1
 21 39 l 1
 21 37 l 1
 23 37 l 1
 23 39 l 1
31 43 m 1
 29 43 l 1
 29 41 l 1
 31 41 l 1
 31 43 l 1
31 39 m 1
 29 39 l 1
 29 37 l 1
 31 37 l 1
 31 39 l 1
17 35 m 1
 15 35 l 1
 15 33 l 1
 17 33 l 1
 17 35 l 1
17 31 m 1
 15 31 l 1
 15 29 l 1
 17 29 l 1
 17 31 l 1
17 27 m 1
 15 27 l 1
 15 25 l 1
 17 25 l 1
 17 27 l 1
23 35 m 1
 21 35 l 1
 21 33 l 1
 23 33 l 1
 23 35 l 1
25 35 m 1
 24 35 l 1
 24 33 l 1
 26 33 l 1
 26 34 l 1
 25 34 l 1
 25 35 l 1
28 35 m 1
 26 35 l 1
 26 34 l 1
 27 34 l 1
 27 33 l 1
 28 33 l 1
 28 35 l 1
31 35 m 1
 29 35 l 1
 29 33 l 1
 31 33 l 1
 31 35 l 1
36 37 m 1
 34 37 l 1
 34 35 l 1
 36 35 l 1
 36 37 l 1
31 31 m 1
 29 31 l 1
 29 29 l 1
 31 29 l 1
 31 31 l 1
36 33 m 1
 34 33 l 1
 34 31 l 1
 36 31 l 1
 36 33 l 1
31 27 m 1
 29 27 l 1
 29 25 l 1
 31 25 l 1
 31 27 l 1
49 43 m 1
 47 43 l 1
 47 41 l 1
 49 41 l 1
 49 43 l 1
49 39 m 1
 47 39 l 1
 47 37 l 1
 49 37 l 1
 49 39 l 1
55 43 m 1
 53 43 l 1
 53 41 l 1
 55 41 l 1
 55 43 l 1
58 43 m 1
 56 43 l 1
 56 41 l 1
 57 41 l 1
 57 42 l 1
 58 42 l 1
 58 43 l 1
59 42 m 1
 58 42 l 1
 58 41 l 1
 60 41 l 1
 60 43 l 1
 59 43 l 1
 59 42 l 1
63 43 m 1
 61 43 l 1
 61 41 l 1
 63 41 l 1
 63 43 l 1
63 39 m 1
 61 39 l 1
 61 37 l 1
 63 37 l 1
 63 39 l 1
49 35 m 1
 47 35 l 1
 47 33 l 1
 49 33 l 1
 49 35 l 1
49 31 m 1
 47 31 l 1
 47 29 l 1
 49 29 l 1
 49 31 l 1
49 27 m 1
 47 27 l 1
 47 25 l 1
 49 25 l 1
 49 27 l 1
55 35 m 1
 53 35 l 1
 53 33 l 1
 55 33 l 1
 55 35 l 1
57 35 m 1
 56 35 l 1
 56 33 l 1
 58 33 l 1
 58 34 l 1
 57 34 l 1
 57 35 l 1
60 35 m 1
 58 35 l 1
 58 34 l 1
 59 34 l 1
 59 33 l 1
 60 33 l 1
 60 35 l 1
63 35 m 1
 61 35 l 1
 61 33 l 1
 63 33 l 1
 63 35 l 1
63 31 m 1
 61 31 l 1
 61 29 l 1
 63 29 l 1
 63 31 l 1
55 27 m 1
 53 27 l 1
 53 25 l 1
 55 25 l 1
 55 27 l 1
58 27 m 1
 56 27 l 1
 56 25 l 1
 57 25 l 1
 57 26 l 1
 58 26 l 1
 58 27 l 1
59 26 m 1
 58 26 l 1
 58 25 l 1
 60 25 l 1
 60 27 l 1
 59 27 l 1
 59 26 l 1
63 27 m 1
 61 27 l 1
 61 25 l 1
 63 25 l 1
 63 27 l 1
15 6 m 1
 12 6 l 1
 12 5 l 1
 14 5 l 1
 14 4 l 1
 15 4 l 1
 15 6 l 1
14 4 m 1
 13 4 l 1
 13 3 l 1
 14 3 l 1
 14 4 l 1
EndSplineSet
EndChar

StartChar: custom_1_3_0_8_3
Encoding: 23951 23951 3983
Width: 70
Flags: H
LayerCount: 2
Fore
SplineSet
17 43 m 1
 15 43 l 1
 15 41 l 1
 17 41 l 1
 17 43 l 1
17 39 m 1
 15 39 l 1
 15 37 l 1
 17 37 l 1
 17 39 l 1
23 43 m 1
 21 43 l 1
 21 41 l 1
 23 41 l 1
 23 43 l 1
23 39 m 1
 21 39 l 1
 21 37 l 1
 23 37 l 1
 23 39 l 1
31 43 m 1
 29 43 l 1
 29 41 l 1
 31 41 l 1
 31 43 l 1
31 39 m 1
 29 39 l 1
 29 37 l 1
 31 37 l 1
 31 39 l 1
17 35 m 1
 15 35 l 1
 15 33 l 1
 17 33 l 1
 17 35 l 1
17 31 m 1
 15 31 l 1
 15 29 l 1
 17 29 l 1
 17 31 l 1
17 27 m 1
 15 27 l 1
 15 25 l 1
 17 25 l 1
 17 27 l 1
23 35 m 1
 21 35 l 1
 21 33 l 1
 23 33 l 1
 23 35 l 1
25 35 m 1
 24 35 l 1
 24 33 l 1
 26 33 l 1
 26 34 l 1
 25 34 l 1
 25 35 l 1
28 35 m 1
 26 35 l 1
 26 34 l 1
 27 34 l 1
 27 33 l 1
 28 33 l 1
 28 35 l 1
31 35 m 1
 29 35 l 1
 29 33 l 1
 31 33 l 1
 31 35 l 1
36 37 m 1
 34 37 l 1
 34 35 l 1
 36 35 l 1
 36 37 l 1
31 31 m 1
 29 31 l 1
 29 29 l 1
 31 29 l 1
 31 31 l 1
36 33 m 1
 34 33 l 1
 34 31 l 1
 36 31 l 1
 36 33 l 1
31 27 m 1
 29 27 l 1
 29 25 l 1
 31 25 l 1
 31 27 l 1
49 43 m 1
 47 43 l 1
 47 41 l 1
 49 41 l 1
 49 43 l 1
49 39 m 1
 47 39 l 1
 47 37 l 1
 49 37 l 1
 49 39 l 1
55 43 m 1
 53 43 l 1
 53 41 l 1
 55 41 l 1
 55 43 l 1
58 43 m 1
 56 43 l 1
 56 41 l 1
 57 41 l 1
 57 42 l 1
 58 42 l 1
 58 43 l 1
59 42 m 1
 58 42 l 1
 58 41 l 1
 60 41 l 1
 60 43 l 1
 59 43 l 1
 59 42 l 1
63 43 m 1
 61 43 l 1
 61 41 l 1
 63 41 l 1
 63 43 l 1
63 39 m 1
 61 39 l 1
 61 37 l 1
 63 37 l 1
 63 39 l 1
49 35 m 1
 47 35 l 1
 47 33 l 1
 49 33 l 1
 49 35 l 1
49 31 m 1
 47 31 l 1
 47 29 l 1
 49 29 l 1
 49 31 l 1
49 27 m 1
 47 27 l 1
 47 25 l 1
 49 25 l 1
 49 27 l 1
55 35 m 1
 53 35 l 1
 53 33 l 1
 55 33 l 1
 55 35 l 1
57 35 m 1
 56 35 l 1
 56 33 l 1
 58 33 l 1
 58 34 l 1
 57 34 l 1
 57 35 l 1
60 35 m 1
 58 35 l 1
 58 34 l 1
 59 34 l 1
 59 33 l 1
 60 33 l 1
 60 35 l 1
63 35 m 1
 61 35 l 1
 61 33 l 1
 63 33 l 1
 63 35 l 1
63 31 m 1
 61 31 l 1
 61 29 l 1
 63 29 l 1
 63 31 l 1
55 27 m 1
 53 27 l 1
 53 25 l 1
 55 25 l 1
 55 27 l 1
58 27 m 1
 56 27 l 1
 56 25 l 1
 57 25 l 1
 57 26 l 1
 58 26 l 1
 58 27 l 1
59 26 m 1
 58 26 l 1
 58 25 l 1
 60 25 l 1
 60 27 l 1
 59 27 l 1
 59 26 l 1
63 27 m 1
 61 27 l 1
 61 25 l 1
 63 25 l 1
 63 27 l 1
14 7 m 1
 13 7 l 1
 13 5 l 1
 14 5 l 1
 14 4 l 1
 15 4 l 1
 15 6 l 1
 14 6 l 1
 14 7 l 1
13 5 m 1
 12 5 l 1
 12 4 l 1
 13 4 l 1
 13 5 l 1
EndSplineSet
EndChar

StartChar: custom_1_3_0_8_4
Encoding: 23952 23952 3984
Width: 70
Flags: H
LayerCount: 2
Fore
SplineSet
17 43 m 1
 15 43 l 1
 15 41 l 1
 17 41 l 1
 17 43 l 1
17 39 m 1
 15 39 l 1
 15 37 l 1
 17 37 l 1
 17 39 l 1
23 43 m 1
 21 43 l 1
 21 41 l 1
 23 41 l 1
 23 43 l 1
23 39 m 1
 21 39 l 1
 21 37 l 1
 23 37 l 1
 23 39 l 1
31 43 m 1
 29 43 l 1
 29 41 l 1
 31 41 l 1
 31 43 l 1
31 39 m 1
 29 39 l 1
 29 37 l 1
 31 37 l 1
 31 39 l 1
17 35 m 1
 15 35 l 1
 15 33 l 1
 17 33 l 1
 17 35 l 1
17 31 m 1
 15 31 l 1
 15 29 l 1
 17 29 l 1
 17 31 l 1
17 27 m 1
 15 27 l 1
 15 25 l 1
 17 25 l 1
 17 27 l 1
23 35 m 1
 21 35 l 1
 21 33 l 1
 23 33 l 1
 23 35 l 1
25 35 m 1
 24 35 l 1
 24 33 l 1
 26 33 l 1
 26 34 l 1
 25 34 l 1
 25 35 l 1
28 35 m 1
 26 35 l 1
 26 34 l 1
 27 34 l 1
 27 33 l 1
 28 33 l 1
 28 35 l 1
31 35 m 1
 29 35 l 1
 29 33 l 1
 31 33 l 1
 31 35 l 1
36 37 m 1
 34 37 l 1
 34 35 l 1
 36 35 l 1
 36 37 l 1
31 31 m 1
 29 31 l 1
 29 29 l 1
 31 29 l 1
 31 31 l 1
36 33 m 1
 34 33 l 1
 34 31 l 1
 36 31 l 1
 36 33 l 1
31 27 m 1
 29 27 l 1
 29 25 l 1
 31 25 l 1
 31 27 l 1
49 43 m 1
 47 43 l 1
 47 41 l 1
 49 41 l 1
 49 43 l 1
49 39 m 1
 47 39 l 1
 47 37 l 1
 49 37 l 1
 49 39 l 1
55 43 m 1
 53 43 l 1
 53 41 l 1
 55 41 l 1
 55 43 l 1
58 43 m 1
 56 43 l 1
 56 41 l 1
 57 41 l 1
 57 42 l 1
 58 42 l 1
 58 43 l 1
59 42 m 1
 58 42 l 1
 58 41 l 1
 60 41 l 1
 60 43 l 1
 59 43 l 1
 59 42 l 1
63 43 m 1
 61 43 l 1
 61 41 l 1
 63 41 l 1
 63 43 l 1
63 39 m 1
 61 39 l 1
 61 37 l 1
 63 37 l 1
 63 39 l 1
49 35 m 1
 47 35 l 1
 47 33 l 1
 49 33 l 1
 49 35 l 1
49 31 m 1
 47 31 l 1
 47 29 l 1
 49 29 l 1
 49 31 l 1
49 27 m 1
 47 27 l 1
 47 25 l 1
 49 25 l 1
 49 27 l 1
55 35 m 1
 53 35 l 1
 53 33 l 1
 55 33 l 1
 55 35 l 1
57 35 m 1
 56 35 l 1
 56 33 l 1
 58 33 l 1
 58 34 l 1
 57 34 l 1
 57 35 l 1
60 35 m 1
 58 35 l 1
 58 34 l 1
 59 34 l 1
 59 33 l 1
 60 33 l 1
 60 35 l 1
63 35 m 1
 61 35 l 1
 61 33 l 1
 63 33 l 1
 63 35 l 1
63 31 m 1
 61 31 l 1
 61 29 l 1
 63 29 l 1
 63 31 l 1
55 27 m 1
 53 27 l 1
 53 25 l 1
 55 25 l 1
 55 27 l 1
58 27 m 1
 56 27 l 1
 56 25 l 1
 57 25 l 1
 57 26 l 1
 58 26 l 1
 58 27 l 1
59 26 m 1
 58 26 l 1
 58 25 l 1
 60 25 l 1
 60 27 l 1
 59 27 l 1
 59 26 l 1
63 27 m 1
 61 27 l 1
 61 25 l 1
 63 25 l 1
 63 27 l 1
13 6 m 1
 12 6 l 1
 12 5 l 1
 13 5 l 1
 13 6 l 1
15 7 m 1
 13 7 l 1
 13 6 l 1
 14 6 l 1
 14 4 l 1
 15 4 l 1
 15 7 l 1
EndSplineSet
EndChar

StartChar: custom_1_3_0_8_5
Encoding: 23953 23953 3985
Width: 70
Flags: H
LayerCount: 2
Fore
SplineSet
17 43 m 1
 15 43 l 1
 15 41 l 1
 17 41 l 1
 17 43 l 1
17 39 m 1
 15 39 l 1
 15 37 l 1
 17 37 l 1
 17 39 l 1
23 43 m 1
 21 43 l 1
 21 41 l 1
 23 41 l 1
 23 43 l 1
23 39 m 1
 21 39 l 1
 21 37 l 1
 23 37 l 1
 23 39 l 1
31 43 m 1
 29 43 l 1
 29 41 l 1
 31 41 l 1
 31 43 l 1
31 39 m 1
 29 39 l 1
 29 37 l 1
 31 37 l 1
 31 39 l 1
17 35 m 1
 15 35 l 1
 15 33 l 1
 17 33 l 1
 17 35 l 1
17 31 m 1
 15 31 l 1
 15 29 l 1
 17 29 l 1
 17 31 l 1
17 27 m 1
 15 27 l 1
 15 25 l 1
 17 25 l 1
 17 27 l 1
23 35 m 1
 21 35 l 1
 21 33 l 1
 23 33 l 1
 23 35 l 1
25 35 m 1
 24 35 l 1
 24 33 l 1
 26 33 l 1
 26 34 l 1
 25 34 l 1
 25 35 l 1
28 35 m 1
 26 35 l 1
 26 34 l 1
 27 34 l 1
 27 33 l 1
 28 33 l 1
 28 35 l 1
31 35 m 1
 29 35 l 1
 29 33 l 1
 31 33 l 1
 31 35 l 1
36 37 m 1
 34 37 l 1
 34 35 l 1
 36 35 l 1
 36 37 l 1
31 31 m 1
 29 31 l 1
 29 29 l 1
 31 29 l 1
 31 31 l 1
36 33 m 1
 34 33 l 1
 34 31 l 1
 36 31 l 1
 36 33 l 1
31 27 m 1
 29 27 l 1
 29 25 l 1
 31 25 l 1
 31 27 l 1
49 43 m 1
 47 43 l 1
 47 41 l 1
 49 41 l 1
 49 43 l 1
49 39 m 1
 47 39 l 1
 47 37 l 1
 49 37 l 1
 49 39 l 1
55 43 m 1
 53 43 l 1
 53 41 l 1
 55 41 l 1
 55 43 l 1
58 43 m 1
 56 43 l 1
 56 41 l 1
 57 41 l 1
 57 42 l 1
 58 42 l 1
 58 43 l 1
59 42 m 1
 58 42 l 1
 58 41 l 1
 60 41 l 1
 60 43 l 1
 59 43 l 1
 59 42 l 1
63 43 m 1
 61 43 l 1
 61 41 l 1
 63 41 l 1
 63 43 l 1
63 39 m 1
 61 39 l 1
 61 37 l 1
 63 37 l 1
 63 39 l 1
49 35 m 1
 47 35 l 1
 47 33 l 1
 49 33 l 1
 49 35 l 1
49 31 m 1
 47 31 l 1
 47 29 l 1
 49 29 l 1
 49 31 l 1
49 27 m 1
 47 27 l 1
 47 25 l 1
 49 25 l 1
 49 27 l 1
55 35 m 1
 53 35 l 1
 53 33 l 1
 55 33 l 1
 55 35 l 1
57 35 m 1
 56 35 l 1
 56 33 l 1
 58 33 l 1
 58 34 l 1
 57 34 l 1
 57 35 l 1
60 35 m 1
 58 35 l 1
 58 34 l 1
 59 34 l 1
 59 33 l 1
 60 33 l 1
 60 35 l 1
63 35 m 1
 61 35 l 1
 61 33 l 1
 63 33 l 1
 63 35 l 1
63 31 m 1
 61 31 l 1
 61 29 l 1
 63 29 l 1
 63 31 l 1
55 27 m 1
 53 27 l 1
 53 25 l 1
 55 25 l 1
 55 27 l 1
58 27 m 1
 56 27 l 1
 56 25 l 1
 57 25 l 1
 57 26 l 1
 58 26 l 1
 58 27 l 1
59 26 m 1
 58 26 l 1
 58 25 l 1
 60 25 l 1
 60 27 l 1
 59 27 l 1
 59 26 l 1
63 27 m 1
 61 27 l 1
 61 25 l 1
 63 25 l 1
 63 27 l 1
15 7 m 1
 13 7 l 1
 13 6 l 1
 14 6 l 1
 14 5 l 1
 16 5 l 1
 16 6 l 1
 15 6 l 1
 15 7 l 1
14 5 m 1
 13 5 l 1
 13 4 l 1
 14 4 l 1
 14 5 l 1
EndSplineSet
EndChar

StartChar: custom_1_3_0_8_6
Encoding: 23954 23954 3986
Width: 70
Flags: H
LayerCount: 2
Fore
SplineSet
17 43 m 1
 15 43 l 1
 15 41 l 1
 17 41 l 1
 17 43 l 1
17 39 m 1
 15 39 l 1
 15 37 l 1
 17 37 l 1
 17 39 l 1
23 43 m 1
 21 43 l 1
 21 41 l 1
 23 41 l 1
 23 43 l 1
23 39 m 1
 21 39 l 1
 21 37 l 1
 23 37 l 1
 23 39 l 1
31 43 m 1
 29 43 l 1
 29 41 l 1
 31 41 l 1
 31 43 l 1
31 39 m 1
 29 39 l 1
 29 37 l 1
 31 37 l 1
 31 39 l 1
17 35 m 1
 15 35 l 1
 15 33 l 1
 17 33 l 1
 17 35 l 1
17 31 m 1
 15 31 l 1
 15 29 l 1
 17 29 l 1
 17 31 l 1
17 27 m 1
 15 27 l 1
 15 25 l 1
 17 25 l 1
 17 27 l 1
23 35 m 1
 21 35 l 1
 21 33 l 1
 23 33 l 1
 23 35 l 1
25 35 m 1
 24 35 l 1
 24 33 l 1
 26 33 l 1
 26 34 l 1
 25 34 l 1
 25 35 l 1
28 35 m 1
 26 35 l 1
 26 34 l 1
 27 34 l 1
 27 33 l 1
 28 33 l 1
 28 35 l 1
31 35 m 1
 29 35 l 1
 29 33 l 1
 31 33 l 1
 31 35 l 1
36 37 m 1
 34 37 l 1
 34 35 l 1
 36 35 l 1
 36 37 l 1
31 31 m 1
 29 31 l 1
 29 29 l 1
 31 29 l 1
 31 31 l 1
36 33 m 1
 34 33 l 1
 34 31 l 1
 36 31 l 1
 36 33 l 1
31 27 m 1
 29 27 l 1
 29 25 l 1
 31 25 l 1
 31 27 l 1
49 43 m 1
 47 43 l 1
 47 41 l 1
 49 41 l 1
 49 43 l 1
49 39 m 1
 47 39 l 1
 47 37 l 1
 49 37 l 1
 49 39 l 1
55 43 m 1
 53 43 l 1
 53 41 l 1
 55 41 l 1
 55 43 l 1
58 43 m 1
 56 43 l 1
 56 41 l 1
 57 41 l 1
 57 42 l 1
 58 42 l 1
 58 43 l 1
59 42 m 1
 58 42 l 1
 58 41 l 1
 60 41 l 1
 60 43 l 1
 59 43 l 1
 59 42 l 1
63 43 m 1
 61 43 l 1
 61 41 l 1
 63 41 l 1
 63 43 l 1
63 39 m 1
 61 39 l 1
 61 37 l 1
 63 37 l 1
 63 39 l 1
49 35 m 1
 47 35 l 1
 47 33 l 1
 49 33 l 1
 49 35 l 1
49 31 m 1
 47 31 l 1
 47 29 l 1
 49 29 l 1
 49 31 l 1
49 27 m 1
 47 27 l 1
 47 25 l 1
 49 25 l 1
 49 27 l 1
55 35 m 1
 53 35 l 1
 53 33 l 1
 55 33 l 1
 55 35 l 1
57 35 m 1
 56 35 l 1
 56 33 l 1
 58 33 l 1
 58 34 l 1
 57 34 l 1
 57 35 l 1
60 35 m 1
 58 35 l 1
 58 34 l 1
 59 34 l 1
 59 33 l 1
 60 33 l 1
 60 35 l 1
63 35 m 1
 61 35 l 1
 61 33 l 1
 63 33 l 1
 63 35 l 1
63 31 m 1
 61 31 l 1
 61 29 l 1
 63 29 l 1
 63 31 l 1
55 27 m 1
 53 27 l 1
 53 25 l 1
 55 25 l 1
 55 27 l 1
58 27 m 1
 56 27 l 1
 56 25 l 1
 57 25 l 1
 57 26 l 1
 58 26 l 1
 58 27 l 1
59 26 m 1
 58 26 l 1
 58 25 l 1
 60 25 l 1
 60 27 l 1
 59 27 l 1
 59 26 l 1
63 27 m 1
 61 27 l 1
 61 25 l 1
 63 25 l 1
 63 27 l 1
16 7 m 1
 13 7 l 1
 13 6 l 1
 15 6 l 1
 15 5 l 1
 16 5 l 1
 16 7 l 1
15 5 m 1
 14 5 l 1
 14 4 l 1
 15 4 l 1
 15 5 l 1
EndSplineSet
EndChar

